<svg width="16" height="16" viewBox="0 0 16 16" fill="none" xmlns="http://www.w3.org/2000/svg">
<path d="M0 0V7.875L8 15.75L16 7.875L8 0H0ZM4 2.8125C4.3031 2.8125 4.59379 2.93103 4.80812 3.142C5.02245 3.35298 5.14286 3.63913 5.14286 3.9375C5.14286 4.23587 5.02245 4.52202 4.80812 4.733C4.59379 4.94397 4.3031 5.0625 4 5.0625C3.6969 5.0625 3.40621 4.94397 3.19188 4.733C2.97755 4.52202 2.85714 4.23587 2.85714 3.9375C2.85714 3.63913 2.97755 3.35298 3.19188 3.142C3.40621 2.93103 3.6969 2.8125 4 2.8125Z" fill="#1C191A"/>
</svg>
