<svg xmlns="http://www.w3.org/2000/svg" width="426.660" height="213.330" viewBox="0 0 426.660 213.330" fill="none">
  <path d="M 0 106.665 L 0.191 106.76 C 17.963 71.215 35.729 44.572 53.483 26.817 C 71.238 9.063 88.964 0.213 106.665 0.213 C 124.366 0.213 142.092 9.063 159.847 26.817 C 177.601 44.572 195.367 71.215 213.139 106.76 L 213.33 106.665 L 213.521 106.57 C 195.738 71.005 177.949 44.316 160.148 26.515 C 142.348 8.715 124.519 -0.213 106.665 -0.213 C 88.811 -0.213 70.982 8.715 53.182 26.515 C 35.381 44.316 17.592 71.005 -0.191 106.57 L 0 106.665 Z M 213.33 106.665 L 213.139 106.76 C 230.922 142.325 248.711 169.014 266.512 186.815 C 284.312 204.615 302.141 213.543 319.995 213.543 C 337.849 213.543 355.678 204.615 373.478 186.815 C 391.279 169.014 409.068 142.325 426.851 106.76 L 426.66 106.665 L 426.469 106.57 C 408.697 142.115 390.931 168.758 373.177 186.513 C 355.422 204.267 337.696 213.117 319.995 213.117 C 302.294 213.117 284.568 204.267 266.813 186.513 C 249.059 168.758 231.293 142.115 213.521 106.57 L 213.33 106.665 Z" fill="currentColor" fill-rule="nonzero"></path>
</svg>