<svg xmlns="http://www.w3.org/2000/svg" viewBox="6 6 62 62"><path d="M49.3332 6.16663H24.6665C14.4638 6.16663 6.1665 14.4639 6.1665 24.6666V64.75C6.1665 65.5677 6.49135 66.352 7.06959 66.9302C7.64783 67.5084 8.43209 67.8333 9.24984 67.8333H49.3332C59.5359 67.8333 67.8332 59.536 67.8332 49.3333V24.6666C67.8332 14.4639 59.5359 6.16663 49.3332 6.16663ZM61.6665 49.3333C61.6665 56.1351 56.135 61.6666 49.3332 61.6666H12.3332V24.6666C12.3332 17.8648 17.8647 12.3333 24.6665 12.3333H49.3332C56.135 12.3333 61.6665 17.8648 61.6665 24.6666V49.3333Z" fill="currentColor"></path><path d="M40.0832 21.5833H33.9165V33.9166H21.5832V40.0833H33.9165V52.4166H40.0832V40.0833H52.4165V33.9166H40.0832V21.5833Z" fill="currentColor"></path></svg>