<svg xmlns="http://www.w3.org/2000/svg" viewBox="0 0 76 80" fill="none"><path d="M75.9579 60.6744L62.845 39.3964L62.6427 39.2665C54.8345 27.0266 47.7428 14.1688 39.8785 1.89745C39.7232 1.65601 38.8134 0.227065 38.7259 0.171954C38.2978 -0.0944147 37.4037 -0.0589864 37.0278 0.332038C36.4652 0.915949 35.7447 2.48792 35.2682 3.25028C35.0007 3.67936 34.8075 4.05726 34.5529 4.46797C24.1798 21.2138 13.8381 38.0724 3.62684 54.9389C2.68312 56.4978 1.5684 57.9897 0.678201 59.5774C0.315332 60.2256 -0.42607 61.3764 0.321858 61.98C0.76696 62.3395 2.2824 62.3513 2.92982 62.375C8.70048 62.5823 14.5978 62.2109 20.3815 62.3671C22.5522 65.2184 25.0022 67.6288 28.4312 68.8557C32.83 70.4303 39.1736 69.8831 42.8363 66.8258C43.053 66.6447 43.4028 65.9309 43.7265 66.0595L57.7792 79.8595C58.3561 80.1679 59.2085 79.9553 59.4865 79.353C59.7567 78.7652 59.5752 78.3977 59.2045 77.9044L45.5121 64.2684C46.9584 62.308 48.3146 60.2637 48.9254 57.8585C51.5908 47.3717 42.583 37.2523 32.0181 38.5133C31.4594 38.5802 30.9295 38.8138 30.3865 38.84L37.884 26.8469L43.7787 36.0097C47.363 41.9275 51.301 47.9963 55.0094 53.9364C56.2011 55.8443 57.415 57.7417 58.5506 59.685C58.5898 59.9921 58.5075 59.832 58.3914 59.849C56.9477 60.0655 54.8123 59.8582 53.2668 59.8845C53.0371 59.8884 52.8126 59.7664 52.6194 59.7716C52.3453 59.7782 51.1105 59.9842 50.8951 60.1115C50.2477 60.4959 50.2581 61.606 50.7855 61.9852C51.1261 62.2306 52.9836 62.3526 53.5279 62.375C54.127 62.3986 54.7209 62.2411 55.2143 62.2516C61.6911 62.3881 68.1614 62.4025 74.6643 62.3763C75.484 62.1834 76.1719 61.5614 75.9618 60.6744H75.9579ZM42.4382 44.4836C52.173 53.5113 44.229 69.3373 31.0091 66.7891C23.1134 65.267 18.417 56.3075 21.752 48.9082C25.3546 40.9159 35.9 38.4201 42.4382 44.4823V44.4836ZM61.5762 59.8517L51.549 43.657L51.2997 43.4418C47.1228 37.2471 43.5685 30.1916 39.3042 24.1031C39.171 23.9116 38.5341 23.1203 38.4022 23.0692C38.3578 23.0521 37.4951 23.0626 37.4507 23.081C37.3358 23.1295 36.5905 24.048 36.4574 24.2331C32.8404 29.2927 29.9609 35.2368 26.3388 40.4094C22.8471 42.497 20.2483 45.414 18.8817 49.2993C17.6782 52.7214 18.1938 56.4755 19.1676 59.8766H3.65164C3.57593 59.8084 4.22857 58.6957 4.32778 58.5264C6.55981 54.7054 8.96806 50.8949 11.2614 47.1434C14.3158 42.1467 17.904 35.7486 21.4831 30.7466C21.5184 30.6968 21.2417 30.4514 21.645 30.5104L21.3865 30.2506C21.4988 30.2414 21.662 30.2874 21.7481 30.2231C21.8199 30.1693 22.4164 28.903 22.5822 28.6327C26.3257 22.56 30.4126 16.0911 34.3167 9.75467C35.2656 8.21419 36.1389 6.51756 37.2405 4.95872C37.4167 4.70941 37.7679 4.16092 37.9349 3.98247C38.0394 3.87225 38.0237 3.86306 38.2051 3.89849L72.5015 59.8727L61.5749 59.8451L61.5762 59.8517Z" fill="#378aff"></path><path d="M33.0506 64.1989C34.0139 64.2645 34.9093 64.0939 35.8608 64.0742L35.729 63.8157L36.3177 63.5506L36.4456 63.8118C37.0108 63.3158 37.9023 63.573 38.4192 62.9733C38.4936 62.8867 38.4492 62.6899 38.4805 62.6479C38.4988 62.6243 38.7638 62.7096 39.0784 62.5311C44.1585 59.6417 45.2236 52.3199 41.6837 47.7312C41.0063 46.8534 39.342 45.6397 38.3396 45.1305C34.4642 43.1649 28.9402 43.9194 26.3192 47.537L26.0869 47.4294C20.8931 53.8892 24.4814 63.6189 33.0506 64.1989ZM26.3779 52.1178C27.9834 46.6303 34.75 44.7828 38.9452 48.6511C41.3678 50.8844 41.9147 54.8313 40.3158 57.7391C36.9077 63.9364 27.7981 62.3553 26.267 55.6829C26.2017 55.3969 26.3375 55.0177 26.3231 54.9626C26.3022 54.8864 26.1195 54.9127 26.0973 54.834C26.036 54.6201 26.2696 52.4839 26.3766 52.1165L26.3779 52.1178Z" fill="#378aff"></path></svg>
