<svg xmlns="http://www.w3.org/2000/svg" viewBox="0 0 69 70" fill="none"><path d="M68.8749 43.561C68.8762 35.2752 68.9318 26.9735 68.8193 18.6958C68.769 14.9843 69.0191 11.5014 67.4459 7.97335C65.0909 2.6919 59.7417 0.414752 54.2311 0.164837C49.5474 -0.047856 44.7883 0.303088 40.102 0.0757721L39.5529 0C33.5938 0.0877361 27.5949 0.0824187 21.6371 0.172813C14.7823 0.275172 8.11531 -0.522428 3.21068 5.27347C0.142465 8.89989 0.21788 12.8347 0.105419 17.3199C-0.15655 27.6462 0.157019 38.007 0.118649 48.3226C0.0908648 55.6021 -0.829995 62.924 6.21538 67.356C11.3 70.5544 15.7971 69.9217 21.5406 69.9429C30.7544 69.9775 40.0596 70.0519 49.2987 69.9429C55.8439 69.8672 61.4829 70.0134 66.0276 64.498C69.9122 59.7841 68.8735 49.4326 68.8749 43.5596V43.561ZM66.1705 55.8001C66.0316 58.8789 65.3648 61.2345 63.2267 63.4863C60.7975 66.0453 58.0389 66.8256 54.6148 67.0264C49.8094 67.3082 44.66 67.1912 39.8215 67.2231C33.476 67.2643 27.1901 67.146 20.8658 67.1194C15.9294 67.0981 11.5064 67.8957 7.24076 64.7731C1.92068 60.8795 2.90504 56.2348 2.82566 50.3565C2.72908 43.0957 2.82434 35.8521 2.82566 28.5887C2.82566 24.3361 2.58486 20.0291 2.71981 15.7619C2.95532 8.27112 6.03941 3.34859 13.9884 2.98436C22.4151 2.59752 30.9053 2.97904 39.3346 2.72115C41.5745 2.76502 43.8621 2.86604 46.0981 2.89529C52.9384 2.98568 61.8798 1.71484 65.2205 9.33591C66.4444 12.1288 66.1507 15.7885 66.1652 18.7742C66.2036 26.6053 66.1904 34.4922 66.1745 42.2914C66.1652 46.7234 66.3676 51.404 66.1692 55.8015L66.1705 55.8001Z" fill="#378aff"></path><path d="M58.9478 29.9313C58.7362 29.5817 57.1061 29.3025 56.6325 29.236C56.1098 29.1616 54.3912 29.1736 54.1041 28.909C53.9638 28.7788 53.1634 26.2477 52.994 25.7971C52.8485 25.4076 52.4092 24.6379 52.3563 24.2936C52.3192 24.049 52.9464 23.1304 53.129 22.8765C53.8408 21.8822 55.3266 20.7283 54.7775 19.3405C54.4666 18.5535 50.8546 15.0786 50.0184 14.4047C49.1624 13.7147 48.395 13.2415 47.277 13.7892L44.1532 16.4851C42.8976 15.7141 41.4502 15.4057 40.0795 14.9165C39.9591 14.7769 39.8294 12.5276 39.7553 12.085C39.5211 10.6878 39.4748 10.0086 37.8845 9.8836C36.1433 9.74668 33.1386 9.74668 31.3975 9.8836C30.7822 9.93146 30.3231 10.0405 29.9566 10.5735C29.2594 11.5878 29.6629 14.4339 29.176 14.9391C28.9789 15.1438 28.2049 15.2049 27.8926 15.3006C26.9506 15.5918 26.0205 15.9347 25.1049 16.3003C24.8059 16.3468 24.5757 16.0823 24.3441 15.9081C23.0965 14.9763 21.8581 12.8214 20.0322 13.8171C18.3586 15.4189 16.2668 16.9809 14.8167 18.7808C14.0943 19.6768 14.0453 20.1181 14.6037 21.1271C14.9384 21.7306 16.8383 23.8828 16.8383 24.3175L14.9953 29.018C13.6696 29.1762 12.107 29.1563 10.825 29.5405C10.5193 29.6322 10.1912 29.9605 10.0999 30.2689C9.68316 31.678 9.77842 36.1074 9.87897 37.7332C9.93454 38.6331 10.0073 39.658 11.038 39.8721C12.3888 40.1525 13.7291 40.1818 15.0853 40.324C15.5087 41.9338 16.4361 43.4333 16.7007 45.0604C15.8871 46.4084 13.4275 48.2974 14.5799 50.0149C15.3697 51.1913 18.4379 54.1664 19.6049 55.0717C20.326 55.6313 20.7626 55.7111 21.5869 55.3189C22.8544 54.7154 23.7369 53.7157 24.9223 53.0404C26.2758 53.7064 27.7206 54.1464 29.1615 54.5811C29.5266 54.8337 29.6312 57.8912 29.8587 58.5691C30.0479 59.1368 30.339 59.4252 30.945 59.5183C32.4493 59.7496 34.2407 59.5941 35.7517 59.5396C36.916 59.4983 39.3293 59.8971 39.6508 58.3073C39.8493 57.3222 39.6296 55.9464 39.9075 54.8736C40.0742 54.2315 40.6868 54.4003 41.2716 54.2036C41.8894 53.9962 43.7867 53.071 44.2577 53.1335C44.3729 53.1481 44.4443 53.2026 44.5409 53.2452C45.4445 53.6426 46.9343 55.291 47.6951 55.517C48.3632 55.7164 48.9097 55.5117 49.4323 55.1155C50.4405 54.3512 54.2774 50.7008 54.8026 49.7251C54.972 49.41 55.0673 49.208 55.0302 48.8358C54.923 47.7563 52.9874 45.8394 52.437 44.8198L54.1319 40.4011C54.2628 40.2443 55.6454 40.2509 55.9696 40.207C56.6007 40.1233 57.9979 39.9492 58.539 39.7763C59.0696 39.6062 59.227 38.77 59.2813 38.2862C59.4705 36.5952 59.4533 33.127 59.3117 31.4095C59.2839 31.0798 59.1093 30.1945 58.9518 29.9339L58.9478 29.9313ZM56.7793 37.4739C56.4433 37.5311 56.1112 37.6295 55.7725 37.6773C54.7947 37.8142 53.645 37.7318 52.6844 37.8794C52.5865 37.894 52.478 37.9206 52.396 37.9777C52.1975 38.116 51.7278 40.094 51.5691 40.5474C51.0147 42.1319 50.2936 43.5397 49.3463 44.9169L52.2121 48.9009C52.1195 49.0817 51.9885 49.2359 51.8588 49.3901C51.1483 50.2355 49.6532 51.7417 48.8065 52.4462C48.649 52.5778 48.3606 52.8503 48.1793 52.8012L44.6586 50.2076L44.091 50.1372C43.2932 50.5732 42.4861 51.0464 41.6288 51.3588C40.5187 51.763 39.2949 51.8759 38.2338 52.2229C38.1028 52.2654 37.9612 52.3346 37.8713 52.4409C37.391 53.0072 37.4545 56.9248 37.2415 57.1042C35.5149 57.188 33.7578 57.3222 32.0325 57.1109L31.5364 52.6057C31.3035 52.2349 28.9789 51.8613 28.3994 51.6765C27.1411 51.2751 25.9795 50.5586 24.7345 50.1199C24.4619 50.1345 23.586 50.8098 23.2936 51.0105C22.8901 51.2897 21.0272 52.8371 20.7586 52.8051C20.4146 52.7653 17.4536 49.414 17.0381 48.9049L19.7266 45.0884C19.8325 44.534 18.8521 43.3988 18.5676 42.7979C18.2368 42.0974 17.8743 41.0977 17.615 40.3533C17.4509 39.8827 17.1387 38.3154 16.8873 38.0708C16.7021 37.89 14.9741 37.7185 14.5693 37.68C13.8508 37.6109 13.1165 37.5723 12.3928 37.5829C12.4365 37.2666 12.3134 36.9714 12.2923 36.663C12.2168 35.5597 12.1864 33.5604 12.2976 32.4823C12.3161 32.3055 12.3703 31.8243 12.5516 31.7658C13.7238 31.5105 15.2784 31.7365 16.3978 31.452C16.6015 31.4002 16.7656 31.3563 16.886 31.1649C17.5594 28.703 18.4009 26.2982 19.7451 24.1194L17.0514 20.065L20.6581 16.4904C20.7401 16.4106 20.8327 16.3907 20.9438 16.3973C21.6054 16.4332 23.7541 19.1451 24.5532 19.492C25.0692 19.5997 25.5005 19.0946 25.9305 18.8752C26.4068 18.6333 26.8845 18.3847 27.3872 18.2012C28.0686 17.9527 31.0363 17.2681 31.3538 16.9384C31.9214 16.3482 31.5337 13.2003 32.1212 12.3641C32.3144 12.2485 36.1394 12.2698 36.6183 12.3189C36.8062 12.3389 37.2719 12.396 37.3328 12.5728C37.4227 13.7785 37.432 15.1531 37.6463 16.3388C37.686 16.5542 37.7072 16.8427 37.8845 16.9743C38.341 17.3119 40.5743 17.7679 41.3351 18.0736C42.0244 18.3515 43.8926 19.5146 44.4575 19.496C44.8518 19.4827 46.9277 17.2973 47.4543 16.8879C47.6673 16.7217 48.0417 16.3721 48.3011 16.4146C48.8673 16.5063 51.667 19.3352 52.13 19.9693L52.0956 20.1833C51.5386 20.9038 51.0941 21.708 50.5794 22.4564C50.1785 23.0387 49.3053 23.7153 49.4561 24.4903C49.5328 24.8851 50.3717 25.8383 50.6138 26.3421C50.9895 27.1211 52.0507 30.9642 52.3391 31.2168C52.8247 31.6408 56.6086 31.5212 56.8402 31.8442L56.7754 37.4766L56.7793 37.4739Z" fill="#378aff"></path><path d="M34.0423 22.5482C20.2545 23.5093 18.3017 42.8604 31.236 46.4935C38.4971 48.5327 46.1511 43.5264 46.634 35.8801C47.1024 28.4677 41.6553 22.0178 34.0423 22.5482ZM44.4139 35.5929C44.312 38.3513 42.1885 41.7411 39.8559 43.1595C32.698 47.5104 23.6985 41.765 24.9977 33.3809C25.6341 29.268 28.7725 25.4195 33.0738 24.9755C39.6574 24.2962 44.6586 28.9117 44.4139 35.5916V35.5929Z" fill="#378aff"></path><path d="M34.0383 31.678C30.7068 32.1672 30.679 37.3583 33.9589 37.9259C39.1123 38.8179 39.017 30.9482 34.0383 31.678Z" fill="#378aff"></path></svg>
