<svg xmlns="http://www.w3.org/2000/svg" viewBox="0 0 85 68" fill="none"><path d="M0.148152 0V58.4971C0.148152 58.5254 -0.0527268 58.6494 0.0133341 58.6979C0.843814 58.7127 1.67834 58.6844 2.51017 58.6925C20.3008 58.8664 38.2936 58.8906 56.1098 58.8327C56.637 58.8313 57.3313 58.5659 57.9285 58.6966L57.9353 0.463578L57.8031 0.0579473L0.148152 0ZM18.6007 56.1402H2.707C2.73801 50.7861 3.02517 45.3943 2.74205 40.0456L2.83508 39.9122L18.6007 39.8489V56.1402ZM18.6007 37.4272L2.70835 37.2911V21.2721H18.6007V37.4272ZM18.6007 18.8477L2.84182 18.7844L2.70835 2.69118H18.6007V18.8477ZM37.0519 56.1402H21.1596V39.8502L37.0519 39.985V56.1402ZM37.0519 37.2251L21.1596 37.2925V21.2721H36.851L37.0533 21.4742V37.2264L37.0519 37.2251ZM37.0519 18.5121L21.1596 18.7143V2.69253H36.7162C36.7634 2.69253 36.8659 2.454 37.0533 2.75991V18.5121H37.0519ZM55.3697 56.2749H39.6108V21.2721H55.3697V56.2763V56.2749ZM55.3697 18.7129H39.6108V2.69253L55.3697 2.82729V18.7143V18.7129Z" fill="#378aff"></path><path d="M85 33.7914L84.8719 31.8346C80.9204 31.4667 77.9193 28.7715 77.3396 24.823C76.4916 19.0552 78.4667 9.88877 75.4144 4.93765C73.0228 1.05922 68.5077 0.297822 64.2582 0.269522V2.82729C67.1865 2.83537 70.5798 3.26257 72.6048 5.59124C73.74 6.89573 74.3615 8.71905 74.4923 10.4359C74.8158 14.6701 74.3898 19.2601 74.623 23.4983C74.8374 27.4091 76.1815 30.6865 79.61 32.782C77.1441 34.1566 75.1259 36.6779 74.801 39.5511C74.2712 44.2367 74.948 50.0153 74.7687 54.8667C74.6473 58.1616 74.4869 61.1977 71.7298 63.4078C69.6119 65.1045 66.8589 65.3039 64.2582 65.5654V67.9884C71.3564 68.2242 76.6885 64.8821 77.1873 57.419C77.5378 52.1687 76.8327 46.5047 77.1832 41.2598C77.4879 36.6941 80.5753 34.17 85 33.7927V33.7914Z" fill="#378aff"></path><path d="M67.599 35.7171C71.6557 34.4382 70.3129 28.0654 65.9785 28.5748C60.8932 29.1731 62.4072 37.3531 67.599 35.7171Z" fill="#378aff"></path></svg>
