<svg xmlns="http://www.w3.org/2000/svg" viewBox="0 0 92 45" fill="none"><path d="M88.3067 10.9177C86.2916 7.66224 83.4875 4.98416 80.1977 3.17411C77.0187 1.42484 73.4334 0.5 69.8256 0.5C67.2827 0.5 64.7913 0.95053 62.4173 1.8397C59.943 2.76586 57.6601 4.14916 55.6305 5.94864L55.6253 5.9526L55.6213 5.95657L45.8668 15.4758C44.3584 14.0846 42.8858 12.6062 41.4606 11.1753C39.4191 9.12613 37.3091 7.00824 35.0592 5.10967L35.0526 5.10439L35.046 5.09911C31.0608 2.12508 26.5292 0.551527 21.9423 0.551527C18.4981 0.551527 15.0381 1.44202 11.9383 3.12787C8.90717 4.77673 6.26663 7.15225 4.30569 9.99945C2.36587 12.8149 1.11092 16.0757 0.678091 19.4302C0.205671 23.0899 0.674132 26.8131 2.0716 30.4953C3.69867 34.7839 6.5675 38.3696 10.3653 40.8654C13.985 43.2435 18.2078 44.5 22.577 44.5C25.1991 44.5 27.7617 44.0429 30.1938 43.1405C32.7419 42.1958 35.0763 40.7848 37.1349 38.9496C38.7066 37.5465 40.2162 35.9584 41.6757 34.4232C43.0309 32.9976 44.4297 31.5258 45.876 30.2046C46.0634 30.3684 46.2521 30.5336 46.4368 30.6948C47.024 31.2047 47.6298 31.7332 48.1787 32.2696C49.0985 33.1694 49.9734 34.0784 50.8206 34.957C54.625 38.9074 58.2196 42.6384 64.4323 43.916C66.0634 44.2516 67.7142 44.4221 69.336 44.4221C72.2576 44.4221 75.0776 43.8804 77.7168 42.8141C80.4088 41.7255 82.8422 40.1176 84.9509 38.034C92.1929 30.8771 93.6036 19.4738 88.3067 10.9177ZM69.8256 0.76424C69.877 0.76424 69.9272 0.766883 69.9786 0.766883C69.9074 0.766883 69.8374 0.765562 69.7662 0.765562C69.786 0.765562 69.8058 0.765562 69.8256 0.765562V0.76424ZM21.9423 0.815767C21.9739 0.815767 22.0069 0.815767 22.0386 0.815767C21.9818 0.815767 21.9251 0.815767 21.8684 0.815767C21.8934 0.815767 21.9172 0.815767 21.9423 0.815767ZM22.577 44.2344C22.5638 44.2344 22.5506 44.2344 22.5374 44.2344C22.7221 44.2344 22.9082 44.2331 23.093 44.2292C22.9214 44.2331 22.7485 44.2358 22.577 44.2358V44.2344ZM69.336 44.1578C69.1222 44.1578 68.9084 44.1538 68.6947 44.1486C68.9111 44.1538 69.1275 44.1578 69.3426 44.1578C69.3399 44.1578 69.3373 44.1578 69.336 44.1578ZM83.6999 36.0641C81.8446 38.0565 79.6197 39.6049 77.09 40.6646C74.6487 41.6872 72.0544 42.2064 69.3769 42.2064C64.5194 42.2064 59.881 40.4664 56.3181 37.3061L31.0805 12.0301L31.0766 12.0262L31.0726 12.0222C28.5786 9.7035 25.4894 8.47874 22.1389 8.47874C19.0444 8.47874 15.9684 9.55156 13.4783 11.4977C10.847 13.5548 9.09719 16.3637 8.41759 19.6204C7.96233 21.8057 7.99928 23.9778 8.53108 26.0758C9.03385 28.0642 9.95098 29.8862 11.2548 31.4928C13.9692 34.8354 17.9702 36.7538 22.2339 36.7538C23.5166 36.7538 24.8111 36.5781 26.0819 36.2306C30.2268 35.0983 33.2051 31.9446 36.0858 28.8953C36.9845 27.9427 37.9148 26.9584 38.8504 26.0732L39.1961 25.7469L38.7369 25.6266C38.6089 25.5923 38.4149 25.4839 38.2289 25.3782C37.895 25.1893 37.5163 24.9753 37.1653 24.9753C37.0518 24.9753 36.9475 24.9977 36.8525 25.04L36.8208 25.0545L36.7931 25.077C35.5844 26.0772 34.4706 27.2372 33.3925 28.3602C30.7902 31.07 28.3331 33.6305 24.5485 34.295C23.8095 34.4245 23.0626 34.4906 22.3289 34.4906C18.5218 34.4906 15.0367 32.7532 12.7657 29.7224C10.4999 26.6981 9.82298 22.823 10.909 19.0906C11.6269 16.6253 13.1194 14.5193 15.2255 13.0012C17.2273 11.5585 19.6659 10.7644 22.0914 10.7644C24.7306 10.7644 27.1877 11.6761 29.1988 13.3989L44.3571 28.454L35.1977 37.6311C31.5239 40.6527 27.1389 42.25 22.5163 42.25C17.8937 42.25 13.246 40.576 9.67386 37.5346C7.84752 35.9796 6.34449 34.1233 5.20831 32.0186C4.00878 29.795 3.24605 27.3415 2.94254 24.7242C2.60472 21.8176 2.88316 18.9612 3.76993 16.2342C4.61448 13.6394 5.96444 11.2863 7.78286 9.24108C11.4157 5.15592 16.5411 2.81343 21.8459 2.81343C24.1592 2.81343 26.4725 3.25074 28.7211 4.11349C32.5809 5.59456 35.3495 8.30038 38.2816 11.1661C38.5904 11.4686 38.9005 11.7712 39.2133 12.0737C42.994 15.7361 46.7509 19.5544 50.3838 23.2471C53.952 26.8752 57.6429 30.6247 61.355 34.2277L61.5384 34.406L61.7218 34.2277L72.5268 23.7016L76.1504 23.6554C76.6585 25.4205 77.9939 26.4669 79.7609 26.4669C81.2085 26.4669 82.6297 25.727 83.3806 24.5829C84.0668 23.5378 84.1394 22.2549 83.5851 20.9707C82.9623 19.5266 81.5833 18.6295 79.9839 18.6295C78.473 18.6295 76.772 19.4896 76.2824 21.4067C76.1175 21.4212 75.938 21.4278 75.7387 21.4278C75.3956 21.4278 75.0327 21.4067 74.6817 21.3869C74.3188 21.3657 73.9427 21.3446 73.5759 21.3446C72.8224 21.3446 71.8578 21.4252 71.0752 22.0554L71.0647 22.0633L71.0554 22.0726L61.673 31.3118L59.4759 29.1093L71.6413 16.5381C71.9765 16.624 72.3104 16.6662 72.639 16.6662C74.2225 16.6662 75.6213 15.6489 76.2019 14.0754C76.7825 12.5031 76.3576 10.8529 75.0934 9.76956C74.3492 9.13142 73.4954 8.79451 72.6258 8.79451C71.1241 8.79451 69.6725 9.80126 69.014 11.3008C68.4175 12.659 68.6181 14.1216 69.5445 15.2592L57.8435 27.4763L47.5743 17.1709L47.635 17.0666C49.0708 15.7559 50.4748 14.2947 51.8327 12.881C56.3999 8.12598 61.1227 3.20979 68.147 2.77907C68.6036 2.75133 69.0655 2.7368 69.5181 2.7368H69.5194C73.601 2.7368 77.4608 3.9021 80.6807 6.10586C83.6986 8.1709 86.0779 11.0696 87.5624 14.4889C89.0615 17.9399 89.5537 21.7027 88.9876 25.3703C88.3806 29.2982 86.5503 32.9963 83.6946 36.0615L83.6999 36.0641ZM22.2708 8.74562C22.1983 8.74562 22.1244 8.74562 22.0518 8.74562C22.0821 8.74562 22.1112 8.7443 22.1402 8.7443C22.1837 8.7443 22.2273 8.7443 22.2708 8.74562ZM21.8314 36.4843C21.9726 36.4882 22.1151 36.4896 22.259 36.4896C22.251 36.4896 22.2444 36.4896 22.2365 36.4896C22.1019 36.4896 21.966 36.4869 21.8314 36.4829V36.4843ZM37.16 25.2408C37.16 25.2408 37.1639 25.2408 37.1653 25.2408C37.1943 25.2408 37.2246 25.2435 37.2563 25.2474C37.2233 25.2435 37.1917 25.2422 37.16 25.2422V25.2408ZM73.2552 21.6155C73.3634 21.6115 73.4716 21.6089 73.5812 21.6089C73.5825 21.6089 73.5838 21.6089 73.5864 21.6089C73.4756 21.6089 73.3661 21.6102 73.2565 21.6155H73.2552ZM81.4685 22.1968C81.6163 22.7398 81.5107 23.477 80.7678 23.9157C80.4563 24.1006 80.1541 24.1944 79.8717 24.1944C79.043 24.1944 78.5297 23.3885 78.4677 22.6301C78.4123 21.9576 78.7013 21.1821 79.6791 21.0196C79.7741 21.0037 79.8691 20.9958 79.9615 20.9958C80.7757 20.9958 81.3048 21.5983 81.4671 22.1955L81.4685 22.1968ZM79.9668 18.8964C79.9734 18.8964 79.9813 18.8964 79.9879 18.8964C80.038 18.8964 80.0868 18.8991 80.137 18.9017C80.0802 18.8991 80.0235 18.8977 79.9668 18.8977V18.8964ZM79.8005 26.204C79.7886 26.204 79.7767 26.204 79.7648 26.204C79.7543 26.204 79.7451 26.204 79.7345 26.204C79.7569 26.204 79.778 26.204 79.8005 26.204ZM73.9058 12.0235C74.175 12.4965 74.1684 13.0409 73.886 13.5165C73.5864 14.0225 73.1259 14.3013 72.5888 14.3013C72.0517 14.3013 71.549 14.0291 71.2587 13.5892C70.967 13.1479 70.9393 12.593 71.1795 12.0262C71.2679 11.8174 71.9198 11.3101 72.1745 11.2519C72.2919 11.2255 72.4107 11.211 72.5281 11.211C73.0916 11.211 73.6181 11.5228 73.9045 12.0235H73.9058ZM72.6113 9.06271C72.6113 9.06271 72.6231 9.06271 72.6297 9.06271C72.6548 9.06271 72.6799 9.06271 72.7049 9.06403C72.6733 9.06403 72.6429 9.06403 72.6113 9.06403V9.06271ZM72.6667 16.4033C72.6588 16.4033 72.6508 16.4033 72.6429 16.4033C72.6363 16.4033 72.6297 16.4033 72.6231 16.4033C72.6376 16.4033 72.6522 16.4033 72.6667 16.4033Z" fill="#378aff" stroke="#378aff"></path></svg>
