<svg xmlns="http://www.w3.org/2000/svg" viewBox="0 0 80 81" fill="none"><path d="M80 47.6976L79.4186 46.7001L67.6076 53.5447V18.2933L52.3083 9.43823L50.0134 8.10307L36.0298 0H34.8824L3.30465 18.2933V40.6228L0.566074 39.0421L0 40.0396L3.30465 41.9579V55.5398L33.7349 73.1578L21.9239 80.0025L22.5053 81L45.7602 67.5256L44.6127 66.8657L36.0451 71.8227L5.59954 54.2046V43.2778L51.4362 69.8276L52.0023 68.83L47.3666 66.1444L80 47.6976ZM5.59954 19.6131L34.8824 2.65498H36.0298L65.3127 19.6131V54.8645L46.1121 65.4077L5.59954 41.9426V19.6131Z" fill="#d5dee6"></path><path d="M26.9608 29.758L38.0369 18.6818V55H37.454V20.1392L32.7903 24.8028V55H32.2074V25.3858L26.9608 30.6324V29.758ZM26.9608 23.2289V22.3544L38.0369 11.2783V12.1527L26.9608 23.2289Z" fill="#d5dee6"></path><path d="M26.9608 29.758L26.6072 29.4044L26.4608 29.5509V29.758H26.9608ZM38.0369 18.6818H38.5369V17.4747L37.6834 18.3282L38.0369 18.6818ZM38.0369 55V55.5H38.5369V55H38.0369ZM37.454 55H36.954V55.5H37.454V55ZM37.454 20.1392H37.954V18.9321L37.1004 19.7856L37.454 20.1392ZM32.7903 24.8028L32.4368 24.4493L32.2903 24.5957V24.8028H32.7903ZM32.7903 55V55.5H33.2903V55H32.7903ZM32.2074 55H31.7074V55.5H32.2074V55ZM32.2074 25.3858H32.7074V24.1787L31.8538 25.0323L32.2074 25.3858ZM26.9608 30.6324H26.4608V31.8395L27.3143 30.986L26.9608 30.6324ZM26.9608 23.2289H26.4608V24.436L27.3143 23.5824L26.9608 23.2289ZM26.9608 22.3544L26.6072 22.0009L26.4608 22.1473V22.3544H26.9608ZM38.0369 11.2783H38.5369V10.0711L37.6834 10.9247L38.0369 11.2783ZM38.0369 12.1527L38.3905 12.5062L38.5369 12.3598V12.1527H38.0369ZM26.9608 29.758L27.3143 30.1115L38.3905 19.0354L38.0369 18.6818L37.6834 18.3282L26.6072 29.4044L26.9608 29.758ZM38.0369 18.6818H37.5369V55H38.0369H38.5369V18.6818H38.0369ZM38.0369 55V54.5H37.454V55V55.5H38.0369V55ZM37.454 55H37.954V20.1392H37.454H36.954V55H37.454ZM37.454 20.1392L37.1004 19.7856L32.4368 24.4493L32.7903 24.8028L33.1439 25.1564L37.8075 20.4927L37.454 20.1392ZM32.7903 24.8028H32.2903V55H32.7903H33.2903V24.8028H32.7903ZM32.7903 55V54.5H32.2074V55V55.5H32.7903V55ZM32.2074 55H32.7074V25.3858H32.2074H31.7074V55H32.2074ZM32.2074 25.3858L31.8538 25.0323L26.6072 30.2789L26.9608 30.6324L27.3143 30.986L32.5609 25.7394L32.2074 25.3858ZM26.9608 30.6324H27.4608V29.758H26.9608H26.4608V30.6324H26.9608ZM26.9608 23.2289H27.4608V22.3544H26.9608H26.4608V23.2289H26.9608ZM26.9608 22.3544L27.3143 22.708L38.3905 11.6318L38.0369 11.2783L37.6834 10.9247L26.6072 22.0009L26.9608 22.3544ZM38.0369 11.2783H37.5369V12.1527H38.0369H38.5369V11.2783H38.0369ZM38.0369 12.1527L37.6834 11.7991L26.6072 22.8753L26.9608 23.2289L27.3143 23.5824L38.3905 12.5062L38.0369 12.1527Z" fill="#d5dee6"></path></svg>