<svg xmlns="http://www.w3.org/2000/svg" viewBox="0 0 56 77" fill="none"><path d="M55.9893 39.6554L55.9782 39.2556H52.9242L52.9422 39.6843C53.178 45.4326 50.9104 51.0723 46.5582 55.5621C44.3197 57.8716 41.5805 59.7826 38.6389 61.0864C35.6806 62.3971 32.6169 63.0854 29.5268 63.1335V0H26.617V0.410788L26.4783 76.5865V77H29.5268V66.1739C29.6627 66.1766 29.7986 66.1794 29.9345 66.1794C32.6682 66.1794 35.7541 65.4911 39.1035 64.1351C43.1172 62.5098 46.8397 59.8637 49.5886 56.6818C51.6607 54.283 53.2709 51.6205 54.3763 48.7669C55.5357 45.7719 56.0794 42.7068 55.9906 39.6554H55.9893ZM29.9318 65.7659C29.8888 65.7659 29.8458 65.7658 29.8014 65.7645C29.9276 65.7645 30.0552 65.7645 30.1828 65.7617C30.0996 65.7617 30.015 65.7659 29.9318 65.7659Z" fill="#378aff"></path><path d="M7.08917 25.3603C8.94071 22.4546 11.451 19.6944 14.7658 16.9179L14.8421 16.8547L14.8809 16.764C15.0959 16.2584 14.6507 15.7624 14.2193 15.2816C14.0418 15.0837 13.745 14.7526 13.7228 14.629L13.616 13.8761L13.0377 14.3762C8.09191 18.6531 4.85206 22.6057 2.84241 26.8138C-0.819063 34.4814 -0.945273 42.6354 2.47626 50.3964C3.46237 52.633 4.99353 54.8779 7.02675 57.0665C8.75763 58.9295 10.8089 60.7141 13.1237 62.3669L13.39 62.5565L13.6382 62.3449C13.8601 62.1567 14.2138 61.6731 14.4496 61.3035C14.9627 60.4984 14.9905 60.1742 14.8712 59.9379L14.8226 59.8403L14.7325 59.7799C10.63 57.0033 7.41232 53.4546 5.42902 49.5171C3.31397 45.3199 2.56919 40.76 3.21411 35.9652C3.7342 32.1046 5.00185 28.6356 7.08917 25.3589V25.3603ZM14.4718 60.3775C14.4454 60.4545 14.4066 60.541 14.358 60.6344C14.4052 60.541 14.444 60.4531 14.4718 60.3775Z" fill="#378aff"></path><path d="M40.6208 30.4711C40.6125 31.9205 40.0133 33.1996 38.797 34.3701C38.7623 34.4031 38.6694 34.4292 38.6236 34.4402C38.3005 34.5268 38.2519 34.7425 38.2519 34.862V37.5136L38.7096 37.4682C40.0161 37.3405 41.3961 36.5711 42.3128 35.4637C43.3905 34.1599 43.9328 32.5635 44.0701 30.2884C44.0936 29.9106 44.1089 28.4611 44.095 27.1587C44.0645 24.3986 43.9522 24.2859 43.8093 24.1417L43.6817 24.0139L43.5014 24.0194L38.1146 24.1678V30.4711H40.6208Z" fill="#378aff"></path><path d="M47.536 30.0589V30.4711H49.9978C49.8355 32.2173 49.3279 33.2862 48.1573 34.421C48.1337 34.4292 48.0907 34.4375 48.0686 34.4416C47.7024 34.5089 47.6747 34.7809 47.6747 34.862V37.5232L48.1407 37.4668C50.1905 37.2195 51.9103 35.8003 52.7397 33.6736C52.988 33.0389 53.3555 31.5578 53.3555 30.8132V24.5209L53.2945 24.4219C53.0781 24.0743 52.7591 24.0414 52.5691 24.0221C52.5497 24.0208 52.5303 24.018 52.5109 24.0153C52.2335 23.9823 51.9395 23.9672 51.6121 23.9672C51.0338 23.9672 50.4416 24.0166 49.8688 24.0661C49.296 24.1142 48.7537 24.1609 48.2253 24.1609C48.1379 24.1609 48.0519 24.1609 47.9659 24.1568L47.536 24.143V30.0603V30.0589ZM51.6121 24.3793C51.6121 24.3793 51.6177 24.3793 51.6205 24.3793C51.6066 24.3793 51.5913 24.3793 51.5775 24.3793C51.5886 24.3793 51.601 24.3793 51.6121 24.3793Z" fill="#378aff"></path></svg>
