<svg xmlns="http://www.w3.org/2000/svg" viewBox="0 0 57 69" fill="none"><path d="M56.8321 29.2309C56.7959 28.9786 56.7533 28.7288 56.7058 28.4864L56.7033 28.4802C56.6408 28.294 56.572 28.1192 56.4982 27.963C56.4469 27.8531 56.3919 27.7494 56.3356 27.6532C56.2481 27.5058 56.1518 27.3734 56.0517 27.2622C55.9129 27.1086 55.7615 26.9874 55.6002 26.9037C55.4313 26.815 55.245 26.7638 55.0474 26.7513C54.856 26.7463 54.6346 26.7426 54.3857 26.7388C54.2181 26.7363 54.038 26.7338 53.8467 26.7313C53.6553 26.7288 53.4527 26.7263 53.2413 26.7238C52.2595 26.7126 51.0113 26.7013 49.4267 26.6901C48.9964 26.6876 48.5537 26.6838 48.1059 26.6813L47.2004 26.6764L45.8196 26.6689L44.4313 26.6614L43.0993 26.6539L42.6078 26.6514L41.167 26.6439L40.6342 26.6414H40.4753L40.1376 26.6389C38.8844 26.6326 37.765 26.6251 36.8858 26.6189L36.6294 26.6164L36.1616 26.6126C35.9427 26.6101 35.7489 26.6089 35.5825 26.6064C35.545 26.6064 35.51 26.6051 35.4775 26.6039H35.4224C35.3749 26.6027 35.3311 26.6014 35.2898 26.6014C35.121 26.5977 34.7258 26.5864 34.7333 26.2454C34.7333 26.2067 34.742 26.1654 34.757 26.1255C34.7771 26.0717 34.8083 26.0168 34.8571 25.9543C34.9134 25.8819 34.9934 25.7957 35.1072 25.6857L36.3317 24.4441L37.341 23.421L38.8156 21.9257L39.5523 21.1787L39.7299 20.9988L40.0601 20.664L40.5766 20.1406L40.838 19.8745L41.0994 19.6097L41.9649 18.7328L42.1563 18.5392L43.2094 17.4711L43.7284 16.9452L44.1199 16.548L44.4914 16.172L44.9429 15.7148L45.1367 15.5174L48.261 12.3482L48.316 12.292L48.6049 11.9997C48.9076 11.6861 49.1352 11.4325 49.2941 11.0378C49.3204 10.9753 49.3429 10.9141 49.3629 10.8517C49.4204 10.6693 49.4529 10.4707 49.4604 10.2633C49.4667 10.0934 49.4554 9.91728 49.4292 9.7399C49.4154 9.65246 49.3979 9.56251 49.3766 9.47382C49.3554 9.38513 49.3291 9.29644 49.3003 9.20899C49.2766 9.13904 49.2516 9.06784 49.2228 8.99913C49.1603 8.84298 49.0852 8.68933 49.0002 8.54318C48.9714 8.49446 48.9426 8.44574 48.9114 8.39827C48.8188 8.25462 48.7175 8.11846 48.6074 7.99354C48.5699 7.95106 48.5324 7.90984 48.4949 7.86987L48.4911 7.86487L48.4874 7.85987C48.3836 7.7412 48.2698 7.62003 48.1509 7.50011C47.9821 7.33147 47.7957 7.15783 47.5956 6.98544C47.413 6.82805 47.2116 6.6644 46.9978 6.50076C46.7064 6.27716 46.3824 6.04356 46.006 5.78748C45.8646 5.69004 45.7145 5.58886 45.547 5.47643C45.5157 5.45519 45.4844 5.43521 45.4531 5.41397L45.4056 5.38274C45.2968 5.31154 45.188 5.24033 45.0792 5.16913C45.0254 5.13415 44.9716 5.10042 44.9178 5.06545C44.809 4.99674 44.7002 4.92804 44.5902 4.86058L44.5426 4.8306C44.5089 4.80936 44.4763 4.78938 44.4426 4.76939C44.2975 4.6807 44.1512 4.59201 44.0036 4.50581L43.9848 4.49457L43.9685 4.48458C43.8172 4.39588 43.6596 4.30469 43.487 4.20601C43.4595 4.18977 43.432 4.17478 43.4032 4.15979L43.3519 4.13106C43.2344 4.06485 43.1156 3.99989 42.998 3.93493C42.9442 3.9062 42.8904 3.87622 42.8367 3.84749C42.7216 3.78503 42.6065 3.72382 42.4902 3.66386L42.4414 3.63888C42.4077 3.62139 42.3726 3.60265 42.3389 3.58516C42.195 3.51021 42.05 3.43651 41.9049 3.36406L41.8749 3.34907L41.8448 3.33408C41.6847 3.25413 41.5147 3.17293 41.3408 3.08924L41.2695 3.05551L41.2207 3.03302C41.0932 2.97306 40.9643 2.9131 40.8355 2.85439C40.783 2.83065 40.7292 2.80692 40.6767 2.78318C40.5554 2.72822 40.434 2.67575 40.3127 2.62204L40.2702 2.6033C40.2339 2.58706 40.1977 2.57207 40.1614 2.55583C40.0163 2.49337 39.87 2.43216 39.7236 2.3722L39.6886 2.35721L39.6498 2.34097C39.481 2.27227 39.3046 2.20231 39.127 2.13236L39.0695 2.10987L39.0245 2.09239C38.8856 2.03867 38.7468 1.9862 38.6067 1.93499C38.5617 1.91875 38.5179 1.90251 38.4729 1.88627L38.4504 1.87877C38.3241 1.83255 38.1978 1.78758 38.0714 1.74386L38.0464 1.73512C38.0039 1.72013 37.9601 1.70514 37.9176 1.69015C37.7738 1.64018 37.6287 1.59146 37.4849 1.54399L37.4423 1.53025L37.3923 1.51401C37.2147 1.45655 37.0333 1.39909 36.8557 1.34537L36.8107 1.33163L36.7707 1.32039C36.6231 1.27542 36.4743 1.2317 36.3254 1.18922C36.2854 1.17798 36.2454 1.16674 36.2041 1.1555L36.1678 1.1455C36.039 1.10928 35.9115 1.0743 35.7826 1.03932L35.7589 1.03308C35.7126 1.02058 35.6663 1.00809 35.62 0.995601C35.48 0.959374 35.3386 0.923148 35.1973 0.888171L35.146 0.875679L35.0835 0.85944C34.8971 0.814469 34.7145 0.770747 34.5394 0.732023L34.5031 0.724528L34.4706 0.717032C34.3155 0.682055 34.1592 0.649576 34.0029 0.617098C33.9628 0.608353 33.9228 0.600858 33.8828 0.593363L33.8428 0.585868C33.7139 0.559635 33.5851 0.534651 33.4563 0.510917C33.3988 0.499674 33.3412 0.489681 33.285 0.479687C33.1499 0.454703 33.0136 0.430969 32.8785 0.408484L32.8234 0.39849C32.7959 0.393493 32.7684 0.389746 32.7421 0.384749C32.5495 0.353519 32.3707 0.326037 32.1956 0.301054L32.1718 0.297306L32.1468 0.293559C31.983 0.269824 31.8191 0.248588 31.6565 0.227352C31.6178 0.222355 31.579 0.217358 31.5402 0.213611L31.4902 0.207365C31.3626 0.192375 31.235 0.177384 31.1075 0.163643C31.0462 0.157397 30.9861 0.151151 30.9249 0.144905C30.7948 0.132414 30.6635 0.119922 30.5334 0.108679L30.4734 0.103682C30.4408 0.101184 30.4083 0.0974365 30.3758 0.0949381C30.1794 0.0786987 30.0006 0.0662068 29.8305 0.0549642H29.8217L29.8067 0.053715C29.6429 0.0437215 29.4728 0.0349772 29.2877 0.0262329C29.2502 0.0249837 29.2114 0.0237345 29.1739 0.0224853L29.1188 0.019987C28.9925 0.0149902 28.8649 0.0112427 28.7386 0.00749511C28.6761 0.00624593 28.6135 0.00499674 28.551 0.00374756C28.4247 0.00124919 28.2971 0 28.1708 0H28.1133H28.0207H28.0082C27.7981 0 27.5855 0.00249837 27.3753 0.0087443C27.3478 0.0087443 27.3191 0.00999348 27.2915 0.0112427H27.2428C27.0602 0.0174886 26.8751 0.0249837 26.6937 0.033728L26.6412 0.0362264L26.5686 0.0399739C26.3635 0.0512166 26.1521 0.0649576 25.9395 0.0811971C25.9082 0.0836954 25.8782 0.0861938 25.8482 0.0886922L25.7982 0.0924397C25.6156 0.10743 25.433 0.123669 25.2541 0.142407L25.2003 0.147404L25.1341 0.15365C24.9339 0.174886 24.7238 0.19987 24.51 0.228601C24.4762 0.233598 24.4424 0.237345 24.4086 0.242342L24.3599 0.248588C24.176 0.273572 23.9947 0.301054 23.8183 0.328536L23.7658 0.336031L23.7057 0.344775C23.5081 0.377254 23.3055 0.412231 23.0866 0.453454C23.0479 0.460949 23.0103 0.468445 22.9716 0.47594L22.9316 0.483435C22.7464 0.519661 22.5638 0.555888 22.3887 0.594612L22.34 0.604606L22.2874 0.615848C22.0936 0.658321 21.8922 0.70579 21.6733 0.759505C21.6333 0.769498 21.592 0.779492 21.552 0.789485L21.517 0.798229C21.3231 0.846948 21.143 0.894417 20.9667 0.943135L20.9267 0.954378L20.8829 0.96562C20.694 1.01809 20.4939 1.0768 20.2713 1.1455C20.2263 1.15924 20.1812 1.17299 20.1362 1.18673L20.1162 1.19297C19.9136 1.25668 19.7285 1.31664 19.5521 1.3766L19.5221 1.3866L19.4933 1.39659C19.307 1.4603 19.1081 1.5315 18.8855 1.61395C18.8355 1.63269 18.7854 1.65142 18.7354 1.67016C18.519 1.75261 18.3277 1.82631 18.1513 1.89876L18.1338 1.90626L18.1226 1.91125C17.9412 1.98496 17.7436 2.0699 17.5185 2.16859C17.4697 2.18982 17.4209 2.21231 17.3721 2.23354C17.1395 2.33723 16.9481 2.42592 16.7705 2.51086C16.4916 2.64702 16.2102 2.78818 15.9338 2.93184C14.5805 3.63638 13.2848 4.42836 12.0804 5.28655C10.6771 6.28715 9.36506 7.40142 8.18063 8.59814C7.41144 9.37514 6.68228 10.2021 6.01315 11.0565C5.89308 11.2102 5.77301 11.3663 5.65544 11.5225C5.42281 11.8323 5.19393 12.1508 4.9738 12.4694C4.86499 12.628 4.75618 12.7904 4.64987 12.9503C4.33469 13.43 4.02951 13.9247 3.7456 14.4218C3.55674 14.7504 3.37289 15.0877 3.19779 15.4249C3.02394 15.7597 2.85384 16.102 2.69375 16.4443C2.05964 17.7946 1.52809 19.2112 1.11535 20.6515C1.01279 21.0075 0.916488 21.3698 0.828938 21.7296C0.785163 21.9082 0.742639 22.0906 0.701365 22.2717C0.620069 22.6315 0.546277 22.9975 0.478738 23.361C0.41245 23.7233 0.351165 24.0918 0.298635 24.4553C0.27237 24.6377 0.247356 24.8226 0.224843 25.0049C0.202331 25.1873 0.181068 25.3722 0.161057 25.5546C0.142296 25.737 0.123536 25.9218 0.108527 26.1055C0.029732 27.0174 -0.00653866 27.9455 0.000965625 28.8624C0.00221634 29.0461 0.00596848 29.2309 0.0109713 29.4133C0.0259799 29.9617 0.0572477 30.5163 0.102273 31.0635C0.14855 31.6094 0.209835 32.1615 0.287379 32.7049C0.312393 32.8861 0.34116 33.0697 0.369926 33.2496C0.398693 33.4295 0.42996 33.6118 0.462479 33.7917C0.494997 33.9716 0.528767 34.1527 0.565037 34.3326C0.636328 34.6899 0.715123 35.0521 0.800172 35.4069C0.842696 35.5843 0.887722 35.7642 0.932747 35.9403C1.02405 36.2938 1.12411 36.6511 1.22917 36.9996C1.2817 37.1745 1.33673 37.3519 1.39176 37.5255C1.57186 38.0864 1.77573 38.6598 1.99836 39.2282C2.12218 39.5455 2.23974 39.8315 2.35606 40.1038C2.40859 40.2275 2.46362 40.3499 2.51865 40.4724C2.57368 40.5948 2.62997 40.7184 2.68625 40.8396C2.81882 41.1257 2.93889 41.3755 3.05271 41.6041C3.15276 41.804 3.26158 42.0139 3.39665 42.2662C3.58051 42.611 3.77437 42.957 3.97323 43.293C4.1721 43.6303 4.38096 43.9688 4.59359 44.2974C4.67363 44.421 4.75493 44.5435 4.83622 44.6659C5.16266 45.1518 5.50786 45.634 5.86431 46.0987C6.05067 46.341 6.20701 46.5409 6.35959 46.7283C7.43146 48.0449 8.63089 49.2654 9.92413 50.3584C12.0191 52.1273 14.3879 53.5838 16.9644 54.6868C19.6809 55.8498 22.6439 56.6281 25.7719 56.9966H25.7757H25.7794C25.8982 57.0141 26.0221 57.0291 26.1721 57.0441C26.271 57.054 26.3685 57.064 26.4623 57.0728L26.5511 57.0815C26.5924 57.0853 26.6337 57.089 26.6737 57.094C27.3403 57.1602 28.1708 57.2439 28.4459 58.1533C28.4585 58.1958 28.471 58.2408 28.481 58.2857C28.501 58.3757 28.5172 58.4744 28.5272 58.5768C28.5423 58.7292 28.546 58.8991 28.5397 59.0815C28.5423 59.6511 28.5423 60.3431 28.5423 61.0889V61.5948V62.8353V63.4299V63.9533V64.468V64.5529V64.7203V65.2724V65.7983C28.5423 66.1394 28.5435 66.4579 28.5448 66.7452C28.5448 66.7902 28.5448 66.8364 28.5473 66.8826C28.551 67.04 28.556 67.1662 28.566 67.2799C28.5823 67.4635 28.6085 67.6209 28.6486 67.7621C28.6611 67.8108 28.6773 67.857 28.6936 67.9007C28.7311 67.9994 28.7811 68.0931 28.8412 68.1818C28.8612 68.2105 28.8824 68.2392 28.9037 68.2667C28.9325 68.303 28.9637 68.3392 28.9975 68.3742C29.03 68.4079 29.0651 68.4416 29.1013 68.4741C29.1726 68.5378 29.2527 68.5965 29.3377 68.6502C29.6716 68.8601 30.0894 68.985 30.5171 69C31.4276 68.9925 32.6771 68.4578 34.2292 67.411C34.3118 67.3561 34.3943 67.2999 34.4756 67.2424C34.6232 67.14 34.7771 67.0313 34.9321 66.9176C35.2723 66.6703 35.63 66.3992 36.0278 66.0881C36.1678 65.9782 36.3054 65.8695 36.438 65.7634C36.6794 65.571 36.9083 65.3861 37.1234 65.2125C37.326 65.0488 37.5149 64.8964 37.6887 64.7578C37.9801 64.5042 38.2703 64.2481 38.553 63.997C39.456 63.1938 40.3377 62.3831 41.1707 61.5886C41.4046 61.365 41.6397 61.1401 41.8674 60.919C42.4577 60.3456 43.038 59.766 43.5933 59.1951C43.881 58.9003 44.1674 58.6018 44.4438 58.3082C45.6132 57.0703 46.7126 55.8261 47.7119 54.6069C47.9746 54.2871 48.2347 53.9636 48.4849 53.6463C48.5862 53.5176 48.6875 53.3877 48.7875 53.2578C52.2145 48.8319 54.5283 44.501 55.6665 40.3862C55.7403 40.0914 55.8116 39.7965 55.8791 39.5167C55.9516 39.2119 56.0217 38.9121 56.0855 38.6261L56.1155 38.4899C56.1605 38.285 56.2055 38.0802 56.2481 37.8741L56.2756 37.7441C56.3193 37.5318 56.3619 37.3207 56.4019 37.1158C56.4307 36.9696 56.4582 36.8222 56.4844 36.6748C56.532 36.4175 56.5757 36.1614 56.6158 35.9141C56.6395 35.7704 56.6608 35.628 56.6833 35.4844C56.7171 35.2583 56.7483 35.0334 56.7771 34.8148C56.8309 34.3976 56.8759 33.9866 56.9097 33.5918C57.0498 31.9717 57.0273 30.5438 56.8396 29.2272L56.8321 29.2309ZM30.666 25.6195C30.1732 26.0767 29.6641 26.5502 29.2502 27.0174L29.2201 27.0511C29.1751 27.1036 29.1338 27.151 29.0951 27.1985C29.0563 27.246 29.0175 27.2935 28.98 27.3409C28.9062 27.4359 28.8374 27.5283 28.7774 27.617C28.7561 27.6545 28.7374 27.6869 28.7224 27.7182C28.6936 27.7756 28.6723 27.8306 28.6573 27.8868C28.6423 27.9393 28.6323 27.9942 28.626 28.0604C28.6223 28.1017 28.6185 28.1479 28.6173 28.2041C28.616 28.2578 28.6148 28.314 28.6148 28.374V29.1422V29.6419V30.5188V31.8979V32.2765V33.0684V34.5537V35.232V36.6111V36.8472V37.0858V39.3868V44.411V44.8845V46.2711V46.7133V47.9999V48.8082V50.6157V51.2403V52.0548V52.5083V52.8843C28.6148 53.0329 28.6073 53.2028 28.546 53.359C28.5285 53.4027 28.5072 53.4451 28.4822 53.4826C28.4184 53.5788 28.3321 53.6538 28.2246 53.705C28.1895 53.7212 28.1508 53.7362 28.1108 53.7475C28.0532 53.7624 27.9982 53.7737 27.9307 53.7849C27.9169 53.7874 27.9031 53.7887 27.8894 53.7912H27.8769C27.8356 53.7987 27.7931 53.8024 27.7505 53.8062C27.7293 53.8074 27.7118 53.8087 27.693 53.8099C27.6467 53.8124 27.6005 53.8149 27.5542 53.8149H27.5442C27.5354 53.8149 27.5267 53.8149 27.5167 53.8149H27.5054C27.4479 53.8149 27.3916 53.8149 27.3353 53.8112C27.2303 53.8062 27.1139 53.7999 26.9901 53.7924C26.4273 53.7562 25.7144 53.6875 25.034 53.6025C24.635 53.5526 24.2711 53.5001 23.9509 53.4476C22.7439 53.259 21.5508 52.9842 20.4064 52.6332C19.6059 52.3871 18.8142 52.0985 18.05 51.775C17.7486 51.6476 17.4459 51.5114 17.1508 51.3715C14.5568 50.1436 12.2217 48.4696 10.2105 46.396C10.108 46.2911 10.0067 46.1849 9.90662 46.0775C9.60895 45.7589 9.31503 45.4279 9.03362 45.0918C8.75346 44.7583 8.47955 44.4135 8.21565 44.0638C8.1281 43.9476 8.0418 43.8302 7.9555 43.7127C7.53151 43.1281 7.12628 42.516 6.75107 41.8939C6.67602 41.769 6.60223 41.6441 6.52969 41.5192C6.24078 41.0195 5.96437 40.5036 5.70922 39.9827C5.45533 39.4655 5.21394 38.9309 4.99381 38.3962C4.55481 37.3282 4.1821 36.2189 3.88818 35.0984C3.81439 34.8185 3.74435 34.535 3.68056 34.2527C3.61678 33.9716 3.55549 33.6843 3.50171 33.4007C3.4742 33.2583 3.44793 33.1159 3.42292 32.9722C3.37289 32.6874 3.32661 32.3989 3.28659 32.1128C3.26658 31.9692 3.24657 31.8255 3.22906 31.6806C3.10274 30.6725 3.0352 29.6482 3.02769 28.6376C3.02519 28.3478 3.02769 28.053 3.03645 27.7644C3.0402 27.6182 3.0452 27.4733 3.05146 27.3272C3.14526 25.2048 3.50296 23.1149 4.11456 21.115C4.23838 20.709 4.37596 20.3018 4.52104 19.9033C5.34526 17.6447 6.49967 15.5261 7.953 13.6074C9.19621 11.9659 10.6671 10.4607 12.3255 9.13404C12.4881 8.99788 12.6644 8.85423 12.8796 8.68434C12.9296 8.64436 12.9809 8.60439 13.0309 8.56566C13.1997 8.43325 13.3673 8.30583 13.5287 8.18716L13.5637 8.16093C13.5787 8.14969 13.595 8.13719 13.61 8.12595C13.7876 7.99604 13.9752 7.86237 14.1853 7.71747C14.2241 7.68998 14.2641 7.66375 14.3029 7.63752L14.3391 7.61254C14.5005 7.50261 14.6631 7.39518 14.8232 7.29149L14.872 7.26027C14.897 7.24403 14.9232 7.22654 14.9482 7.2103C15.1396 7.08788 15.3385 6.96546 15.5411 6.84304C15.5724 6.8243 15.6024 6.80681 15.6336 6.78807L15.6862 6.75684C15.8488 6.66066 16.0139 6.56572 16.1777 6.47453L16.2277 6.4458C16.2627 6.42581 16.2978 6.40707 16.3328 6.38708C16.5404 6.27216 16.7468 6.16348 16.9431 6.0623C16.9681 6.0498 16.9932 6.03731 17.0182 6.02482L17.0695 5.99859C17.2383 5.91364 17.4109 5.82745 17.586 5.74375L17.6073 5.73376C17.6585 5.70878 17.7098 5.68504 17.7598 5.66131C17.99 5.55388 18.1951 5.46019 18.3877 5.37649C18.4027 5.37025 18.419 5.36275 18.434 5.35651L18.469 5.34152C18.6491 5.26407 18.8355 5.18662 19.0356 5.10542C19.0969 5.08044 19.1594 5.05545 19.2207 5.03172C19.4333 4.94802 19.6272 4.87432 19.8135 4.80687L19.8398 4.79687L19.8748 4.78438C20.0699 4.71443 20.2763 4.64322 20.5239 4.56078L20.5927 4.53829L20.6177 4.52955L20.654 4.5183L20.7115 4.49957C20.7728 4.47958 20.8341 4.46084 20.8954 4.4421L20.9854 4.41462L21.0717 4.38714C21.1343 4.36715 21.1956 4.34841 21.2581 4.32968L21.3094 4.31344C21.3356 4.30594 21.3607 4.2972 21.3869 4.2897C21.5945 4.22974 21.8097 4.17103 22.0423 4.10982C22.0848 4.09858 22.1273 4.08733 22.1699 4.07734L22.2236 4.0636C22.4012 4.01863 22.5814 3.97491 22.759 3.93493L22.8202 3.92119C22.854 3.9137 22.889 3.90495 22.9228 3.89746C23.1429 3.84874 23.3668 3.80127 23.5882 3.7588C23.6219 3.75255 23.6557 3.74631 23.6895 3.74006L23.7508 3.72882C23.9321 3.69509 24.116 3.66261 24.2973 3.63263L24.3511 3.62389C24.3936 3.61639 24.4374 3.61015 24.4799 3.60265C24.7201 3.56518 24.9414 3.5327 25.1566 3.50521C25.1803 3.50272 25.2041 3.49897 25.2279 3.49647L25.2804 3.49022C25.4692 3.46649 25.6631 3.44525 25.8595 3.42527H25.8695C25.9295 3.41777 25.9895 3.41277 26.0508 3.40653C26.3072 3.38279 26.5324 3.36531 26.74 3.35156H26.7675L26.7862 3.34907C26.9876 3.33657 27.2015 3.32658 27.4391 3.31784C27.5029 3.31534 27.5667 3.31409 27.6305 3.31159C27.8519 3.30534 28.0557 3.3016 28.2558 3.30035H28.2909H28.3346H28.3421H28.3571C28.5585 3.30035 28.7711 3.3041 29.0288 3.31034C29.0801 3.31159 29.1301 3.31284 29.1814 3.31534C29.429 3.32408 29.6554 3.33408 29.8718 3.34657L29.9205 3.35032L29.9606 3.35281C30.1682 3.36655 30.3846 3.38279 30.6034 3.40278L30.6497 3.40653C30.676 3.40903 30.701 3.41153 30.7272 3.41402C30.9511 3.43526 31.1825 3.46024 31.4151 3.48897C31.4502 3.49272 31.4839 3.49772 31.5189 3.50272L31.5552 3.50771C31.8066 3.54019 32.0305 3.57142 32.2394 3.6039H32.2506L32.2656 3.60765C32.4782 3.64138 32.7071 3.68135 32.9673 3.72882C33.0161 3.73756 33.0648 3.74756 33.1136 3.7563C33.3575 3.80252 33.5814 3.84874 33.8002 3.89746L33.859 3.9112L33.9028 3.92119C34.1104 3.96866 34.323 4.01863 34.5332 4.07234L34.5794 4.08359C34.602 4.08983 34.6257 4.09483 34.6482 4.10108C34.8646 4.15729 35.0935 4.21975 35.3261 4.28596C35.3649 4.2972 35.4024 4.30844 35.4412 4.31968L35.4725 4.32843C35.7364 4.40588 35.954 4.47333 36.1603 4.53954H36.1641C36.6006 4.6807 37.0609 4.84059 37.5686 5.03047C37.785 5.11167 38.0077 5.19786 38.229 5.28655C39.0257 5.60634 39.8112 5.96236 40.5629 6.34211C41.3333 6.73186 42.0887 7.15908 42.8104 7.61129L42.8166 7.61503L42.8216 7.61878C42.8929 7.66875 42.9692 7.72121 43.0493 7.77368C43.1243 7.82365 43.2031 7.87486 43.2832 7.92733L43.3057 7.94232C43.5033 8.07099 43.6809 8.18841 43.8622 8.31583C43.8973 8.33956 43.931 8.36455 43.9648 8.38953C44.0386 8.442 44.1049 8.49196 44.1699 8.54193C44.2037 8.56816 44.2375 8.5944 44.27 8.62063C44.4651 8.77803 44.6277 8.92793 44.7665 9.08033C44.829 9.14778 44.8853 9.21649 44.9366 9.28519C44.9916 9.35765 45.0404 9.43135 45.0842 9.5038C45.1305 9.58125 45.1705 9.65995 45.203 9.7374C45.2205 9.77737 45.2355 9.8186 45.2505 9.85982C45.2793 9.94476 45.3006 10.031 45.3156 10.1172C45.3306 10.2071 45.3368 10.2983 45.3343 10.3882V10.3982V10.4082C45.2493 11.2776 44.5676 12.0009 43.966 12.6393C43.9098 12.698 43.8547 12.7579 43.801 12.8154C43.6996 12.9241 43.6209 13.0103 43.5533 13.089L43.5496 13.094L43.5458 13.0977C43.0605 13.6049 42.5565 14.1245 42.0487 14.643C41.7085 14.9915 41.3446 15.36 40.9043 15.8034C40.6492 16.0608 40.394 16.3169 40.1364 16.5729C39.88 16.829 39.6223 17.0851 39.3634 17.3412C39.1033 17.5998 38.8406 17.8571 38.5792 18.1144C38.1477 18.5392 37.7638 18.9127 37.4061 19.2599C36.8908 19.7596 36.3592 20.2718 35.8264 20.7814C35.056 21.5172 34.2555 22.2767 33.445 23.0362C32.6784 23.7558 31.8767 24.5003 31.0649 25.2498C30.9349 25.3722 30.7998 25.4971 30.6647 25.6233L30.666 25.6195ZM53.6878 33.2083C53.6816 33.3458 53.6753 33.4819 53.6666 33.6193C53.6103 34.555 53.4952 35.5106 53.3214 36.46C53.2438 36.8822 53.1538 37.3119 53.0537 37.7366C52.9062 38.36 52.7323 38.9958 52.5347 39.6242C52.4384 39.9327 52.3333 40.245 52.2258 40.5548C52.172 40.7085 52.1157 40.8634 52.0594 41.0158C52.0031 41.1682 51.9444 41.3218 51.8856 41.4742C51.8068 41.6753 51.7255 41.8802 51.6417 42.0826C51.5591 42.2837 51.4728 42.486 51.3853 42.6859C51.2127 43.0807 51.0288 43.4816 50.8375 43.8789C50.7437 44.0738 50.6449 44.2724 50.5461 44.4673C50.4485 44.6609 50.3459 44.857 50.2446 45.0506C50.1433 45.2417 50.0383 45.4366 49.932 45.629C49.8269 45.8189 49.7193 46.0112 49.6093 46.2024C49.5017 46.391 49.3904 46.5821 49.2778 46.7695C48.63 47.8588 47.902 48.9643 47.1166 50.0549L47.1016 50.0748C43.1218 55.555 38.0227 60.6355 32.7446 64.3818C32.7034 64.4092 32.6646 64.433 32.6183 64.4605C32.557 64.4954 32.4908 64.5279 32.4182 64.5591L32.4095 64.5629L32.3932 64.5704L32.3882 64.5729L32.3832 64.5754C32.3519 64.5866 32.3219 64.5954 32.2919 64.6029C32.2806 64.6054 32.2706 64.6066 32.2606 64.6091C32.2481 64.6116 32.2281 64.6141 32.2068 64.6154C32.1968 64.6154 32.1868 64.6166 32.1781 64.6166H32.1443L32.1293 64.6129C32.1055 64.6104 32.0818 64.6041 32.058 64.5966C32.0442 64.5929 32.0317 64.5879 32.0205 64.5829C31.9767 64.5629 31.9379 64.5354 31.9054 64.4992L31.8929 64.4854L31.8829 64.4705C31.8641 64.4455 31.8491 64.418 31.8366 64.3893C31.8316 64.3793 31.8279 64.3693 31.8254 64.3605C31.8141 64.3268 31.8054 64.2943 31.7991 64.2593L31.7966 64.2406V64.2219C31.7916 63.7184 31.7879 62.8228 31.7854 61.5611V60.8378C31.7828 60.3357 31.7829 59.7948 31.7816 59.2201V58.3345V57.7673C31.7816 56.808 31.7816 55.7811 31.7816 54.7081V54.2734V54.0585V53.4002V53.0679V52.3958V51.3752V50.6994V50.6882V50.3422V49.9924V49.6476V49.6077V48.5983V47.8988V47.3229V47.1955V45.7926V45.4604V44.7471V44.055V43.2518V43.0257V42.4636V41.6766V41.5129V41.3443V41.2943V40.6872V40.2138V40.0401V39.6979V39.2469V38.9159V38.4737V37.2807V37.2245V36.7073V36.5074V36.2876V36.0702V35.8779V35.1271V34.8498V34.5899V34.1215V34.1103C31.7816 32.2427 31.7816 31.0622 31.7791 30.5026V30.4676C31.7791 30.3927 31.7803 30.3277 31.7841 30.2703C31.7854 30.2453 31.7879 30.2215 31.7904 30.2003C31.7979 30.1428 31.8104 30.0941 31.8291 30.0504C31.8416 30.0217 31.8554 29.9954 31.8729 29.9705C31.9092 29.9192 31.9567 29.878 32.0142 29.8468C32.0768 29.8131 32.1518 29.7931 32.2494 29.7818C32.2744 29.7793 32.3019 29.7768 32.3307 29.7743C32.3582 29.7731 32.3869 29.7718 32.4195 29.7706C32.4795 29.7693 32.547 29.7681 32.6258 29.7681H32.6383C32.6946 29.7681 32.7509 29.7681 32.8072 29.7681H32.851C32.9373 29.7681 33.0236 29.7681 33.1111 29.7681C33.2062 29.7681 33.3025 29.7681 33.4013 29.7681H33.4088H33.4338C33.4938 29.7681 33.5539 29.7681 33.6151 29.7681H33.6214H33.6352C34.1079 29.7681 34.6357 29.7681 35.2073 29.7693H35.5675H35.58H35.9127H36.0065H36.6044H36.6844H36.912H37.0071H37.1021H37.341H37.5699H37.6537H37.7375H39.4897H39.6436H39.7999H40.4778H40.4966H40.7029H40.9118H41.3508H41.8086H43.7322H43.7822H43.8973C44.829 29.7693 45.7471 29.7693 46.6251 29.7693H47.3292H47.3805H47.5481H48.0521H48.0884H48.1247H48.5362H48.9376H49.0389H49.2628H49.4092H49.4892H49.8019H49.8782H49.927H50.1871H50.2659H50.3334H50.5848H50.6248H50.6824H50.7237H50.9413H50.9663H51.0789H51.3052H51.3465H51.3928H51.6254H51.6817H51.7492H51.9431H52.0419L52.2145 29.7706H52.2908H52.3483H52.4972L52.5935 29.7718H52.7248H52.7523H52.7698H52.7886H52.7986H52.8086C53.2138 29.8068 53.4615 29.9942 53.5878 30.3627C53.604 30.4102 53.6191 30.4614 53.6316 30.5163L53.6366 30.5351V30.5538C53.6553 30.7749 53.6703 30.9985 53.6803 31.2209C53.6878 31.3858 53.6941 31.5532 53.6991 31.7193C53.7116 32.2102 53.7079 32.7112 53.6878 33.2058V33.2083Z" fill="#378aff"></path></svg>
