<svg xmlns="http://www.w3.org/2000/svg" viewBox="0 0 60 71" fill="none"><path d="M18.2902 13.8984C17.538 13.7339 17.0522 12.3764 17.6954 11.7729L29.5585 0H30.4335L42.1876 11.7743C42.632 12.2663 42.6016 13.0594 42.1517 13.5346C42.102 13.5876 41.6273 13.8984 41.5942 13.8984H34.0962V19.019C39.7946 20.3054 44.7601 24.8894 46.6218 30.4491L58.6423 30.4602C59.393 30.5216 59.9658 31.0414 59.9961 31.8177V69.5282C60.0527 70.2488 59.48 70.9847 58.7554 71L0.862549 70.9429C0.367101 70.7714 0.0634836 70.3881 0 69.8529L0.0855648 31.3606C0.310518 30.7905 0.761803 30.5257 1.3511 30.4588L13.3661 30.4449C15.3409 24.8727 20.1271 20.3194 25.8958 19.019V13.8984H18.2888H18.2902ZM38.736 11.6099L30.036 2.79166L21.2573 11.6099H27.4608C27.6609 11.6099 28.2405 12.2454 28.1646 12.5339L28.1481 26.6874C28.0929 26.849 26.8756 27.1529 26.5775 27.2811C20.2402 30.0087 18.7704 38.6025 24.0051 43.2116C24.4853 43.6339 26.2656 44.6415 26.4423 44.8896C26.8232 45.4234 26.4382 46.6681 25.7053 46.7823C24.9725 46.8966 23.2488 45.6255 22.6567 45.1154C15.8571 39.2603 17.7312 28.2205 26.0021 24.9563V21.4148C15.9454 24.1466 11.3553 36.1119 17.498 44.8757C24.3363 54.6319 39.197 53.2368 44.0038 42.2652C47.6141 34.024 43.2516 24.2762 34.7407 21.688C33.8795 21.426 33.0294 21.3814 32.2303 21.1723C32.0979 21.1375 31.9709 21.0915 31.8798 20.9814L31.8274 12.6454C31.739 12.3932 32.2717 11.6099 32.4208 11.6099H38.736ZM12.734 32.8575H4.1568L13.7042 42.6638C12.4552 39.5753 12.2289 36.1369 12.734 32.8575ZM55.9442 32.8575H47.2594C47.9315 36.1495 47.5271 39.6673 46.2892 42.7725L55.9442 32.8575ZM2.37649 34.7641V67.2341L18.6669 50.9984L2.37649 34.7641ZM57.6169 67.2341V34.7641L41.3264 50.9998L57.5106 67.5059L57.7273 67.4501C57.7163 67.3498 57.6183 67.2676 57.6169 67.2341ZM4.58738 68.7045H55.4046L38.4835 51.5043C33.2985 54.5343 26.601 54.342 21.3622 51.5406L4.58738 68.7059V68.7045Z" fill="#378aff"></path><path d="M29.3267 29.7299C33.54 29.27 36.7253 33.1697 35.5039 37.277C35.0581 38.7739 31.9723 44.0715 30.969 45.4457C30.4404 46.1705 29.8345 46.3503 29.1956 45.5977C28.4683 44.7433 27.2483 42.3182 26.6327 41.2129C25.5784 39.3189 24.1238 37.2547 24.2797 34.9843C24.4619 32.3251 26.7169 30.0156 29.3267 29.7299ZM30.1036 42.3363C31.1208 39.5628 35.3535 35.8484 32.4291 32.962C29.938 30.5034 25.7702 33.0122 26.7252 36.4338C26.9998 37.4164 29.2383 41.1976 29.9063 42.1565C29.9436 42.2095 30.0415 42.3851 30.1036 42.3377V42.3363Z" fill="#378aff"></path><path d="M31.8301 24.6302C31.9212 24.3194 32.8583 24.665 33.1246 24.7389C41.7957 27.1626 44.3502 38.5579 37.821 44.7363C37.2607 45.2659 35.4666 46.6416 34.7711 46.7809C33.794 46.9775 33.0543 45.7384 33.5676 44.9091C33.7194 44.6639 34.9132 44.0659 35.2734 43.7983C40.497 39.9237 40.5108 31.8707 35.1009 28.1926C34.0562 27.4818 32.9908 27.1487 31.8301 26.7013V24.6302Z" fill="#378aff"></path></svg>
