<svg xmlns="http://www.w3.org/2000/svg" viewBox="0 0 80 81" fill="none"><path d="M80 47.6976L79.4186 46.7001L67.6076 53.5447V18.2933L52.3083 9.43823L50.0134 8.10307L36.0298 0H34.8824L3.30465 18.2933V40.6228L0.566074 39.0421L0 40.0396L3.30465 41.9579V55.5398L33.7349 73.1578L21.9239 80.0025L22.5053 81L45.7602 67.5256L44.6127 66.8657L36.0451 71.8227L5.59954 54.2046V43.2778L51.4362 69.8276L52.0023 68.83L47.3666 66.1444L80 47.6976ZM5.59954 19.6131L34.8824 2.65498H36.0298L65.3127 19.6131V54.8645L46.1121 65.4077L5.59954 41.9426V19.6131Z" fill="#4a3aff"></path><path d="M20.3859 37.0136L30.9957 14.2783H31.6952L21.3186 36.4306H26.4486L36.8253 14.2783H37.4665L27.1482 36.4306H41.2557V14.2783H41.8387V58H41.2557V42.2602H17.9375L18.2289 41.6772H41.2557V37.0136H20.3859ZM46.5023 58V14.2783H47.0853V58H46.5023Z" fill="#4a3aff"></path><path d="M20.3859 37.0136L19.9328 36.8021L19.6008 37.5136H20.3859V37.0136ZM30.9957 14.2783V13.7783H30.6773L30.5426 14.0668L30.9957 14.2783ZM31.6952 14.2783L32.148 14.4903L32.4816 13.7783H31.6952V14.2783ZM21.3186 36.4306L20.8658 36.2185L20.5323 36.9306H21.3186V36.4306ZM26.4486 36.4306V36.9306H26.7666L26.9014 36.6427L26.4486 36.4306ZM36.8253 14.2783V13.7783H36.5073L36.3725 14.0662L36.8253 14.2783ZM37.4665 14.2783L37.9198 14.4894L38.251 13.7783H37.4665V14.2783ZM27.1482 36.4306L26.6949 36.2195L26.3637 36.9306H27.1482V36.4306ZM41.2557 36.4306V36.9306H41.7557V36.4306H41.2557ZM41.2557 14.2783V13.7783H40.7557V14.2783H41.2557ZM41.8387 14.2783H42.3387V13.7783H41.8387V14.2783ZM41.8387 58V58.5H42.3387V58H41.8387ZM41.2557 58H40.7557V58.5H41.2557V58ZM41.2557 42.2602H41.7557V41.7602H41.2557V42.2602ZM17.9375 42.2602L17.4903 42.0366L17.1285 42.7602H17.9375V42.2602ZM18.2289 41.6772V41.1772H17.9199L17.7817 41.4536L18.2289 41.6772ZM41.2557 41.6772V42.1772H41.7557V41.6772H41.2557ZM41.2557 37.0136H41.7557V36.5136H41.2557V37.0136ZM46.5023 58H46.0023V58.5H46.5023V58ZM46.5023 14.2783V13.7783H46.0023V14.2783H46.5023ZM47.0853 14.2783H47.5853V13.7783H47.0853V14.2783ZM47.0853 58V58.5H47.5853V58H47.0853ZM20.3859 37.0136L20.839 37.225L31.4488 14.4897L30.9957 14.2783L30.5426 14.0668L19.9328 36.8021L20.3859 37.0136ZM30.9957 14.2783V14.7783H31.6952V14.2783V13.7783H30.9957V14.2783ZM31.6952 14.2783L31.2425 14.0662L20.8658 36.2185L21.3186 36.4306L21.7714 36.6427L32.148 14.4903L31.6952 14.2783ZM21.3186 36.4306V36.9306H26.4486V36.4306V35.9306H21.3186V36.4306ZM26.4486 36.4306L26.9014 36.6427L37.2781 14.4903L36.8253 14.2783L36.3725 14.0662L25.9959 36.2185L26.4486 36.4306ZM36.8253 14.2783V14.7783H37.4665V14.2783V13.7783H36.8253V14.2783ZM37.4665 14.2783L37.0133 14.0671L26.6949 36.2195L27.1482 36.4306L27.6014 36.6417L37.9198 14.4894L37.4665 14.2783ZM27.1482 36.4306V36.9306H41.2557V36.4306V35.9306H27.1482V36.4306ZM41.2557 36.4306H41.7557V14.2783H41.2557H40.7557V36.4306H41.2557ZM41.2557 14.2783V14.7783H41.8387V14.2783V13.7783H41.2557V14.2783ZM41.8387 14.2783H41.3387V58H41.8387H42.3387V14.2783H41.8387ZM41.8387 58V57.5H41.2557V58V58.5H41.8387V58ZM41.2557 58H41.7557V42.2602H41.2557H40.7557V58H41.2557ZM41.2557 42.2602V41.7602H17.9375V42.2602V42.7602H41.2557V42.2602ZM17.9375 42.2602L18.3847 42.4838L18.6762 41.9008L18.2289 41.6772L17.7817 41.4536L17.4903 42.0366L17.9375 42.2602ZM18.2289 41.6772V42.1772H41.2557V41.6772V41.1772H18.2289V41.6772ZM41.2557 41.6772H41.7557V37.0136H41.2557H40.7557V41.6772H41.2557ZM41.2557 37.0136V36.5136H20.3859V37.0136V37.5136H41.2557V37.0136ZM46.5023 58H47.0023V14.2783H46.5023H46.0023V58H46.5023ZM46.5023 14.2783V14.7783H47.0853V14.2783V13.7783H46.5023V14.2783ZM47.0853 14.2783H46.5853V58H47.0853H47.5853V14.2783H47.0853ZM47.0853 58V57.5H46.5023V58V58.5H47.0853V58Z" fill="#4a3aff"></path></svg>
