<svg xmlns="http://www.w3.org/2000/svg" viewBox="0 0 80 81" fill="none"><path d="M80 47.6976L79.4186 46.7001L67.6076 53.5447V18.2933L52.3083 9.43823L50.0134 8.10307L36.0298 0H34.8824L3.30465 18.2933V40.6228L0.566074 39.0421L0 40.0396L3.30465 41.9579V55.5398L33.7349 73.1578L21.9239 80.0025L22.5053 81L45.7602 67.5256L44.6127 66.8657L36.0451 71.8227L5.59954 54.2046V43.2778L51.4362 69.8276L52.0023 68.83L47.3666 66.1444L80 47.6976ZM5.59954 19.6131L34.8824 2.65498H36.0298L65.3127 19.6131V54.8645L46.1121 65.4077L5.59954 41.9426V19.6131Z" fill="#4a3aff"></path><path d="M48.99 51.7534H25.7301L41.3533 32.3409C44.1515 28.9015 43.6268 23.7715 40.1291 20.915C36.5731 18.0585 31.4431 18.6415 28.6449 22.1392C27.3041 23.8298 26.6628 25.8701 26.8377 27.8522H26.2547C26.1382 25.7535 26.7794 23.5966 28.1785 21.7894C31.1516 18.0002 36.6897 17.359 40.4789 20.4486C44.2681 23.48 44.8511 28.9598 41.8197 32.6907L27.0126 51.1704H32.9004L45.3757 35.6638C50.0394 29.8342 49.1649 21.4396 43.3937 16.8343C37.6224 12.1706 29.1695 13.1034 24.5059 18.8746C22.4072 21.5562 21.4162 24.7042 21.5328 27.8522H21.0081C20.8915 24.5876 21.8826 21.2648 24.0395 18.4666C28.878 12.4621 37.739 11.5294 43.8017 16.3679C49.8062 21.1482 50.7389 30.0091 45.9004 36.0136L33.7166 51.1704H48.99V51.7534ZM48.99 57H21.5328L21.9992 56.417H48.99V57Z" fill="#4a3aff"></path><path d="M48.99 51.7534V52.2534H49.49V51.7534H48.99ZM25.7301 51.7534L25.3406 51.4399L24.6859 52.2534H25.7301V51.7534ZM41.3533 32.3409L40.9655 32.0254L40.9638 32.0274L41.3533 32.3409ZM40.1291 20.915L40.4454 20.5277L40.4422 20.5252L40.1291 20.915ZM28.6449 22.1392L28.2544 21.8268L28.2531 21.8285L28.6449 22.1392ZM26.8377 27.8522V28.3522H27.3838L27.3358 27.8082L26.8377 27.8522ZM26.2547 27.8522L25.7555 27.8799L25.7817 28.3522H26.2547V27.8522ZM28.1785 21.7894L27.7851 21.4808L27.7831 21.4833L28.1785 21.7894ZM40.4789 20.4486L40.1629 20.8361L40.1665 20.8391L40.4789 20.4486ZM41.8197 32.6907L41.4316 32.3754L41.4295 32.3781L41.8197 32.6907ZM27.0126 51.1704L26.6224 50.8578L25.9712 51.6704H27.0126V51.1704ZM32.9004 51.1704V51.6704H33.1399L33.29 51.4839L32.9004 51.1704ZM45.3757 35.6638L45.7653 35.9772L45.7662 35.9761L45.3757 35.6638ZM43.3937 16.8343L43.0794 17.2232L43.0818 17.2251L43.3937 16.8343ZM24.5059 18.8746L24.1169 18.5603L24.1121 18.5665L24.5059 18.8746ZM21.5328 27.8522V28.3522H22.0517L22.0325 27.8337L21.5328 27.8522ZM21.0081 27.8522L20.5085 27.87L20.5257 28.3522H21.0081V27.8522ZM24.0395 18.4666L23.6501 18.1528L23.6435 18.1613L24.0395 18.4666ZM43.8017 16.3679L43.4898 16.7587L43.4903 16.7591L43.8017 16.3679ZM45.9004 36.0136L45.5111 35.6998L45.5107 35.7003L45.9004 36.0136ZM33.7166 51.1704L33.3269 50.8572L32.6731 51.6704H33.7166V51.1704ZM48.99 51.1704H49.49V50.6704H48.99V51.1704ZM48.99 57V57.5H49.49V57H48.99ZM21.5328 57L21.1424 56.6877L20.4925 57.5H21.5328V57ZM21.9992 56.417V55.917H21.7588L21.6087 56.1047L21.9992 56.417ZM48.99 56.417H49.49V55.917H48.99V56.417ZM48.99 51.7534V51.2534H25.7301V51.7534V52.2534H48.99V51.7534ZM25.7301 51.7534L26.1196 52.0669L41.7428 32.6544L41.3533 32.3409L40.9638 32.0274L25.3406 51.4399L25.7301 51.7534ZM41.3533 32.3409L41.7412 32.6565C44.7156 29.0004 44.154 23.5564 40.4454 20.5277L40.1291 20.915L39.8128 21.3023C43.0997 23.9865 43.5874 28.8026 40.9655 32.0254L41.3533 32.3409ZM40.1291 20.915L40.4422 20.5252C36.6716 17.4963 31.2261 18.1122 28.2544 21.8268L28.6449 22.1392L29.0353 22.4515C31.66 19.1707 36.4746 18.6207 39.816 21.3048L40.1291 20.915ZM28.6449 22.1392L28.2531 21.8285C26.8394 23.611 26.1526 25.7763 26.3396 27.8961L26.8377 27.8522L27.3358 27.8082C27.173 25.9639 27.7687 24.0486 29.0366 22.4499L28.6449 22.1392ZM26.8377 27.8522V27.3522H26.2547V27.8522V28.3522H26.8377V27.8522ZM26.2547 27.8522L26.754 27.8244C26.6441 25.8465 27.2481 23.808 28.5739 22.0955L28.1785 21.7894L27.7831 21.4833C26.3107 23.3852 25.6322 25.6605 25.7555 27.8799L26.2547 27.8522ZM28.1785 21.7894L28.5719 22.0981C31.3722 18.529 36.5905 17.9232 40.1629 20.8361L40.4789 20.4486L40.7949 20.0611C36.7888 16.7947 30.931 17.4714 27.7851 21.4808L28.1785 21.7894ZM40.4789 20.4486L40.1665 20.8391C43.7399 23.6977 44.2872 28.8609 41.4316 32.3754L41.8197 32.6907L42.2077 33.006C45.4149 29.0587 44.7963 23.2622 40.7912 20.0582L40.4789 20.4486ZM41.8197 32.6907L41.4295 32.3781L26.6224 50.8578L27.0126 51.1704L27.4028 51.4831L42.2099 33.0034L41.8197 32.6907ZM27.0126 51.1704V51.6704H32.9004V51.1704V50.6704H27.0126V51.1704ZM32.9004 51.1704L33.29 51.4839L45.7653 35.9772L45.3757 35.6638L44.9861 35.3504L32.5109 50.857L32.9004 51.1704ZM45.3757 35.6638L45.7662 35.9761C50.5985 29.9357 49.6978 21.2252 43.7055 16.4435L43.3937 16.8343L43.0818 17.2251C48.6321 21.6541 49.4803 29.7327 44.9853 35.3514L45.3757 35.6638ZM43.3937 16.8343L43.7079 16.4454C37.72 11.6067 28.9527 12.5762 24.117 18.5604L24.5059 18.8746L24.8948 19.1889C29.3864 13.6305 37.5248 12.7346 43.0794 17.2232L43.3937 16.8343ZM24.5059 18.8746L24.1121 18.5665C21.9418 21.3397 20.9121 24.603 21.0331 27.8707L21.5328 27.8522L22.0325 27.8337C21.9203 24.8054 22.8727 21.7728 24.8996 19.1828L24.5059 18.8746ZM21.5328 27.8522V27.3522H21.0081V27.8522V28.3522H21.5328V27.8522ZM21.0081 27.8522L21.5078 27.8343C21.3953 24.6834 22.3514 21.4755 24.4355 18.7718L24.0395 18.4666L23.6435 18.1613C21.4137 21.054 20.3878 24.4918 20.5085 27.87L21.0081 27.8522ZM24.0395 18.4666L24.4288 18.7803C29.0923 12.993 37.6393 12.0895 43.4898 16.7587L43.8017 16.3679L44.1136 15.9771C37.8387 10.9692 28.6637 11.9312 23.6502 18.1528L24.0395 18.4666ZM43.8017 16.3679L43.4903 16.7591C49.2748 21.3642 50.1781 29.9083 45.5111 35.6998L45.9004 36.0136L46.2897 36.3273C51.2998 30.11 50.3376 20.9321 44.1132 15.9768L43.8017 16.3679ZM45.9004 36.0136L45.5107 35.7003L33.3269 50.8572L33.7166 51.1704L34.1063 51.4837L46.2901 36.3268L45.9004 36.0136ZM33.7166 51.1704V51.6704H48.99V51.1704V50.6704H33.7166V51.1704ZM48.99 51.1704H48.49V51.7534H48.99H49.49V51.1704H48.99ZM48.99 57V56.5H21.5328V57V57.5H48.99V57ZM21.5328 57L21.9232 57.3123L22.3896 56.7294L21.9992 56.417L21.6087 56.1047L21.1424 56.6877L21.5328 57ZM21.9992 56.417V56.917H48.99V56.417V55.917H21.9992V56.417ZM48.99 56.417H48.49V57H48.99H49.49V56.417H48.99Z" fill="#4a3aff"></path></svg>
