<svg xmlns="http://www.w3.org/2000/svg" viewBox="0 0 80 81" fill="none"><path d="M80 47.6976L79.4186 46.7001L67.6076 53.5447V18.2933L52.3083 9.43823L50.0134 8.10307L36.0298 0H34.8824L3.30465 18.2933V40.6228L0.566074 39.0421L0 40.0396L3.30465 41.9579V55.5398L33.7349 73.1578L21.9239 80.0025L22.5053 81L45.7602 67.5256L44.6127 66.8657L36.0451 71.8227L5.59954 54.2046V43.2778L51.4362 69.8276L52.0023 68.83L47.3666 66.1444L80 47.6976ZM5.59954 19.6131L34.8824 2.65498H36.0298L65.3127 19.6131V54.8645L46.1121 65.4077L5.59954 41.9426V19.6131Z" fill="#4a3aff"></path><path d="M44.0469 26.6952C44.0469 23.0809 41.0738 20.1078 37.4595 20.1078H25.1008V19.5249H37.4595C41.4236 19.5249 44.6298 22.7311 44.6298 26.6952C44.6298 29.8432 42.5895 32.5248 39.733 33.4575C41.715 33.8073 43.4639 34.5651 44.9796 35.7311C47.6029 33.5741 49.2935 30.3096 49.2935 26.6952C49.2935 20.1661 43.9886 14.8612 37.4595 14.8612H25.1008V14.2783H37.4595C44.3384 14.2783 49.8764 19.8163 49.8764 26.6952C49.8764 30.4844 48.1276 33.8656 45.446 36.0808C48.1276 38.3544 49.8764 41.7938 49.8764 45.6413C49.8764 52.5202 44.3384 58 37.4595 58H25.1008V57.417H37.4595C43.9886 57.417 49.2935 52.1704 49.2935 45.6413C49.2935 39.1705 44.1052 33.9239 37.7509 33.8073H25.1008V33.2243H37.6926C41.1904 33.0495 44.0469 30.193 44.0469 26.6952ZM44.0469 45.6413C44.0469 42.027 41.0738 39.0539 37.4595 39.0539H25.1008V38.471H37.4595C41.4236 38.471 44.6298 41.6772 44.6298 45.6413C44.6298 49.6054 41.4236 52.7534 37.4595 52.7534H25.1008V52.1704H37.4595C41.0738 52.1704 44.0469 49.2557 44.0469 45.6413Z" fill="#4a3aff"></path><path d="M25.1008 20.1078H24.6008V20.6078H25.1008V20.1078ZM25.1008 19.5249V19.0249H24.6008V19.5249H25.1008ZM39.733 33.4575L39.5778 32.9822L39.6461 33.9499L39.733 33.4575ZM44.9796 35.7311L44.6748 36.1274L44.99 36.3698L45.2972 36.1173L44.9796 35.7311ZM25.1008 14.8612H24.6008V15.3612H25.1008V14.8612ZM25.1008 14.2783V13.7783H24.6008V14.2783H25.1008ZM45.446 36.0808L45.1275 35.6954L44.6669 36.0759L45.1226 36.4622L45.446 36.0808ZM25.1008 58H24.6008V58.5H25.1008V58ZM25.1008 57.417V56.917H24.6008V57.417H25.1008ZM37.7509 33.8073L37.7601 33.3073H37.7509V33.8073ZM25.1008 33.8073H24.6008V34.3073H25.1008V33.8073ZM25.1008 33.2243V32.7243H24.6008V33.2243H25.1008ZM37.6926 33.2243V33.7243H37.7051L37.7176 33.7237L37.6926 33.2243ZM25.1008 39.0539H24.6008V39.5539H25.1008V39.0539ZM25.1008 38.471V37.971H24.6008V38.471H25.1008ZM25.1008 52.7534H24.6008V53.2534H25.1008V52.7534ZM25.1008 52.1704V51.6704H24.6008V52.1704H25.1008ZM44.0469 26.6952H44.5469C44.5469 22.8048 41.3499 19.6078 37.4595 19.6078V20.1078V20.6078C40.7977 20.6078 43.5469 23.357 43.5469 26.6952H44.0469ZM37.4595 20.1078V19.6078H25.1008V20.1078V20.6078H37.4595V20.1078ZM25.1008 20.1078H25.6008V19.5249H25.1008H24.6008V20.1078H25.1008ZM25.1008 19.5249V20.0249H37.4595V19.5249V19.0249H25.1008V19.5249ZM37.4595 19.5249V20.0249C41.1474 20.0249 44.1298 23.0073 44.1298 26.6952H44.6298H45.1298C45.1298 22.455 41.6997 19.0249 37.4595 19.0249V19.5249ZM44.6298 26.6952H44.1298C44.1298 29.622 42.2333 32.1151 39.5778 32.9822L39.733 33.4575L39.8882 33.9328C42.9457 32.9345 45.1298 30.0644 45.1298 26.6952H44.6298ZM39.733 33.4575L39.6461 33.9499C41.5531 34.2865 43.2263 35.0132 44.6748 36.1274L44.9796 35.7311L45.2845 35.3347C43.7016 34.1171 41.877 33.3281 39.8199 32.9651L39.733 33.4575ZM44.9796 35.7311L45.2972 36.1173C48.0286 33.8714 49.7935 30.4684 49.7935 26.6952H49.2935H48.7935C48.7935 30.1507 47.1772 33.2768 44.6621 35.3448L44.9796 35.7311ZM49.2935 26.6952H49.7935C49.7935 19.89 44.2647 14.3612 37.4595 14.3612V14.8612V15.3612C43.7124 15.3612 48.7935 20.4423 48.7935 26.6952H49.2935ZM37.4595 14.8612V14.3612H25.1008V14.8612V15.3612H37.4595V14.8612ZM25.1008 14.8612H25.6008V14.2783H25.1008H24.6008V14.8612H25.1008ZM25.1008 14.2783V14.7783H37.4595V14.2783V13.7783H25.1008V14.2783ZM37.4595 14.2783V14.7783C44.0622 14.7783 49.3764 20.0925 49.3764 26.6952H49.8764H50.3764C50.3764 19.5402 44.6145 13.7783 37.4595 13.7783V14.2783ZM49.8764 26.6952H49.3764C49.3764 30.3276 47.7002 33.5701 45.1275 35.6954L45.446 36.0808L45.7644 36.4663C48.5549 34.1611 50.3764 30.6413 50.3764 26.6952H49.8764ZM45.446 36.0808L45.1226 36.4622C47.6978 38.6455 49.3764 41.9479 49.3764 45.6413H49.8764H50.3764C50.3764 41.6397 48.5573 38.0632 45.7693 35.6995L45.446 36.0808ZM49.8764 45.6413H49.3764C49.3764 52.241 44.0653 57.5 37.4595 57.5V58V58.5C44.6114 58.5 50.3764 52.7994 50.3764 45.6413H49.8764ZM37.4595 58V57.5H25.1008V58V58.5H37.4595V58ZM25.1008 58H25.6008V57.417H25.1008H24.6008V58H25.1008ZM25.1008 57.417V57.917H37.4595V57.417V56.917H25.1008V57.417ZM37.4595 57.417V57.917C44.2615 57.917 49.7935 52.4498 49.7935 45.6413H49.2935H48.7935C48.7935 51.8911 43.7157 56.917 37.4595 56.917V57.417ZM49.2935 45.6413H49.7935C49.7935 38.899 44.388 33.429 37.7601 33.3074L37.7509 33.8073L37.7418 34.3072C43.8224 34.4188 48.7935 39.442 48.7935 45.6413H49.2935ZM37.7509 33.8073V33.3073H25.1008V33.8073V34.3073H37.7509V33.8073ZM25.1008 33.8073H25.6008V33.2243H25.1008H24.6008V33.8073H25.1008ZM25.1008 33.2243V33.7243H37.6926V33.2243V32.7243H25.1008V33.2243ZM37.6926 33.2243L37.7176 33.7237C41.467 33.5362 44.5469 30.4736 44.5469 26.6952H44.0469H43.5469C43.5469 29.9123 40.9137 32.5627 37.6677 32.725L37.6926 33.2243ZM44.0469 45.6413H44.5469C44.5469 41.7508 41.3499 38.5539 37.4595 38.5539V39.0539V39.5539C40.7977 39.5539 43.5469 42.3031 43.5469 45.6413H44.0469ZM37.4595 39.0539V38.5539H25.1008V39.0539V39.5539H37.4595V39.0539ZM25.1008 39.0539H25.6008V38.471H25.1008H24.6008V39.0539H25.1008ZM25.1008 38.471V38.971H37.4595V38.471V37.971H25.1008V38.471ZM37.4595 38.471V38.971C41.1474 38.971 44.1298 41.9534 44.1298 45.6413H44.6298H45.1298C45.1298 41.4011 41.6997 37.971 37.4595 37.971V38.471ZM44.6298 45.6413H44.1298C44.1298 49.324 41.1528 52.2534 37.4595 52.2534V52.7534V53.2534C41.6944 53.2534 45.1298 49.8869 45.1298 45.6413H44.6298ZM37.4595 52.7534V52.2534H25.1008V52.7534V53.2534H37.4595V52.7534ZM25.1008 52.7534H25.6008V52.1704H25.1008H24.6008V52.7534H25.1008ZM25.1008 52.1704V52.6704H37.4595V52.1704V51.6704H25.1008V52.1704ZM37.4595 52.1704V52.6704C41.3441 52.6704 44.5469 49.5376 44.5469 45.6413H44.0469H43.5469C43.5469 48.9737 40.8035 51.6704 37.4595 51.6704V52.1704Z" fill="#4a3aff"></path></svg>
