<svg xmlns="http://www.w3.org/2000/svg" width="109" height="64" viewBox="0 0 109 64" fill="none"><path d="M18.5717 32.7455C15.5775 32.9006 12.9321 31.8678 10.7948 29.6793C6.80309 25.5939 5.44654 20.6784 5.93598 15.1033C6.45252 9.21456 9.73806 2.52477 16.1736 1.65894C22.4551 0.813552 26.474 4.68255 27.6832 10.5559C28.1845 10.5747 28.723 10.4707 29.0177 10.2491C28.9686 7.62605 29.0076 5.13762 29.3971 2.54182C25.6052 0.544256 21.3899 -0.2517 17.1 0.0687278C10.9117 0.532325 5.33476 3.98545 2.45568 9.55544C0.821384 12.7171 0.431862 16.235 0.787513 19.7699C1.26002 24.4894 3.61578 28.6158 7.37044 31.3752C13.6587 35.9958 21.4474 35.3584 28.0473 31.8968L30.1829 25.4456C29.8611 25.1797 29.331 24.9445 28.8331 24.7962C27.0142 29.1595 23.5187 32.4916 18.5734 32.7473L18.5717 32.7455Z" fill="#8C7A88"></path><path d="M108.526 25.599L107.215 24.9888C105.02 30.1259 101.054 33.3148 95.4177 32.7473C93.0569 32.5086 91.0432 31.3633 89.3056 29.5873C86.5231 26.7426 84.9785 23.1549 84.672 19.2194C84.2537 13.8403 85.6915 8.24646 89.9051 4.65357C93.4701 1.61462 99.6263 1.42202 103.051 5.11888C104.544 6.73124 105.334 8.6504 105.904 10.8099L107.129 10.544C107.031 7.97546 107.081 5.63872 107.334 3.05825C103.845 1.38282 100.17 0.675495 96.273 0.845936C89.4445 1.14421 83.3933 5.42226 80.831 11.8444C79.4812 15.2243 79.278 18.9228 80.0672 22.4816C81.0494 26.908 83.9082 30.5332 87.8356 32.6961C93.5988 35.8714 100.763 35.0993 106.433 32.0144L108.526 25.599Z" fill="#8C7A88"></path><path d="M61.7122 30.569C60.2303 28.8663 59.4089 26.9813 59.1718 24.7229L58.0151 24.7297L58.1811 32.5035C62.9282 34.8931 69.2012 35.7675 73.447 32.0979C77.5725 28.5323 77.9045 22.1459 73.889 18.5973C72.4173 17.2968 70.744 16.3066 68.9946 15.3606C65.3212 13.375 61.2803 10.74 63.001 5.89779C63.8156 3.60536 65.7378 2.30661 68.2155 2.535C71.9566 2.87929 73.574 6.40229 73.9449 9.8895C74.3158 9.85371 74.812 9.72076 75.0948 9.56225C75.1609 6.88123 74.9763 5.66769 75.6148 2.97644C73.6655 1.95039 71.5857 1.19704 69.274 0.912407C65.4635 0.443696 61.5835 2.35433 59.768 5.80745C57.9321 9.30319 58.6892 13.4312 61.47 16.1225C64.4372 18.9944 67.5466 19.7392 70.5052 22.2379C73.0405 24.3786 73.6976 28.5715 71.3063 31.0957C68.6813 33.8688 64.1171 33.3353 61.7088 30.5673L61.7122 30.569Z" fill="#8C7A88"></path><path d="M54.147 24.6803L53.2985 27.0443C52.3128 29.7901 50.0993 31.9956 47.1254 32.1643C45.7638 32.241 44.353 32.2462 42.9982 32.1575C41.7619 32.0774 40.9134 31.1519 40.8135 29.9537C40.744 29.1356 40.6153 28.2954 40.617 27.4363L40.6475 11.086L40.7474 6.80623C40.7728 5.7086 40.7576 4.42348 41.3063 3.49117C42.1091 2.12765 44.3954 2.82134 44.7866 2.26059C44.8899 2.11231 44.8323 1.4902 44.7256 1.34021C44.4919 1.00785 43.6824 1.34021 43.2556 1.3368L36.002 1.31465C35.3381 1.31294 34.637 1.22261 33.9731 1.15273L32.7978 1.02831L32.7199 2.34581C33.7038 2.42762 34.5252 2.39524 35.3517 2.79236C35.9783 3.09234 36.4881 4.18316 36.4881 5.00298L36.5084 27.0784C36.5084 28.401 36.439 29.5225 36.2476 30.8128C36.0223 32.3246 33.6564 32.3859 32.4455 32.4115L32.4218 33.7392L51.0579 33.7511C52.0808 33.7511 52.9175 33.7119 53.9302 33.5909C54.3299 31.8235 54.6246 30.2827 54.9006 28.5646L55.5171 24.7349L54.147 24.682V24.6803Z" fill="#8C7A88"></path><path d="M74.5055 41.3698C73.723 41.4704 72.9575 42.055 72.4935 42.8629C71.7077 44.2332 71.8347 46.0655 72.8102 47.3165C73.3217 47.9727 74.1092 48.3494 74.8916 48.3715C75.6452 48.3937 76.2651 47.9267 77.078 47.3438L77.1982 48.2795L78.3414 48.0869V38.532C77.9079 38.5354 77.4591 38.5593 77.0814 38.6087L77.0678 42.1709C76.1855 41.5624 75.4081 41.2505 74.5055 41.3681V41.3698ZM76.299 42.8544C77.3219 43.6708 77.4167 45.7808 76.5022 46.6211C75.9501 47.129 75.232 47.4511 74.4428 47.0336C73.6858 46.633 73.3233 45.7144 73.2996 44.9014C73.2759 44.0594 73.635 43.0674 74.4293 42.6226C75.0491 42.2749 75.7756 42.4351 76.3007 42.8544H76.299Z" fill="#8C7A88"></path><path d="M68.1715 54.2296C67.0216 53.1831 65.311 53.6961 64.3457 54.7272L64.2288 53.8733L63.084 53.8682L63.0535 57.9537L62.9993 63.2135L64.2763 63.2356L64.3101 59.6052C65.516 60.9347 67.0893 61.0915 68.2596 59.9052C69.7719 58.3713 69.8244 55.7328 68.1732 54.2313L68.1715 54.2296ZM66.0613 59.5251C64.7979 59.4927 64.2305 58.3661 64.2356 57.0912C64.239 55.922 64.9147 54.8551 66.0579 54.821C67.3264 54.7835 68.0241 55.7976 68.0563 57.185C68.0868 58.5553 67.2705 59.5558 66.063 59.5234L66.0613 59.5251Z" fill="#8C7A88"></path><path d="M60.3912 55.7789L57.9084 54.7971C57.3546 54.5773 57.0752 53.9909 57.1582 53.4455C57.2378 52.924 57.7052 52.5269 58.3284 52.4314C59.287 52.2848 60.0982 52.6615 60.984 53.1967L61.6783 52.1996C60.359 51.1599 58.5977 50.773 57.1531 51.5724C56.2013 52.099 55.7085 52.9291 55.7508 53.95C55.7898 54.8772 56.4181 55.6783 57.402 56.0635L59.5478 56.9055C60.2083 57.1645 60.4844 57.6844 60.4285 58.3917C60.3929 58.8502 59.9018 59.307 59.3124 59.4297C58.071 59.6888 56.9922 59.2064 55.9523 58.3866L55.3511 59.4706C56.2944 60.3006 57.397 60.7199 58.7925 60.7012C60.3844 60.6807 61.7257 59.6547 61.8951 58.0968C62.0018 57.1117 61.2837 56.1351 60.3878 55.7806L60.3912 55.7789Z" fill="#8C7A88"></path><path d="M37.5974 46.0603C36.4153 47.2193 34.8013 47.4324 33.4735 46.3927C32.2203 45.4144 32.034 43.7407 32.5082 42.3465C32.8723 41.2744 33.5971 40.4955 34.5066 40.2875C35.7277 40.0097 36.6202 40.2415 37.5296 41.1687L38.4221 40.1972C36.5372 38.2576 33.5413 38.3888 31.8934 40.5705C30.5216 42.3874 30.5064 45.1724 32.0221 46.9347C33.7242 48.9152 36.6828 48.7499 38.4154 46.9194L37.6008 46.0569L37.5974 46.0603Z" fill="#8C7A88"></path><path d="M75.9721 55.5641C75.547 54.2483 74.2819 53.4932 72.9203 53.6927C71.247 53.9381 70.219 55.4192 70.1682 57.0929C70.1242 58.54 70.9083 59.8762 72.1158 60.4097C73.4368 60.9943 74.9305 60.6961 75.9721 59.5865L75.2896 58.932C74.475 59.5371 73.4758 59.7757 72.568 59.3121C71.9702 59.007 71.5976 58.2928 71.5265 57.56L76.2431 57.5838C76.2075 56.7521 76.1685 56.1794 75.9704 55.5641H75.9721ZM71.6162 56.7061C71.5315 55.7209 72.2344 54.9045 73.0642 54.7801C74.016 54.6369 74.7917 55.2232 74.9153 56.5237L71.6162 56.7078V56.7061Z" fill="#8C7A88"></path><path d="M41.3605 53.7404C39.4823 53.7404 37.9598 55.2726 37.9598 57.1628C37.9598 59.053 39.4823 60.5853 41.3605 60.5853C43.2387 60.5853 44.7612 59.053 44.7612 57.1628C44.7612 55.2726 43.2387 53.7404 41.3605 53.7404ZM42.4664 59.1536C41.916 59.6376 40.7593 59.7143 40.1665 59.1331C39.0894 58.0764 39.1538 56.3038 40.1073 55.3101C40.91 54.4733 42.1616 54.6301 42.8085 55.5436C43.5723 56.6259 43.5096 58.2349 42.4664 59.1536Z" fill="#8C7A88"></path><path d="M9.99548 53.7745C8.73546 53.4898 7.55165 53.8205 6.48301 54.4648L6.95043 55.4056C8.06989 54.6744 9.53314 54.4221 10.1344 55.4192C10.3003 55.6953 10.4019 56.3805 10.197 56.568C9.24015 56.5919 8.32731 56.5356 7.60246 56.7827C6.65914 57.1049 6.12228 57.8531 6.10365 58.7888C6.0901 59.5098 6.59478 60.2938 7.51439 60.5819C8.60167 60.9227 9.60427 60.437 10.3579 59.8029L10.5594 60.5273L11.6298 60.4949L11.5841 55.7533C11.5739 54.7784 10.8812 53.9756 9.99548 53.7762V53.7745ZM8.86079 59.6427C8.23924 59.7723 7.60077 59.4433 7.43649 58.8144C7.30778 58.3218 7.74303 57.485 8.41199 57.4679L10.2072 57.4219C10.6797 58.5349 9.92605 59.4212 8.86079 59.6444V59.6427Z" fill="#8C7A88"></path><path d="M40.5035 41.7124C39.4959 42.2459 38.8777 43.4236 38.8354 44.6406C38.7795 46.2035 39.4671 47.4852 40.8118 48.0801C42.0803 48.6425 43.53 48.3494 44.536 47.2279L43.8687 46.5376C43.0913 47.1546 42.148 47.4801 41.2013 46.9892C40.5577 46.6552 40.1868 45.82 40.219 45.2013L44.7595 45.1689C44.9577 43.9793 44.6427 43.0026 43.8602 42.1249C43.0846 41.2573 41.5586 41.1534 40.5035 41.7124ZM43.4571 44.2861L40.236 44.3253C40.153 43.318 40.7982 42.4794 41.6789 42.4266C42.6442 42.3686 43.5909 42.9958 43.4571 44.2861Z" fill="#8C7A88"></path><path d="M29.1566 55.2386C29.0838 54.1767 27.5968 53.6023 26.7195 53.6603C25.6797 53.7285 24.9853 54.0404 24.103 54.5142L24.6331 55.4107C25.5306 54.8994 26.4011 54.5278 27.3716 54.9164C27.9084 55.1312 28.115 55.997 27.9762 56.5305C26.3249 56.4538 23.7642 56.5458 23.7812 58.7121C23.788 59.4962 24.2588 60.2342 25.175 60.5546C26.2182 60.9176 27.2615 60.4983 27.9982 59.8013L28.1371 60.5307L29.2328 60.4898C29.2159 58.7104 29.2768 57.0146 29.1566 55.2403V55.2386ZM27.7712 58.8809C27.3614 59.3428 26.6535 59.6802 26.0658 59.6155C25.4392 59.5473 25.07 59.0564 25.07 58.5673C25.07 58.0951 25.4714 57.4798 26.015 57.4764L27.8712 57.4628C28.0829 57.9264 28.1133 58.4957 27.7712 58.8809Z" fill="#8C7A88"></path><path d="M71.0861 45.1843C71.2961 43.7185 70.8016 42.2357 69.5433 41.5709C68.5119 41.0272 67.3315 41.3647 66.4949 41.997C65.6701 42.6192 65.2348 43.5566 65.1976 44.6644C65.1468 46.1626 65.8547 47.4392 67.135 48.0119C68.4221 48.5863 69.9328 48.3528 70.9083 47.2807L70.324 46.5325C69.6669 47.0131 68.8726 47.3625 67.9784 47.1631C67.0148 46.9466 66.5338 46.0229 66.6574 45.1962L71.0861 45.1843ZM66.6354 44.327C66.5609 43.2771 67.2417 42.4981 68.0936 42.418C69.1199 42.3226 69.8905 42.9873 69.8617 44.2792L66.6371 44.327H66.6354Z" fill="#8C7A88"></path><path d="M91.741 56.239C91.7782 54.9931 91.177 53.8938 89.8306 53.7165C88.7027 53.5665 87.5968 53.8819 86.601 54.5278L87.0786 55.4414C88.0862 54.8159 89.0296 54.4903 90.0508 55.0988C90.3895 55.2999 90.5453 56.1419 90.5436 56.5509C89.0296 56.5748 87.3987 56.3362 86.4502 57.8974C86.1861 58.3338 86.2301 59.2456 86.5011 59.6496C87.0227 60.4302 87.7374 60.7097 88.5723 60.6909C89.182 60.6773 89.8831 60.2717 90.4268 59.7842L90.591 60.5222L91.7918 60.4523C91.7308 58.9968 91.6969 57.698 91.741 56.239ZM89.668 59.3786C89.0922 59.745 88.2387 59.7399 87.7137 59.2456C87.5104 59.0547 87.4816 58.4156 87.5951 58.1838C88.0947 57.1696 89.414 57.3997 90.4251 57.5395C90.7875 58.4718 90.2151 59.0309 89.668 59.3786Z" fill="#8C7A88"></path><path d="M50.1485 53.7898C48.9884 53.4063 48.0095 53.9074 47.2253 54.7426L47.1407 53.8222L45.9213 53.9517L45.8146 60.4898L47.1627 60.4694C47.2152 58.8945 47.0865 57.4816 47.2745 55.9783C47.4083 54.9113 49.0849 54.504 49.7742 55.1448C50.3398 55.6715 50.3619 56.5322 50.3331 57.2583L50.206 60.5052L51.5931 60.5018L51.5677 55.7379C51.5626 54.8806 50.9106 54.0404 50.1502 53.7898H50.1485Z" fill="#8C7A88"></path><path d="M1.43107 59.3155V51.3082L0.110082 51.3116L0 60.4983L5.52783 60.5035L5.50243 59.3036L1.43107 59.3155Z" fill="#8C7A88"></path><path d="M100.175 55.3153C100.341 54.3233 102.138 54.7869 102.856 55.3596L103.649 54.5142C102.621 53.7131 101.386 53.4575 100.192 53.8733C99.5433 54.1 98.959 54.7358 98.8777 55.3647C98.7981 55.9868 99.2063 56.8612 99.8176 57.1219L101.889 58.0031C102.155 58.1173 102.434 58.5792 102.419 58.8894C102.373 59.8916 100.282 59.8387 99.1351 58.9218L98.6389 59.7672C99.7482 60.6841 101.332 61.0898 102.737 60.2648C103.273 59.9512 103.655 59.3053 103.73 58.8553C104.167 56.1981 99.8803 57.0742 100.175 55.317V55.3153Z" fill="#8C7A88"></path><path d="M82.113 58.8314C81.8861 58.7036 80.56 60.1813 79.1086 59.1348C78.5226 58.7121 78.2923 57.9349 78.3058 56.9975C78.3194 56.0396 78.8376 55.2079 79.5438 54.9624C80.3364 54.6863 81.1561 55.0085 81.8437 55.5539C82.1215 55.4993 82.5601 54.9471 82.572 54.6591C81.2577 53.4234 79.4592 53.3399 78.1416 54.5125C77.1491 55.3954 76.7528 56.6737 77.0678 58.0815C77.2948 59.0956 78.0941 60.1319 79.3017 60.5478C80.5532 60.979 81.9521 60.4302 82.6549 59.4331C82.4805 59.2047 82.2654 58.915 82.1164 58.8314H82.113Z" fill="#8C7A88"></path><path d="M58.513 42.5697L58.5283 48.1176C58.8145 48.2301 59.4733 48.1465 59.707 47.9028L59.7256 42.6515C60.2269 42.6089 61.0009 42.5322 61.4277 42.4402C61.6309 42.3959 61.6089 41.559 61.4429 41.5812L59.7747 41.5454C59.668 40.9318 59.6968 40.2262 60.1355 39.8103C60.4843 39.4796 61.2092 39.5632 61.6614 39.6518L61.8765 38.6684C61.0009 38.2457 59.8493 38.3309 59.0922 39.0944C58.5164 39.6757 58.5232 40.6625 58.4707 41.4176C58.0676 41.4329 57.5663 41.4499 57.5257 41.6545C57.4918 41.8249 57.5104 42.2715 57.6154 42.4095C57.7204 42.5476 58.0287 42.5288 58.513 42.5714V42.5697Z" fill="#8C7A88"></path><path d="M17.6386 55.5794L18.5142 54.7767C17.2728 53.3791 15.3455 53.3126 13.95 54.5329C12.7154 55.6118 12.4766 57.3946 13.2167 58.8758C13.7213 59.8848 14.6427 60.5682 15.6215 60.6671C16.7241 60.7779 17.7385 60.3842 18.4261 59.4927C18.2415 59.2422 17.8858 58.903 17.6894 58.8383C16.7495 59.7433 15.2828 59.7893 14.541 58.6388C13.9195 57.6742 14.011 56.2765 14.7189 55.4533C15.5115 54.5295 16.868 54.7443 17.6369 55.5811L17.6386 55.5794Z" fill="#8C7A88"></path><path d="M53.793 47.1017C53.3967 47.2245 52.7633 47.2347 52.5466 47.0387C52.3603 46.8716 52.1994 46.3382 52.2095 45.9615L52.2891 42.5936C52.9649 42.5561 53.4645 42.522 53.9336 42.4061C53.937 42.176 53.8946 41.6476 53.8692 41.5181L52.2637 41.4312L52.2536 39.6893L50.936 39.9364L50.8615 41.4176C50.3602 41.4363 49.9825 41.4602 49.9266 41.6664C49.8792 41.8402 49.8114 42.4078 49.9876 42.4334L50.875 42.5595L50.9343 46.6876C50.9529 47.9369 52.1994 48.4601 53.2816 48.2607C53.6135 48.1994 54.0928 48.075 54.1351 47.8534C54.1859 47.5892 54.0098 47.0336 53.793 47.1017Z" fill="#8C7A88"></path><path d="M107.969 59.3769C107.532 59.5473 106.484 59.6087 106.475 58.8689L106.438 54.8857L108.15 54.8806L108.174 53.8682L106.475 53.8392L106.448 52.1519L105.266 52.1672L105.024 53.8801C104.697 53.8699 104.104 53.7642 104.104 53.9534V54.7937C104.106 54.9829 104.709 54.8636 105.088 54.8414L105.125 58.9934C105.13 59.4757 105.577 60.1149 105.899 60.3449C106.702 60.9176 108.304 60.5597 108.323 60.1285C108.333 59.9052 108.159 59.3223 107.971 59.3786L107.969 59.3769Z" fill="#8C7A88"></path><path d="M34.2763 59.4535C33.8681 59.5183 32.9908 59.5371 32.6335 59.1877L32.603 54.8892L34.3051 54.8789V53.858H32.6284L32.581 52.1843C32.1932 52.1434 31.5615 52.1706 31.321 52.2831L31.1838 53.8427C30.8705 53.8597 30.2811 53.766 30.2625 53.95C30.2439 54.1341 30.2591 54.567 30.2947 54.7477C30.3302 54.9301 30.8248 54.8551 31.2973 54.8704L31.2668 58.6371C31.2617 59.2797 31.5784 60.0722 32.0357 60.3279C33.04 60.8921 34.4338 60.5802 34.5015 60.1234C34.5286 59.9393 34.4355 59.4382 34.2763 59.4501V59.4535Z" fill="#8C7A88"></path><path d="M21.4034 59.1877C20.8699 57.6844 21.2679 56.3584 21.2798 54.8892L22.9564 54.8789V53.858L21.2798 53.8597L21.2154 52.1945C20.8276 52.157 20.1874 52.1723 19.9571 52.2542L19.8233 53.8239C19.4253 53.858 18.9934 53.7932 18.9223 53.9654C18.8512 54.1375 18.8224 54.596 18.8901 54.7716C18.9579 54.9454 19.466 54.8823 19.8639 54.9011L19.9486 59.1485C19.9723 60.316 21.4 60.8461 22.3349 60.5819C22.6567 60.4915 23.1546 60.454 23.1325 60.2427C23.1071 60.0007 23.0529 59.5797 23.0275 59.4144C22.5584 59.4672 21.566 59.6444 21.4034 59.1843V59.1877Z" fill="#8C7A88"></path><path d="M94.659 50.9383H93.3787V60.5069H94.659V50.9383Z" fill="#8C7A88"></path><path d="M47.1559 47.925L47.2643 44.4275C47.3016 43.2327 48.2398 42.5356 49.4304 42.614C49.6167 42.3771 49.6776 41.7431 49.5743 41.4073C48.5819 41.2198 47.8774 41.6647 47.2982 42.5561L47.0949 41.4857L45.9975 41.6238L45.9907 48.2164C46.4836 48.2386 47.0933 48.1585 47.1542 47.9233L47.1559 47.925Z" fill="#8C7A88"></path><path d="M97.5229 53.8955C97.1536 53.8699 96.6913 53.8546 96.5236 53.9841C96.3848 54.0915 96.2967 54.5108 96.2967 54.7017L96.2899 60.4932L97.6346 60.4626L97.6126 57.4304L97.5229 53.8938V53.8955Z" fill="#8C7A88"></path><path d="M84.9938 53.9228C84.5179 53.8733 84.0792 53.887 83.7795 54.025L83.7388 60.4234C84.0437 60.541 84.6771 60.5154 85.0209 60.3313L84.9819 56.672L84.9938 53.9228Z" fill="#8C7A88"></path><path d="M35.6802 54.0267L35.6311 60.4523L36.8522 60.4864L36.8437 54.0097C36.5846 53.8307 35.9258 53.8222 35.6819 54.0267H35.6802Z" fill="#8C7A88"></path><path d="M56.5248 41.6221L55.319 41.5471L55.3088 48.1772L56.4841 48.034L56.5248 41.6221Z" fill="#8C7A88"></path><path d="M63.946 41.53H62.7605V48.1244H63.946V41.53Z" fill="#8C7A88"></path><path d="M96.9098 50.8429C96.632 50.8344 96.2036 51.1923 96.1307 51.4463C96.0494 51.7292 96.1781 52.3547 96.4152 52.5132C96.9369 52.8643 97.5466 52.4808 97.7498 51.9883C97.9513 51.4974 97.5855 50.8616 96.9098 50.8429Z" fill="#8C7A88"></path><path d="M64.1984 39.6995C64.3423 39.3859 64.1442 38.8303 63.8817 38.6513C63.6141 38.4706 62.9959 38.4809 62.8096 38.6956C62.4387 39.1234 62.3659 39.9978 63.023 40.1955C63.4854 40.3353 64.051 40.0251 64.1984 39.7012V39.6995Z" fill="#8C7A88"></path><path d="M55.9032 40.2586C56.3821 40.2586 56.7703 39.8679 56.7703 39.3859C56.7703 38.9039 56.3821 38.5132 55.9032 38.5132C55.4243 38.5132 55.0361 38.9039 55.0361 39.3859C55.0361 39.8679 55.4243 40.2586 55.9032 40.2586Z" fill="#8C7A88"></path><path d="M35.792 50.8923C35.2873 51.2809 35.2518 52.0428 35.7158 52.4894C35.936 52.7024 36.6117 52.5575 36.8099 52.3343C37.0402 52.0752 37.0774 51.4565 36.8878 51.1701C36.6913 50.8719 36.0816 50.6691 35.792 50.8906V50.8923Z" fill="#8C7A88"></path><path d="M84.3621 52.5814C84.8344 52.5814 85.2173 52.196 85.2173 51.7207C85.2173 51.2453 84.8344 50.8599 84.3621 50.8599C83.8897 50.8599 83.5068 51.2453 83.5068 51.7207C83.5068 52.196 83.8897 52.5814 84.3621 52.5814Z" fill="#8C7A88"></path></svg>