<svg xmlns="http://www.w3.org/2000/svg" width="80" height="80" viewBox="0 0 80 80" fill="none"><path d="M71.2228 46.3937C72.3363 40.9462 71.9591 35.2687 70.1513 30.0253C67.8846 23.4537 63.4618 17.8138 57.6032 13.8816C59.311 16.5758 59.109 18.1781 58.6447 21.213C60.8609 23.4096 62.7503 25.8169 64.0487 28.6895C67.0548 35.346 66.8646 43.1213 63.407 49.6209C61.0307 54.0883 56.8831 57.7637 52.4034 59.9271C45.9569 63.0415 38.2743 63.4122 31.8073 60.1893C30.8121 59.6938 29.9286 59.0985 29.0065 58.4633C26.7473 56.9083 24.8384 54.9696 23.2198 52.7536C22.4793 51.7402 21.9441 50.6752 21.3615 49.565C21.2014 49.2588 21.397 49.0041 21.6109 48.7924C22.3202 48.0884 22.7534 47.176 23.15 46.2529C24.7353 42.5539 21.8903 39.4072 18.8154 37.7135C18.3704 37.4685 18.1834 37.231 18.1802 36.6958C18.1619 33.3493 18.9916 30.1564 20.5243 27.1731C25.3124 18.2232 34.6534 13.0519 44.8262 14.3426C45.5689 13.5065 46.3363 12.7832 47.2649 12.2319C48.6503 11.3066 50.1259 10.9724 51.8972 10.9746C49.106 9.77309 46.1901 9.12828 43.142 8.85209C35.2864 8.14066 27.4641 10.3136 21.1971 15.0788C14.2454 20.3651 9.71303 28.1264 8.9048 36.8205C8.01058 37.0859 7.20772 37.2955 6.37368 37.6555C3.65986 38.828 1.63389 41.2127 1.00085 44.0993C0.387146 46.8988 1.2545 49.6585 3.31593 51.594C5.83307 53.724 8.78872 54.371 12.0313 54.4774C15.9221 62.1162 22.7308 67.7808 30.9067 70.2085C39.6425 72.8027 49.1146 71.6732 56.8551 66.8587C64.226 62.2741 69.4785 54.9341 71.2239 46.3926L71.2228 46.3937Z" fill="#8C7A88"></path><path d="M51.8553 12.1857C48.92 12.2846 47.2842 13.7999 45.4302 15.9686C40.8721 15.3582 36.2591 15.9879 32.1147 18.0545C28.1101 20.0513 24.8127 23.0797 22.4965 26.8959C20.7747 29.7309 19.3678 33.7523 19.6279 37.0849C22.2805 38.3723 23.3155 39.4019 24.5794 42.0402C24.6837 41.7511 24.7686 41.3664 24.7417 41.0042C24.3398 35.6523 26.5173 30.5852 30.5703 27.1183C33.5571 24.5649 37.2371 23.0389 41.2074 23.0195C41.9296 23.0163 42.6025 23.0786 43.272 23.2205C43.387 24.6874 43.803 25.9319 44.6112 27.0581C46.8382 30.0769 51.0481 29.1473 53.8157 27.2591C59.3605 31.5707 60.8093 38.8355 59.2498 45.3878C60.13 46.7236 60.7684 48.2303 60.3482 49.8165C59.8516 51.6918 58.2104 53.0771 56.2694 53.2619C55.6299 53.3232 55.013 53.2179 54.3864 53.1888C51.0674 56.3548 46.8135 58.3269 42.1758 58.4429C35.151 58.6192 29.575 54.8857 26.355 48.7913C25.666 47.3222 25.2963 45.8563 24.9029 44.2948C24.7234 46.3518 24.0012 48.0648 22.6642 49.6177C25.3103 54.2109 29.4858 57.7433 34.4835 59.4316C43.0549 62.3268 52.4335 59.8475 58.7091 53.4446C59.9516 52.1765 61.0049 50.8708 61.8755 49.3157C63.5758 46.2765 64.6355 43.0128 64.7817 39.4953C65.002 34.1725 63.3812 29.057 60.1644 24.8443C59.3508 23.7793 58.5103 22.9067 57.6182 21.8771C57.2313 21.4312 58.175 19.3979 57.7537 16.9713C57.2485 14.0621 54.7808 12.0869 51.8563 12.1857H51.8553Z" fill="#8C7A88"></path><path d="M34.4352 52.1872C32.7521 51.3888 31.4054 50.2786 30.092 48.7913C30.2382 49.8015 30.6605 50.6494 31.1313 51.5167C32.4802 54.0013 34.7737 55.7498 37.5381 56.3892C43.3021 57.7229 49.1758 55.7627 53.3793 51.6241C54.5014 51.8788 55.5837 52.1056 56.6972 51.8734C58.3781 51.5242 59.4002 50.0261 59.0993 48.3388C58.9177 47.3222 58.3641 46.4797 57.6763 45.6522C58.8962 41.145 58.2825 36.3498 55.9899 32.2617C55.301 31.1215 54.6196 30.0694 53.6254 29.2268C51.435 30.5336 49.15 30.7873 46.6329 30.2521C50.788 33.1215 53.1837 37.6211 52.9505 42.6302L51.1996 42.5291C49.6756 42.4421 48.4256 44.1884 47.9226 45.4748C47.7947 45.8026 47.8624 46.3313 48.0097 46.6473L48.8319 48.4194C49.1027 49.0041 48.9576 49.4834 48.5127 49.9197C44.7843 53.5789 39.1546 54.4226 34.4352 52.1862V52.1872Z" fill="#8C7A88"></path><path d="M46.404 4.63937C46.4684 3.93116 46.1826 3.45508 45.5904 3.12515C46.1568 2.73397 46.4631 2.20738 46.3373 1.53249C46.0547 0.0161202 44.0373 0.0999447 42.8174 0L42.15 6.03644L44.4317 6.22774C45.4087 6.30941 46.3126 5.65171 46.404 4.63937ZM43.9201 1.20471L44.7692 1.35409C44.9616 1.38848 45.1594 1.75817 45.1637 1.93549C45.168 2.11281 44.9218 2.49002 44.7262 2.49217L43.7707 2.50614L43.9201 1.20578V1.20471ZM43.5354 5.0284L43.6278 3.60016C44.1964 3.54857 45.1389 3.62165 45.2303 4.303C45.2561 4.49214 45.096 4.95425 44.8735 5.00691C44.3705 5.12512 44.0072 5.08428 43.5354 5.02733V5.0284Z" fill="#8C7A88"></path><path d="M69.8439 19.6386L69.1592 18.7187C68.2812 18.7681 67.5868 18.2953 67.2795 17.6569C66.8925 16.8552 67.0505 16.0223 67.6567 15.3775C68.3166 14.6757 69.2732 14.5414 70.0137 14.9573C70.7983 15.3979 71.1487 16.1953 70.9606 17.1088L71.7817 17.9847C72.4825 16.9637 72.2718 15.7085 71.5388 14.7596C70.3931 13.2754 68.3317 13.1755 66.9592 14.363C65.6254 15.5172 65.5168 17.5698 66.7485 18.911C67.546 19.7794 68.7358 20.1039 69.845 19.6397L69.8439 19.6386Z" fill="#8C7A88"></path><path d="M45.168 77.4894C44.7649 78.074 44.1888 78.3814 43.5214 78.3491C42.9614 78.3223 42.3853 78.002 42.0339 77.4195C41.5492 76.6146 41.6588 75.6044 42.2607 74.9456C43.0184 74.1149 44.2404 74.1289 44.9917 74.9768C45.4205 74.9897 45.916 74.9424 46.3534 74.8543C45.5355 73.4164 43.8094 72.879 42.3907 73.5045C40.9258 74.1493 40.1917 75.757 40.6872 77.3056C41.0945 78.5791 42.2542 79.4453 43.5343 79.4711C44.8401 79.4979 46.059 78.7672 46.4975 77.4421C46.0461 77.4206 45.5592 77.4313 45.1669 77.4894H45.168Z" fill="#8C7A88"></path><path d="M12.6096 19.4752L10.1419 17.2743L13.8617 17.9223L14.4722 17.111L10.7824 14.003L10.2085 14.7273L12.6526 16.8251L8.99401 16.2555L8.42544 17.039L12.0184 20.2415L12.6096 19.4752Z" fill="#8C7A88"></path><path d="M28.3508 8.00632L27.3868 4.90266L30.1608 7.37871C30.4864 7.30241 30.8314 7.19924 31.1592 7.08103L29.6954 2.62006L28.8173 2.91344C29.1634 3.95265 29.4589 4.72642 29.7255 5.88492C28.7431 5.11652 27.9381 4.34813 26.9988 3.50021L26.0347 3.83014L27.4706 8.30293L28.3508 8.00632Z" fill="#8C7A88"></path><path d="M6.48761 32.396L3.43308 31.7169L6.86594 30.5164C7.01855 30.2736 7.08734 29.819 7.00458 29.5847L2.47652 28.5702L2.27984 29.4826L5.38166 30.165L1.84133 31.3955L1.69193 32.2585L6.27158 33.316L6.48761 32.3971V32.396Z" fill="#8C7A88"></path><path d="M23.5906 9.98695C24.9524 9.98695 26.0562 8.88326 26.0562 7.52164C26.0562 6.16003 24.9524 5.05634 23.5906 5.05634C22.2289 5.05634 21.1251 6.16003 21.1251 7.52164C21.1251 8.88326 22.2289 9.98695 23.5906 9.98695ZM23.5928 5.97411C24.4472 5.97411 25.1394 6.6662 25.1394 7.52057C25.1394 8.37493 24.4472 9.06702 23.5928 9.06702C22.7383 9.06702 22.0462 8.37493 22.0462 7.52057C22.0462 6.6662 22.7383 5.97411 23.5928 5.97411Z" fill="#8C7A88"></path><path d="M49.8658 7.37549C51.2319 7.37549 52.34 6.26857 52.34 4.90159C52.34 3.5346 51.233 2.42769 49.8658 2.42769C48.4987 2.42769 47.3917 3.5346 47.3917 4.90159C47.3917 6.26857 48.4987 7.37549 49.8658 7.37549ZM49.8669 3.34761C50.7235 3.34761 51.4178 4.04185 51.4178 4.89836C51.4178 5.75488 50.7235 6.44912 49.8669 6.44912C49.0103 6.44912 48.316 5.75488 48.316 4.89836C48.316 4.04185 49.0103 3.34761 49.8669 3.34761Z" fill="#8C7A88"></path><path d="M71.469 55.71L74.071 57.1501L70.4748 57.3811L70.0449 58.1786L74.099 60.4235L74.5396 59.6132L71.8226 58.1001L75.4822 57.8712L75.8971 57.048L71.8688 54.8664L71.469 55.71Z" fill="#8C7A88"></path><path d="M54.798 71.5604L56.0265 74.4878L53.1256 72.3481C52.786 72.4029 52.3701 72.5674 52.1465 72.7307L53.9371 76.9499L54.7658 76.6167L53.5642 73.6549L56.4929 75.8398L57.4828 75.4335L55.5772 71.1703L54.7991 71.5604H54.798Z" fill="#8C7A88"></path><path d="M36.1409 77.7806L34.6931 74.3685C34.4094 74.2965 34.0268 74.2417 33.728 74.2181L33.096 78.7618L33.9569 78.9187L34.4384 75.757L35.8711 79.1304C36.1828 79.2024 36.5665 79.2497 36.8728 79.2529L37.4499 74.6641L36.5654 74.563L36.1409 77.7806Z" fill="#8C7A88"></path><path d="M49.6176 73.4454C48.2784 73.4454 47.1929 74.5308 47.1929 75.8698C47.1929 77.2089 48.2784 78.2943 49.6176 78.2943C50.9567 78.2943 52.0423 77.2089 52.0423 75.8698C52.0423 74.5308 50.9567 73.4454 49.6176 73.4454ZM49.6294 77.3841C48.7889 77.3841 48.1086 76.7027 48.1086 75.8634C48.1086 75.0241 48.79 74.3427 49.6294 74.3427C50.4688 74.3427 51.1502 75.0241 51.1502 75.8634C51.1502 76.7027 50.4688 77.3841 49.6294 77.3841Z" fill="#8C7A88"></path><path d="M74.6353 40.3261L74.5407 41.8521C74.4558 43.2212 75.45 44.2551 76.7827 44.3335C77.937 44.4012 78.9398 43.7521 79.2375 42.542C79.3976 41.8908 79.4052 41.2406 79.3912 40.6023L74.6342 40.3261H74.6353ZM78.181 42.7591C77.6823 43.4985 76.3184 43.5469 75.7101 42.7624C75.3984 42.3604 75.3758 41.8134 75.4854 41.3094L78.4572 41.4889C78.4884 41.9306 78.4207 42.4045 78.181 42.7591Z" fill="#8C7A88"></path><path d="M61.0919 13.0422C62.2065 13.8633 63.6811 13.5613 64.4603 12.3813C65.0815 11.441 64.9902 10.3115 64.1916 9.52161C63.7338 9.0681 63.1953 8.67262 62.6654 8.30723L59.8409 12.1212L61.0909 13.0422H61.0919ZM62.8911 9.57535C63.3189 9.8999 63.7391 10.2287 63.8735 10.7145C64.1078 11.5592 63.4049 12.506 62.5064 12.5672C61.9625 12.6049 61.5455 12.2996 61.1274 11.9579L62.89 9.57535H62.8911Z" fill="#8C7A88"></path><path d="M30.1328 73.3153C28.8033 73.3153 27.7242 74.3932 27.7242 75.7226C27.7242 77.052 28.8022 78.1299 30.1328 78.1299C31.4634 78.1299 32.5403 77.052 32.5403 75.7226C32.5403 74.3932 31.4623 73.3153 30.1328 73.3153ZM30.1361 77.2304C29.3052 77.2304 28.6314 76.5566 28.6314 75.7258C28.6314 74.8951 29.3052 74.2213 30.1361 74.2213C30.9669 74.2213 31.6407 74.8951 31.6407 75.7258C31.6407 76.5566 30.9669 77.2304 30.1361 77.2304Z" fill="#8C7A88"></path><path d="M71.3862 25.4805L72.964 24.6842L71.8795 26.6315C72.0321 26.9528 72.2267 27.2827 72.4363 27.5579L73.5476 25.6417C74.0624 26.2865 74.8782 26.3596 75.5177 25.9168C76.0647 25.5386 76.2926 24.7712 75.9476 24.0899L75.1372 22.4886L70.9348 24.6337L71.3862 25.4805ZM74.7761 23.732C74.9996 24.0641 75.1544 24.3596 75.1576 24.7874C75.1587 24.9744 74.8201 25.2409 74.6439 25.2753C74.4676 25.3096 74.0818 25.1581 74.0022 24.998L73.6368 24.2629L74.7761 23.7331V23.732Z" fill="#8C7A88"></path><path d="M10.3676 22.7186L8.94456 21.6687L11.0146 21.6278L11.5606 20.7939L9.37878 20.7627C9.71733 20.0867 9.56364 19.385 9.03162 18.9315C8.52325 18.4984 7.71716 18.3855 7.1701 18.9046C6.6628 19.386 6.25761 20.0319 5.9083 20.6509L9.85168 23.5128C10.0312 23.2764 10.1988 23.0141 10.3687 22.7175L10.3676 22.7186ZM8.75218 20.2297C8.65545 20.5424 8.48778 20.7724 8.25025 21.1431L7.14001 20.3522C7.32702 20.0824 7.49683 19.8428 7.70104 19.616C7.81067 19.4946 8.22016 19.5301 8.36956 19.6031C8.5383 19.6848 8.81237 20.0373 8.75218 20.2318V20.2297Z" fill="#8C7A88"></path><path d="M58.0406 9.05305L58.218 11.1315L59.1401 11.6355L58.9886 9.58287C59.8581 9.7086 60.5202 9.34322 60.8265 8.65543C61.1124 8.01277 60.9286 7.21321 60.2547 6.80699L58.7715 5.91393L56.3113 9.99125L57.141 10.4555L58.0396 9.05198L58.0406 9.05305ZM59.0971 7.17667C59.267 7.25512 59.4454 7.34325 59.6163 7.43674C59.9752 7.63341 60.0838 8.0708 59.9161 8.37816C59.7366 8.70808 59.311 8.85639 58.9606 8.64253L58.4136 8.30938L59.0971 7.17667Z" fill="#8C7A88"></path><path d="M15.5964 16.0513L15.1375 14.8509L16.3971 13.7376L17.5923 14.2964L18.3392 13.5323L13.7112 11.3249C13.5178 11.4818 13.3103 11.6806 13.1491 11.8655L14.7935 16.7348L15.5942 16.0513H15.5964ZM15.6168 13.2658L14.8387 13.9708L14.2991 12.5737L15.6157 13.2658H15.6168Z" fill="#8C7A88"></path><path d="M52.5571 8.25135L53.4524 7.39053L54.9646 8.11916L54.9442 9.32925L55.9093 9.74085L55.9588 4.68021C55.7771 4.50396 55.4569 4.35995 55.1957 4.33631L51.6177 7.80428C51.8972 7.97623 52.2895 8.17182 52.556 8.25135H52.5571ZM55.0506 5.70115L55.028 7.14658L54.0575 6.70597L55.0506 5.70115Z" fill="#8C7A88"></path><path d="M32.88 5.55069L34.5577 5.2702L35.1693 6.27502C35.4337 6.29652 35.899 6.19979 36.2107 6.0977L33.4496 1.81298L32.6844 2.00642L31.6279 6.92735L32.6392 6.7683L32.8789 5.55069H32.88ZM33.3228 3.2036L34.0676 4.447L33.039 4.65656L33.3228 3.2036Z" fill="#8C7A88"></path><path d="M68.221 60.7707L70.8209 64.9393C71.024 64.7814 71.3615 64.388 71.4206 64.1537L70.8359 63.1511L71.8462 61.898L72.9887 62.1516C73.1918 61.883 73.3616 61.5863 73.4573 61.2607L68.7336 60.0936C68.5122 60.258 68.3048 60.5418 68.221 60.7717V60.7707ZM70.9885 61.553L70.3415 62.459L69.5129 61.1973L70.9885 61.553Z" fill="#8C7A88"></path><path d="M17.7255 72.6297L18.5069 73.2089L19.5032 72.4191L20.9144 73.2766L20.722 74.433C20.9391 74.6114 21.3121 74.7941 21.6238 74.8811L22.2633 70.0193C22.029 69.8506 21.7957 69.713 21.5711 69.6163L17.7255 72.6297ZM21.0864 72.3728L20.1793 71.8291L21.2702 70.9478L21.0864 72.3728Z" fill="#8C7A88"></path><path d="M12.6601 62.0538L7.95791 63.6229L8.51788 64.3988L9.71196 63.9807L10.8168 65.2058L10.2322 66.2644L10.9286 66.9877L13.1674 62.6933C13.1631 62.4676 12.8664 62.099 12.659 62.0538H12.6601ZM11.3016 64.4009L10.6083 63.6379L11.9658 63.1822L11.3016 64.4009Z" fill="#8C7A88"></path><path d="M7.25716 60.9566L11.2887 58.128L10.6298 57.1179L5.6611 60.6084L7.37001 62.9759C7.69997 62.804 8.00305 62.6019 8.25455 62.3827L7.25716 60.9566Z" fill="#8C7A88"></path><path d="M15.1934 65.8861C16.367 66.417 15.5566 67.3606 16.7873 67.9226C17.0946 67.0575 16.8818 66.2365 16.3133 65.6303C15.8221 65.1059 15.0536 64.7233 14.2529 64.8856C13.1674 65.1059 12.3452 66.0215 12.1979 67.1102C12.0765 68.0097 12.53 68.763 13.1523 69.237C13.8252 69.7496 14.6689 69.8366 15.4631 69.5002C14.9526 68.3783 13.5898 69.1789 13.1255 67.7389C12.9546 67.209 13.1513 66.705 13.5457 66.2773C14.0003 65.784 14.6506 65.64 15.1934 65.8861Z" fill="#8C7A88"></path><path d="M62.487 66.748L61.7637 67.2972L63.4962 69.6679C63.7391 70 63.7617 70.4546 63.4898 70.7608C63.2813 70.9962 62.7063 71.1552 62.4526 70.8113L60.5406 68.2139L59.7893 68.749L61.7089 71.3336C62.2377 72.0462 63.1523 72.0752 63.8455 71.5959C64.6129 71.0639 64.8784 70.0913 64.3045 69.2896L62.487 66.748Z" fill="#8C7A88"></path><path d="M70.449 23.8255L71.1992 23.3785L70.2985 21.9169L71.239 21.3377L72.1342 22.6305L72.8103 22.1641L72.0063 20.824L72.8479 20.3275L73.7561 21.6085C73.9668 21.6536 74.401 21.3817 74.4483 21.1453L73.0478 19.0196L69.04 21.5881L70.4511 23.8234L70.449 23.8255Z" fill="#8C7A88"></path><path d="M9.54967 24.0147L8.7769 23.6278L8.0525 25.0367L7.00566 24.5778L7.64515 23.156L6.89173 22.8229L6.22322 24.1329L5.25591 23.7009L5.9513 22.2576L5.16241 21.8825L4.01776 24.1383L8.42652 26.2769L9.54967 24.0147Z" fill="#8C7A88"></path><path d="M74.6482 39.5244L75.4833 39.505L75.4661 37.8167L76.6698 37.7769L76.6978 39.2955L77.5082 39.2697L77.5114 37.7479L78.5475 37.7135L78.6324 39.3051L79.4718 39.2879L79.3503 36.7581L74.5504 36.929L74.6482 39.5244Z" fill="#8C7A88"></path><path d="M57.8558 71.3745C57.7762 71.2004 57.8257 70.8769 57.9536 70.7705C58.5103 70.3116 58.4684 71.253 59.4389 70.3589C59.0982 69.7044 58.3115 69.5755 57.6924 69.9269C56.9809 70.3299 56.7197 71.0983 57.054 71.7452C57.8622 73.311 59.3433 71.8033 59.8011 72.5469C59.9763 72.8317 59.8882 73.166 59.6259 73.3508C59.383 73.5228 59.0993 73.4142 58.8027 73.2616C58.592 73.2595 58.1728 73.5485 58.0589 73.728C58.6146 74.5362 59.5679 74.5372 60.245 73.9537C60.9092 73.382 60.9984 72.5566 60.561 71.9698C59.5432 70.6039 58.2083 72.1418 57.8568 71.3723L57.8558 71.3745Z" fill="#8C7A88"></path><path d="M73.7851 32.108L75.6542 31.6782L76.0852 33.5954L76.917 33.4245L76.5226 31.4525L77.5855 31.2569L78.0337 33.2289L78.885 33.0688L78.2143 30.1005L73.5852 31.1774L73.7851 32.108Z" fill="#8C7A88"></path><path d="M0.185092 33.5429L0 34.7724L5.89009 35.6589L6.07519 34.4294L0.185092 33.5429Z" fill="#8C7A88"></path><path d="M74.0753 51.8648L73.2413 51.5994L72.1955 54.2743L72.9876 54.6354L73.4229 53.6875L76.8912 55.1082L77.247 54.2205L73.7787 52.7848L74.0753 51.8648Z" fill="#8C7A88"></path><path d="M76.3453 27.286L72.7888 28.6035L73.1349 29.4858L76.6978 28.2242L77.0707 29.1097L77.8972 28.8915L76.8783 26.1468C76.6258 26.2016 76.2689 26.3274 76.1045 26.4187L76.3463 27.2849L76.3453 27.286Z" fill="#8C7A88"></path><path d="M3.88019 26.9915L7.57099 28.2972L7.8988 27.4117L4.18005 26.1081L4.41866 25.2151L3.60719 24.969L2.71083 27.6438L3.49757 27.8878L3.88019 26.9915Z" fill="#8C7A88"></path><path d="M67.69 62.7556C67.5342 62.5622 67.2988 62.3483 67.0559 62.1796L65.2041 64.2838L65.821 64.819L66.4658 64.1688L69.2162 66.7555C69.472 66.5051 69.6515 66.2988 69.8396 66.0387L67.071 63.4767L67.6889 62.7534L67.69 62.7556Z" fill="#8C7A88"></path><path d="M16.7131 10.0493L18.94 13.1562L19.6924 12.578L17.4375 9.47003L18.1683 8.88648L17.6406 8.26532L15.5061 9.85369L16.0274 10.52L16.7131 10.0493Z" fill="#8C7A88"></path><path d="M19.6193 69.3143C19.7891 69.1284 19.9794 68.8694 20.0632 68.6803L17.9254 67.1349L17.4525 67.798L18.1469 68.3525L15.9554 71.4357L16.7013 71.9559L18.9089 68.8855L19.6204 69.3154L19.6193 69.3143Z" fill="#8C7A88"></path><path d="M26.1551 71.9946L23.8034 70.8586L23.4509 71.598L24.243 72.0365L22.6416 75.4185C22.9006 75.585 23.2359 75.7377 23.496 75.7624L25.0427 72.4287L25.8262 72.7425L26.1551 71.9946Z" fill="#8C7A88"></path><path d="M39.1782 5.98164C39.1911 5.65816 39.1718 5.26805 39.1094 5.09073L37.6359 5.19175L37.3941 1.36161L36.4579 1.40782L36.7793 6.10522L39.1793 5.98056L39.1782 5.98164Z" fill="#8C7A88"></path><path d="M67.6169 67.1714L66.497 68.1827L63.9509 65.3799L63.2985 66.0312L66.4046 69.4207L68.193 67.7969C67.991 67.5411 67.7814 67.309 67.6169 67.1725V67.1714Z" fill="#8C7A88"></path><path d="M79.1148 34.389L74.3391 35.0975L74.4807 36.0511L79.2563 35.3425L79.1148 34.389Z" fill="#8C7A88"></path><path d="M21.7957 11.1433L19.327 7.23256L18.5585 7.71509L21.0068 11.6806C21.3347 11.5022 21.5539 11.3582 21.7957 11.1433Z" fill="#8C7A88"></path><path d="M25.2049 76.5609L26.0691 76.8843L27.7189 72.5878C27.4136 72.4567 27.1471 72.3621 26.8612 72.2847L25.2039 76.5598L25.2049 76.5609Z" fill="#8C7A88"></path></svg>