<svg xmlns="http://www.w3.org/2000/svg" width="119" height="101" viewBox="0 0 119 101" fill="none"><rect x="20" width="90" height="90" rx="45" fill="#FAE6DB"></rect><rect x="20" width="90" height="90" rx="45" stroke="#E5E7EB"></rect><g clip-path="url(#clip0_15206_1922)"><path d="M56.3425 71.6846C53.9984 63.703 47.912 57.4353 41.1018 53.0515H41.1486L39.8398 52.2626C37.6344 50.934 35.5381 49.7059 33.1897 48.6252C32.3512 48.2385 31.0367 47.7597 29.8087 47.7045C29.1911 47.6776 28.5622 47.7541 28.0197 48.0345C27.4659 48.3221 27.0353 48.8051 26.8059 49.5189C26.0877 51.6407 27.2605 53.8957 28.8257 55.737C29.6826 56.7441 30.6911 57.6705 31.6699 58.4424C29.8993 57.8178 28.235 57.0274 26.7804 55.8886L26.677 55.8079C25.3795 54.771 24.3838 53.2328 23.4504 51.7611L23.3427 51.5883C22.2549 49.798 21.7266 47.7328 21.1402 45.6011C20.5424 43.4269 19.8866 41.189 18.4716 39.2938C17.2748 37.6904 15.534 36.7428 13.5793 36.7853C12.4051 34.5459 10.949 32.6451 9.10482 31.3377C7.21389 29.9978 4.9377 29.2981 2.19267 29.4681L2.06094 29.4766C1.83007 29.4921 1.51704 29.4992 1.24084 29.5403C0.949052 29.5828 0.630357 29.6692 0.341407 29.8746L0.00146484 30.1168L0.236591 30.461C1.22667 31.9071 1.98729 33.0431 2.64309 34.4978C4.153 37.8391 5.3513 41.1153 6.62183 44.4099C7.89094 47.6988 9.22946 50.9949 11.0127 54.3405C16.1813 64.0345 22.9773 70.9027 32.7591 75.9735C35.9149 77.608 39.065 78.9196 42.2987 80.3347L48.8426 83.5188C48.8426 83.5188 51.827 83.5046 40.9729 77.9706C38.514 76.7171 36.1897 75.6038 33.8016 74.254C28.8696 71.4664 24.5283 68.0514 20.7875 63.7852C16.6799 59.0996 13.3626 53.9325 10.9589 48.2031L10.8456 47.9297L7.68981 40.2881C6.45469 37.291 5.23515 34.4227 3.39238 31.57C7.84845 31.9751 10.5878 35.8547 12.4122 39.774L15.3243 46.0289L15.4504 46.2966C16.7634 49.0473 18.4391 51.5317 20.4971 53.798L20.6841 54.0005C24.6387 58.2583 30.9786 62.1761 37.0409 61.526C37.1656 61.5132 37.2577 61.4552 37.3101 61.4155C37.3653 61.373 37.4106 61.3248 37.4446 61.2823C37.5126 61.1988 37.5693 61.101 37.6118 61.009C37.6557 60.9169 37.6939 60.8121 37.7166 60.7115C37.7279 60.6605 37.7378 60.601 37.7392 60.5373C37.7392 60.4792 37.735 60.3858 37.6897 60.2866C37.6373 60.1719 37.548 60.0444 37.4602 59.941C37.3766 59.8418 37.2506 59.7115 37.1061 59.6336C34.4985 58.2186 32.1231 56.6096 30.2874 54.3631C29.8172 53.788 29.2166 52.8192 28.9036 51.883C28.7478 51.4141 28.6741 50.9821 28.7039 50.6252C28.7336 50.2796 28.8583 50.0218 29.0948 49.8391C29.1515 49.7952 29.2534 49.7527 29.4305 49.7385C29.6061 49.7257 29.8285 49.7427 30.0934 49.7952C30.6245 49.9 31.2634 50.128 31.9291 50.417C33.2563 50.9934 34.6089 51.7781 35.2577 52.1634C42.8058 56.6492 49.5919 61.9707 52.997 70.2157C54.8879 74.795 55.4318 79.6406 54.3071 84.4437L54.2519 84.6717C54.1046 85.2723 53.8482 85.8205 53.5564 86.4111C53.2689 86.9933 52.9445 87.6222 52.7052 88.3374L52.2179 89.7921L53.3836 88.7964C55.3567 87.1108 56.2972 84.6944 56.8794 82.3446C57.7491 78.8318 57.3765 75.3092 56.402 71.8843L56.344 71.6831L56.3425 71.6846ZM13.16 36.9071C13.1785 36.9411 13.1969 36.9737 13.2139 37.0091L13.3258 37.2244C13.2719 37.1182 13.2153 37.0133 13.16 36.9071ZM16.085 42.5856L14.4957 38.8972C16.1317 39.4298 17.1586 41.1238 18.0042 43.3575C18.483 44.6195 18.881 45.9878 19.3059 47.3292C19.609 48.2867 19.9263 49.2286 20.2917 50.0784C18.5793 47.8037 17.2507 45.2498 16.0835 42.5856H16.085ZM36.9956 61.1039L36.8554 61.118C36.7874 61.1251 36.7194 61.128 36.65 61.1322C36.7647 61.1237 36.8795 61.1152 36.9942 61.1039H36.9956ZM33.0112 49.0119L33.2279 49.1124C33.3469 49.1677 33.4616 49.2243 33.5792 49.281C33.3908 49.1903 33.2024 49.0997 33.0112 49.0119Z" fill="black"></path><path d="M51.9006 41.1196C52.5579 38.4808 52.6428 37.2145 53.4431 34.1819L53.7732 33.0842C52.8794 34.672 51.8227 36.451 50.9828 38.2938C50.1669 40.0813 49.5366 41.9652 49.4431 43.8533L49.4361 44.036C49.3143 48.0005 51.5451 51.8716 55.5239 53.128L54.31 51.9127C52.9771 50.0133 50.878 48.3462 51.9021 41.1196H51.9006ZM49.8567 44.3178C49.8567 44.2881 49.8567 44.2569 49.8567 44.2272L49.861 44.0487C49.8582 44.1394 49.8582 44.2286 49.8582 44.3178H49.8567Z" fill="black"></path><path d="M66.1315 58.1223C71.3354 55.5387 74.1102 50.2257 74.0181 44.5926C73.9246 38.9411 71.1442 33.985 68.3637 29.3448L67.8085 28.4213C64.5366 22.9808 61.8213 17.2755 60.5026 11.1395C60.4629 10.9554 60.3397 10.8322 60.2632 10.7699C60.1754 10.6962 60.0748 10.6381 59.9799 10.5956C59.885 10.5531 59.776 10.5177 59.6683 10.5007C59.5876 10.488 59.4261 10.4724 59.2703 10.5503L59.2391 10.5673C59.1046 10.6452 58.9714 10.7798 58.8779 10.8931C58.7887 11.0021 58.6683 11.1693 58.6216 11.3421V11.3435C58.1513 13.1254 57.7505 14.699 57.1612 16.3789C55.6329 20.7443 53.5607 24.706 51.1386 28.6649C47.9077 33.9468 44.6032 39.7272 45.1061 46.2413C45.4899 51.2002 48.1131 55.5005 52.504 57.9098V57.9141L52.7307 58.0331C56.7689 60.1591 61.766 60.2384 66.0111 58.1832L66.1343 58.1223H66.1315ZM53.9998 55.9623C49.7278 53.8886 47.2718 49.4651 47.3865 44.7215L47.3978 44.4524C47.6599 38.5927 51.0225 33.3661 54.0239 28.2103C56.3156 24.274 58.1754 20.3024 59.5238 15.8661C61.2944 21.8378 63.368 25.7471 66.4615 31.1975C67.545 33.1054 68.5195 34.9624 69.4445 36.9439L69.5139 37.0941C72.419 43.4439 72.1498 50.9623 66.164 55.0855C62.5026 57.6081 58.004 57.907 53.9984 55.9623H53.9998ZM65.6286 57.8914C65.596 57.9056 65.5649 57.9198 65.5323 57.9339C65.6286 57.89 65.7264 57.8447 65.8227 57.7994L65.6286 57.8914Z" fill="black"></path><path d="M118.766 30.8717C118.475 30.6649 118.158 30.5799 117.866 30.5375C117.59 30.4978 117.277 30.4907 117.046 30.4737L116.914 30.4652C114.168 30.2952 111.892 30.995 110.002 32.3349C108.157 33.6423 106.702 35.5431 105.528 37.7825C103.573 37.7414 101.832 38.6876 100.636 40.2909C99.2205 42.1861 98.5647 44.4241 97.967 46.5983C97.382 48.73 96.8523 50.7951 95.7644 52.5855L95.6568 52.7583C94.7248 54.23 93.7276 55.7696 92.4302 56.8064L92.3268 56.8872C90.8721 58.0246 89.2078 58.8149 87.4373 59.441C88.416 58.669 89.4245 57.7427 90.2815 56.7356C91.8452 54.8943 93.0194 52.6393 92.3013 50.5175C92.0718 49.8037 91.6412 49.3206 91.0874 49.0331C90.5449 48.7527 89.9146 48.6748 89.2985 48.7031C88.069 48.7583 86.7546 49.2371 85.9175 49.6238C83.569 50.7045 81.4727 51.9325 79.2674 53.2611L77.9586 54.0501H78.0053C71.1952 58.4339 65.1088 64.7002 62.7646 72.6831L62.7065 72.8843C61.732 76.3092 61.3595 79.8318 62.2292 83.3446C62.8099 85.6958 63.7519 88.1108 65.7249 89.7964L66.8907 90.7921L66.4034 89.3374C66.164 88.6221 65.8397 87.9933 65.5521 87.4111C65.2603 86.819 65.004 86.2723 64.8567 85.6717L64.8014 85.4437C63.6768 80.6406 64.2207 75.795 66.1116 71.2157C69.5167 62.9707 76.3028 57.6492 83.8509 53.1634C84.4996 52.7781 85.8523 51.9934 87.1795 51.417C87.8452 51.128 88.484 50.8985 89.0152 50.7951C89.2801 50.7427 89.5024 50.7243 89.6781 50.7385C89.8551 50.7527 89.9571 50.7951 90.0138 50.8391C90.2503 51.0204 90.375 51.2796 90.4047 51.6252C90.4359 51.9821 90.3622 52.4141 90.205 52.883C89.8934 53.8192 89.2914 54.788 88.8211 55.3631C86.9855 57.6096 84.6101 59.2186 82.0025 60.6336C81.858 60.7115 81.7305 60.8433 81.6484 60.941C81.5606 61.0444 81.4713 61.1719 81.4189 61.2852C81.3736 61.3857 81.3679 61.4792 81.3693 61.5373C81.3693 61.601 81.3807 61.6605 81.392 61.7115C81.4147 61.8135 81.4529 61.9169 81.4968 62.009C81.5393 62.0996 81.596 62.1988 81.6639 62.2823C81.6979 62.3248 81.7419 62.373 81.7985 62.4155C81.8509 62.4551 81.943 62.5132 82.0676 62.526C88.1313 63.1761 94.4698 59.2583 98.4245 55.0005L98.6115 54.798C100.67 52.5317 102.347 50.0473 103.658 47.2966L103.784 47.0289L106.696 40.7739C108.522 36.8533 111.26 32.9751 115.716 32.57C113.873 35.4227 112.655 38.291 111.419 41.2881L108.263 48.9297L108.15 49.2031C105.746 54.9339 102.429 60.0996 98.3211 64.7852C94.5817 69.0514 90.2404 72.4664 85.307 75.2539C82.9189 76.6038 80.5946 77.7171 78.1356 78.9706C67.2816 84.5046 70.266 84.5188 70.266 84.5188L76.8099 81.3347C80.0421 79.9196 83.1937 78.608 86.3495 76.9735C96.1313 71.9027 102.927 65.0359 108.096 55.3404C109.879 51.9949 111.218 48.6974 112.487 45.4099C113.757 42.1167 114.956 38.8391 116.465 35.4978C117.123 34.0431 117.882 32.9071 118.872 31.461L119.107 31.1168L118.767 30.8746L118.766 30.8717ZM85.5251 50.2767C85.6427 50.2201 85.7574 50.1634 85.8764 50.1082L86.0931 50.0076C85.9019 50.0954 85.7135 50.1861 85.5251 50.2767ZM82.2489 62.1138L82.1087 62.0996C82.2234 62.1124 82.3382 62.1195 82.4529 62.128C82.3849 62.1223 82.3155 62.1195 82.2475 62.1138H82.2489ZM103.019 43.5813C101.852 46.2442 100.524 48.798 98.8112 51.0742C99.1766 50.2243 99.4939 49.2824 99.797 48.3249C100.222 46.9836 100.62 45.6153 101.099 44.3533C101.946 42.1196 102.971 40.4269 104.607 39.8929L103.018 43.5813H103.019ZM105.78 38.2187L105.892 38.0034C105.91 37.9694 105.929 37.9354 105.946 37.9014C105.89 38.0063 105.835 38.1111 105.78 38.2187Z" fill="black"></path></g><defs><clipPath id="clip0_15206_1922"><rect width="118.98" height="99.1496" fill="white" transform="translate(0 1)"></rect></clipPath></defs></svg>