<svg xmlns="http://www.w3.org/2000/svg" width="108" height="90" viewBox="0 0 108 90" fill="none"><rect x="3" width="90" height="90" rx="45" fill="#E0DCFA"></rect><rect x="3" width="90" height="90" rx="45" stroke="#E5E7EB"></rect><path d="M106.141 27.3014C102.309 29.8756 98.2551 31.5034 93.6852 32.314C96.3822 33.466 99.1381 33.5071 101.957 32.9462C87.6162 62.2454 45.785 85.9862 13.3057 79.7681C-2.54378 75.8664 -1.48003 63.5126 10.6662 55.2045C-2.4411 61.8847 -4.69456 76.0927 10.8523 81.2726C44.0928 90.4145 90.1517 65.4792 104.59 34.8456C105.155 37.0948 106.056 39.2246 107.435 41.268C107.325 36.9576 106.393 32.7967 106.139 27.3L106.141 27.3014Z" fill="black"></path><path d="M17.5511 54.6216L18.0481 72.948H18.0453C17.9262 75.2328 19.1556 76.9992 21.3899 77.5519C22.8493 77.9016 24.4004 77.9661 25.9776 77.4134L26.9455 77.0733L23.0163 76.3382C21.9252 76.1503 20.5069 75.0079 20.4822 73.8216C19.5787 53.9716 20.0222 33.8884 20.6123 14.0575C20.678 12.6148 21.7199 11.6177 23.0971 11.5231C25.8968 11.3338 28.6801 11.3832 31.4579 11.3585L31.9234 8.83098C28.8786 8.67738 25.801 8.4415 22.7617 8.79121C20.0085 9.10938 17.9468 11.0911 17.8865 13.9135C17.5415 23.3928 17.4977 44.9585 17.5511 54.623V54.6216ZM31.232 11.0856C30.9965 11.087 30.5926 11.0897 30.3626 11.0897C30.6529 11.0897 30.9431 11.087 31.232 11.0856ZM22.6713 9.07921L22.7946 9.06412C22.7316 9.07098 22.67 9.08058 22.6084 9.08881C22.6303 9.08607 22.6508 9.08195 22.6727 9.07921H22.6713ZM20.3371 14.1178C20.3234 14.6815 20.2947 15.8952 20.281 16.4424C20.3001 15.6676 20.3193 14.8927 20.3371 14.1178Z" fill="black"></path><path d="M38.2196 15.3137C44.4187 15.4756 50.5575 15.5002 56.8743 15.3274C58.8073 15.2356 60.3065 13.9121 60.8185 12.409C61.4373 10.5878 60.9102 8.69521 59.4604 7.49247C58.3405 6.56264 56.9468 6.27875 55.5613 6.29795C54.1567 -2.12125 41.2 -2.07736 39.7393 6.29795C36.2865 6.02092 33.1993 8.87624 34.3493 12.4036C34.8654 13.8984 36.3235 15.263 38.2196 15.3137ZM60.5597 12.3199C60.5419 12.3748 60.5173 12.4378 60.494 12.49C60.5173 12.4337 60.5406 12.3761 60.5597 12.3199ZM56.187 15.071C55.8612 15.0792 55.5367 15.0847 55.2109 15.0916C55.7325 15.0806 56.2527 15.0696 56.7757 15.0559L56.187 15.071ZM55.3094 6.44744L55.33 6.57772C55.3204 6.5119 55.3094 6.44607 55.2985 6.38161C55.3026 6.40355 55.3067 6.4255 55.3108 6.44744H55.3094ZM50.578 0.738182C50.5985 0.74504 50.6177 0.753268 50.6382 0.761497C50.578 0.738182 50.5164 0.714868 50.4548 0.694297L50.578 0.738182ZM36.8725 9.88287C37.6994 8.29338 39.7023 8.8543 41.1097 8.59784C41.5793 8.50732 41.9571 8.15487 41.9708 7.64058C42.1351 3.40561 47.0294 1.05498 50.5766 3.12173C52.2565 4.04744 53.2066 5.70687 53.2422 7.64881C53.2381 8.03007 53.4557 8.36607 53.7953 8.50458C54.4839 8.7775 55.3327 8.63624 56.0953 8.70618C57.4944 8.72264 58.7663 9.63464 58.6006 11.098C58.5198 11.9592 57.7463 12.7725 56.7223 12.8054C50.6191 13.0372 44.509 13.081 38.4619 12.8164C36.9382 12.719 36.1154 11.2488 36.8711 9.8815L36.8725 9.88287Z" fill="black"></path><path d="M63.7085 11.2159L63.7209 11.4737L71.9529 11.5793C73.4986 11.6452 74.5829 12.7396 74.5801 14.244C74.6212 28.2381 73.4055 46.5274 73.9627 60.4159L76.5981 58.4164L76.6255 51.5702C76.8158 43.3608 77.3087 22.0625 77.3908 14.1549C77.3703 10.2394 73.975 8.44973 70.4224 8.70481L63.343 8.90915C63.5347 9.69772 63.6757 10.4068 63.7085 11.2145V11.2159Z" fill="black"></path><path d="M77.0759 73.9601L76.9294 69.8582L77.0759 69.7553L76.3517 69.0312L76.3709 69.5825L74.2516 71.0815L74.4104 80.5293C74.435 82.0022 73.3726 83.2461 71.9379 83.3462C67.7157 83.556 35.1201 84.7985 30.0847 84.9974L30.0601 85.5432C30.0751 85.5459 31.9275 85.7887 31.9412 85.7914C39.4449 85.9011 64.5368 86.3263 71.5943 86.2234C74.5733 86.2221 76.976 84.095 77.1444 81.0696C77.2772 78.6984 77.1608 76.3327 77.0759 73.9629V73.9601ZM76.8623 81.1862C76.861 81.2095 76.8569 81.2314 76.8555 81.2534C76.861 81.1862 76.8678 81.1203 76.8719 81.0518L76.8623 81.1862Z" fill="black"></path><path d="M54.4131 20.5591C51.4984 19.5662 48.4221 20.4782 46.4233 22.7315C44.8654 20.8992 42.6297 20.0393 40.2777 20.1751C32.3345 21.0281 32.6808 30.2771 37.6847 34.4366C40.1558 36.7214 43.458 38.3136 46.3946 39.4176C50.5305 37.8281 58.6886 34.2309 58.8296 27.2613C58.9816 24.2249 57.2922 21.5411 54.4131 20.5591ZM56.327 27.7811C55.7246 32.2985 50.1718 35.9973 46.4918 37.8926C42.5736 36.1289 37.478 32.6428 36.5703 28.1472C35.497 22.7164 42.1382 20.3932 45.4896 24.9641C45.9291 25.5059 46.7916 25.632 47.2667 25.0259C50.0842 20.8238 56.9609 22.1157 56.3284 27.7811H56.327Z" fill="black"></path><path d="M42.068 47.0596C41.2575 47.098 40.547 47.3201 39.7338 47.5601C40.1349 47.9784 40.5922 48.409 41.174 48.4269C46.093 48.7834 50.8778 48.9329 55.8201 48.9453L63.4607 48.9672C63.7838 48.9672 64.0809 48.7971 64.2849 48.5901C65.0105 47.8659 64.4601 46.991 63.6237 46.6591C56.4156 46.5027 49.2925 46.596 42.068 47.0596ZM42.0762 47.3338C42.3103 47.3188 42.8552 47.2845 43.0825 47.2721C42.7471 47.2927 42.4116 47.3119 42.0762 47.3338ZM64.352 47.8426C64.352 47.8426 64.352 47.8563 64.352 47.8632C64.352 47.844 64.352 47.8248 64.352 47.8056V47.8426ZM63.6415 46.9704C63.6551 46.9773 63.6675 46.9855 63.6812 46.9923C63.6415 46.9704 63.6018 46.9498 63.5593 46.9306L63.6415 46.9704Z" fill="black"></path><path d="M63.4224 64.2737C64.0275 64.2436 64.5491 63.7046 64.6409 63.1519L64.6737 62.8488H64.6094C64.456 62.3716 64.0604 61.9519 63.5155 61.93L50.4698 61.9588C49.7675 61.9505 43.4028 62.1604 41.5108 62.4292C40.9522 62.5101 39.6119 62.6061 40.1404 63.2849C40.7633 63.7114 41.5163 63.695 42.2966 63.8074C43.3097 63.9953 61.9425 64.2161 63.4224 64.2737Z" fill="black"></path><path d="M37.7665 59.6657C37.2448 59.1651 36.3317 59.1761 35.8525 59.737L32 64.4561L29.9013 62.3702C29.9013 62.3702 29.878 62.3496 29.878 62.3482C29.4303 61.9958 28.6746 62.1123 28.2434 62.3866C27.9969 62.5841 27.9038 62.8845 27.8477 63.1848C27.8025 63.5002 27.8053 63.839 28.0188 64.1037C28.969 65.2036 29.9054 66.2061 30.9705 67.225C31.3881 67.6845 31.8796 67.908 32.4258 67.7585C32.8215 67.657 33.1692 67.3951 33.4006 67.092L37.7692 61.3759C38.1416 60.8712 38.1881 60.1279 37.7651 59.6657H37.7665ZM33.1459 66.9741C33.1391 66.9823 33.1309 66.9905 33.124 66.9987C33.1446 66.9741 33.1651 66.9507 33.1843 66.9261L33.1459 66.9741ZM37.5721 59.8591C37.5816 59.8687 37.6022 59.8906 37.609 59.9016C37.5967 59.8865 37.5844 59.8714 37.5721 59.8591Z" fill="black"></path><path d="M29.9341 47.1501C29.4166 46.7194 28.5774 46.8771 28.1338 47.3091C27.9134 47.5478 27.8299 47.892 27.8518 48.2157C27.8737 48.5407 28.001 48.8835 28.2529 49.1469L31.0143 52.031C31.3826 52.415 31.8467 52.5494 32.2916 52.4822C32.7284 52.4163 33.1336 52.1585 33.4143 51.7882L37.8965 45.8829C38.1772 45.4605 38.0101 44.9064 37.7938 44.5018C37.594 44.1069 37.1298 44.0191 36.6959 44.0698C36.4262 44.1 36.099 44.2029 35.9032 44.4429L31.9918 49.21L29.9601 47.172L29.9355 47.1487L29.9341 47.1501ZM28.3282 47.5025C28.3118 47.5203 28.2968 47.5409 28.2817 47.5615C28.305 47.5286 28.3296 47.4984 28.3597 47.471C28.3488 47.482 28.3365 47.4915 28.3269 47.5025H28.3282ZM37.3804 44.4374C37.3804 44.4374 37.3886 44.4442 37.3941 44.4484C37.3804 44.4388 37.3681 44.4292 37.3544 44.4223L37.3804 44.4387V44.4374ZM33.1966 51.6237C33.1801 51.6442 33.1432 51.6909 33.1254 51.7101C33.15 51.6826 33.1747 51.6538 33.1966 51.6237Z" fill="black"></path><path d="M56.3581 66.9905C56.3362 66.4351 55.9077 65.8413 55.2779 65.8097C50.5534 65.6657 45.7644 65.8769 41.0645 66.2842V66.2815C40.9112 66.2966 40.6428 66.3034 40.5141 66.3871C40.2704 66.5242 39.9022 66.7519 40.0774 67.1194C40.2609 67.3663 40.5196 67.5706 40.8318 67.6269C45.5906 68.0328 50.3644 68.1411 55.1465 68.0753C55.7612 68.0589 56.3321 67.6008 56.3595 66.9905H56.3581ZM55.2697 66.084C55.2862 66.084 55.3231 66.0867 55.3382 66.0909C55.3149 66.0881 55.293 66.0854 55.2697 66.084Z" fill="black"></path><path d="M56.3266 51.433C56.2075 50.953 55.7763 50.532 55.2287 50.506C50.6013 50.3894 45.5536 50.5677 41.1617 50.9572C41.0001 50.9764 40.6004 50.9818 40.4662 51.0861C40.1924 51.2218 39.8282 51.6113 40.176 51.8774C40.4607 52.0433 40.7729 52.0872 41.1384 52.1544C41.5738 52.2271 42.131 52.2902 42.7717 52.345C45.8507 52.633 53.045 52.7537 55.0165 52.7236V52.7263C55.8009 52.7866 56.4348 52.1942 56.3335 51.4755L56.3266 51.4344V51.433ZM56.0624 51.5098C56.0638 51.5249 56.0679 51.5537 56.0679 51.5688C56.0679 51.5482 56.0651 51.529 56.0624 51.5098Z" fill="black"></path></svg>