<svg xmlns="http://www.w3.org/2000/svg" width="115" height="96" viewBox="0 0 115 96" fill="none"><rect x="13" y="6" width="90" height="90" rx="45" fill="#D0D4CC"></rect><rect x="13" y="6" width="90" height="90" rx="45" stroke="#E5E7EB"></rect><path d="M98.8187 31.3816L89.0635 24.0606L89.1512 18.5515L89.2141 10.5497C89.2273 8.96293 87.8803 7.99397 86.3677 7.989L78.0886 7.96912C77.2297 7.96747 76.8657 9.09047 76.9914 9.62382C77.2066 10.5431 77.8834 10.5249 78.7042 10.5298L85.9937 10.5862C86.2238 10.5878 86.5431 11.0118 86.5398 11.2454L86.3975 21.9636L79.5614 16.8273L59.576 1.77106C58.2902 0.802096 56.6453 0.919697 55.3959 1.85719L39.2281 13.9916L28.0083 22.4672L18.1621 29.8611L3.97021 40.2481C7.27326 39.3603 10.0253 37.7983 12.8302 36.1188C17.4505 33.3527 21.7961 30.2917 26.1367 27.0652L56.771 4.29203C57.1533 4.00713 57.7043 3.81334 58.0816 4.09492L73.8638 15.9577L88.3684 26.7786L96.6707 32.8309C96.1859 35.6997 95.9724 38.4675 95.9674 41.3893L95.941 57.6497L96.0187 75.1937C96.0336 78.4352 95.3882 81.5094 93.9452 84.3732C91.3951 89.435 85.8134 92.6036 80.5278 94.1076C79.7699 94.3544 79.05 94.6095 78.4096 94.9026C85.115 94.0033 91.8022 91.146 95.3965 85.4449C98.1965 81.0025 98.453 75.8795 98.6234 70.7117L98.64 44.5728C98.6416 41.1176 98.827 37.8861 99.0884 34.3813C102.893 36.7316 106.558 39.1151 111.031 40.2696L98.8204 31.3833L98.8187 31.3816Z" fill="black"></path><path d="M18.3524 78.1636C18.6685 69.7891 18.819 61.5769 18.7115 53.1858C18.6453 48.0578 18.5526 43.1301 18.0479 38.0733C17.9585 37.1871 17.3595 36.5726 16.5801 36.667C15.7295 36.7714 15.3522 37.4141 15.4349 38.2737C15.8155 42.2605 16.0108 46.1314 16.0489 50.1166L16.1581 61.3003L16.259 79.8249C16.2805 83.8879 16.9061 87.7356 21.0729 89.5079C23.0521 90.351 25.215 90.7055 27.3894 90.6442L30.7206 90.5498C27.2124 90.2914 23.0703 90.1042 20.3415 87.7174C17.7368 85.4399 18.2233 81.5657 18.3524 78.1636Z" fill="black"></path><path d="M83.1441 49.8516C81.6763 44.0395 74.5307 41.1988 69.7731 43.0672C66.5197 44.3459 64.7159 47.478 65.3745 50.9431C65.6856 52.5813 66.4799 54.1084 67.6267 55.3623C66.8655 53.4641 66.0894 51.8525 66.3227 49.8251C66.5345 47.9816 67.5241 46.1712 69.3411 45.4093C72.5648 44.0577 76.5959 44.9604 78.7356 47.7911C81.5869 51.5626 80.2713 56.7867 76.3262 59.2315C74.352 60.4555 72.1577 61.1098 69.7946 61.3566C64.9989 61.8601 60.2991 61.9711 55.4769 62.0572C50.4231 62.1483 45.4106 63.3542 43.3023 68.4789C42.1274 71.3344 42.5924 74.5329 45.1375 76.5818C48.0302 78.9106 51.6592 80.0121 55.3032 79.7106C51.7238 78.9802 45.4569 76.9064 44.843 72.4293C44.8612 69.3021 46.9446 66.7199 49.9184 65.741C54.8398 64.1194 66.9615 66.6453 75.6047 63.3392C81.1732 61.2092 84.6533 55.8277 83.1458 49.8532L83.1441 49.8516Z" fill="black"></path><path d="M45.7697 57.1975C49.9663 55.6041 53.506 52.4918 56.5807 49.199C58.7651 46.8602 60.1734 43.9765 60.4381 40.8675C60.7724 36.9354 58.7055 33.4057 55.184 32.2164C51.5997 31.0056 47.7969 32.2578 45.5347 35.5291C44.1843 34.0815 42.8257 32.879 41.0484 32.238C36.2991 30.5236 31.3825 33.404 30.5204 38.4128C29.9296 41.8481 30.9887 45.2072 33.2475 47.9981C36.4761 51.9833 40.6298 55.4931 45.4602 57.4493C41.4638 53.8865 37.5981 51.175 35.0133 46.8039C33.7506 44.6689 32.7776 42.5106 33.001 39.9615C33.0837 36.7217 35.6437 34.3283 38.9005 34.4475C43.1335 34.6032 44.5285 38.1776 45.4718 38.4062C46.1139 38.5619 47.1597 35.2012 50.8798 34.5221C54.532 33.8546 57.7027 36.2248 57.8351 39.9963C58.0701 46.741 50.8566 52.9407 45.768 57.1975H45.7697Z" fill="black"></path></svg>