<svg xmlns="http://www.w3.org/2000/svg" width="113" height="94" viewBox="0 0 113 94" fill="none"><rect x="4" y="1" width="90" height="90" rx="45" fill="#A1474B" fill-opacity="0.21"></rect><rect x="4" y="1" width="90" height="90" rx="45" stroke="#E5E7EB"></rect><path d="M14.1308 69.5787C15.3055 70.377 16.647 70.6512 18.0542 70.8404C21.8686 70.8788 25.6077 71.1369 29.4751 70.5293C25.3305 70.2344 21.4311 70.0452 17.3955 69.4953C15.562 69.125 14.2381 67.7062 14.2397 65.7152L14.2494 38.0533L15.1934 38.8468C18.6312 41.7356 25.8369 42.9027 30.2668 43.2137C34.9499 43.5424 39.4855 43.6001 44.2344 43.6209L44.2504 46.5274C44.2552 47.4973 44.9668 48.5409 46.0807 48.5409L53.3057 48.5441C54.458 48.5441 55.2962 47.6335 55.3251 46.4969L55.3988 43.6081C60.7406 43.5921 65.7907 43.5424 70.9979 43.0229C75.9711 42.526 81.6303 41.3829 85.4174 38.0484L85.4078 52.9046L88.1581 49.9997L88.1308 27.3861C87.9497 24.3417 85.871 21.6325 82.6928 21.6244L63.805 21.578C64.2281 16.7622 61.3176 12.7944 56.7723 11.6242C54.5574 11.0534 52.344 10.9011 50.0089 10.9669C47.8036 10.9188 45.6848 11.0182 43.5388 11.4446C38.5239 12.6293 35.5076 16.161 35.934 21.5715L17.0028 21.618C13.9096 21.626 11.52 24.159 11.5168 27.2995L11.4959 62.8199C11.4959 65.449 11.8838 68.0493 14.1324 69.5771L14.1308 69.5787ZM53.7512 46.1971C53.6374 46.5739 53.2832 46.8752 52.8265 47.0243L46.9477 47.0083C46.3916 47.0083 45.8803 46.5963 45.8803 46.0288L45.8723 39.6211C46.0871 39.1065 46.5615 38.834 47.1112 38.834L52.5556 38.842C53.3938 38.842 53.7624 39.4432 53.7624 40.1774L53.7512 46.1971ZM43.2727 14.4264C45.4011 13.7868 47.5936 13.7563 49.847 13.7323C51.9802 13.7563 54.0333 13.8028 56.0575 14.3174C59.4216 15.1751 61.5259 18.128 61.0836 21.5812H38.6073C38.0928 18.3637 40.0946 15.3787 43.2743 14.4248L43.2727 14.4264ZM82.4348 23.327C84.2282 23.327 85.4206 24.8419 85.4142 26.4402L85.3758 34.4751C83.6577 38.717 75.1537 40.2624 71.0909 40.7802C65.8452 41.4487 60.6829 41.7116 55.3876 41.8366L55.3635 39.4207C55.3539 38.345 54.4644 37.2341 53.2432 37.2341H46.3579C45.2377 37.2357 44.2937 38.252 44.2696 39.3037L44.2135 41.8046C37.3555 41.6811 29.6241 41.3156 23.0258 39.7959C19.947 39.0873 15.4883 37.5162 14.2269 34.3196L14.2221 26.2943C14.2221 24.6592 15.4866 23.3222 17.2256 23.3222L82.4348 23.327Z" fill="black"></path><path d="M111.187 33.2327C111.139 32.4119 110.654 26.1212 108.868 27.455C105.567 29.9222 101.97 31.5766 97.9827 32.8399C100.512 33.2054 102.783 32.8495 105.158 32.9473C99.9315 43.9832 93.2739 52.3756 83.9349 59.9215C71.0668 70.3177 55.1776 77.1118 38.8252 79.5309C30.3886 80.7781 20.9615 80.9448 12.8149 78.3959C9.45728 77.3458 6.01467 75.6064 3.91833 72.7288C0.385969 67.8794 2.97273 61.8292 6.56279 57.8743C6.96988 57.427 7.38017 57.0471 7.54845 56.4186C2.16177 60.5066 -1.6094 68.3058 3.02402 74.2646C5.49379 77.4404 9.47811 79.3674 13.2941 80.5296C18.0718 81.9837 22.8799 82.5031 27.89 82.5432C33.1597 82.5848 38.2162 82.1921 43.4202 81.2719C58.5177 78.6059 72.8619 72.4595 85.0889 63.1935C94.9744 55.7021 102.916 46.2645 108.176 34.8182C109.368 36.5928 110.274 38.454 111.069 40.4419C111.264 37.9795 111.324 35.6454 111.184 33.2343L111.187 33.2327Z" fill="black"></path><path d="M56.8653 70.1927L52.7271 73.9135C53.9596 73.4887 54.9068 72.8491 55.9581 72.187C58.4103 70.6448 60.5852 68.8204 62.1814 66.3869C63.7232 64.0351 64.3932 61.22 63.486 58.5123C62.7055 56.1846 60.5146 54.6472 58.0833 54.2817C54.5365 53.7494 51.1068 55.6395 49.4175 58.647C47.8805 56.207 45.3915 54.543 42.4922 54.3057C39.4551 54.0572 36.6055 55.4247 35.107 58.0298C31.0185 66.3003 40.8575 73.2274 48.0023 74.9187C45.5245 73.2851 43.1477 71.8712 41.1027 69.8448C39.609 68.4838 38.4358 67.0105 37.5302 65.199C36.8795 63.5445 36.567 61.6753 37.1937 59.9487C38.2819 56.9525 41.5787 55.585 44.5373 56.6142C48.1754 57.8791 48.6979 60.4585 49.4496 60.521C49.6178 60.5355 49.956 60.3046 50.0377 60.1555C51.3119 57.8182 53.5942 56.3305 56.2514 56.3241C58.6843 56.3176 60.7422 57.7861 61.3288 60.1732C62.2311 63.8427 59.42 67.897 56.8653 70.1927Z" fill="black"></path></svg>