<svg xmlns="http://www.w3.org/2000/svg" width="71" height="73" viewBox="0 0 71 73" fill="none"><ellipse cx="36" cy="32.9799" rx="33" ry="32.9799" fill="#E0DCFA"></ellipse><path d="M29.3361 40.8963C28.1773 40.3547 24.9018 38.3153 26.0652 36.768C26.9931 35.5339 28.7612 36.4556 30.3772 35.8598C30.7375 35.7271 31.1178 35.3326 31.1766 35.0482C31.4129 33.9188 29.375 32.0943 27.9627 31.8957C25.6587 31.5707 23.2297 32.7208 22.031 34.7187C21.0035 36.4312 21.3566 38.4922 22.4765 40.0712C25.6795 44.5868 32.2078 45.9247 36.8068 48.6908C37.6461 49.1955 38.4093 49.8987 38.7705 50.806C39.1281 51.7052 38.5333 52.4192 37.9666 53.0801C38.6854 52.8246 39.2078 52.0076 39.2304 51.2122C39.2965 48.8813 35.2008 46.7697 33.3748 45.8642L30.399 44.3891C28.5286 43.462 26.7306 42.4825 25.1617 41.1058C23.6588 39.7868 22.1496 37.5371 23.102 35.5194C23.9521 33.7202 25.9493 32.4798 27.9763 32.775C29.0238 32.9276 30.0323 33.7076 30.5284 34.5806C30.7258 34.9281 30.0776 35.3398 29.7888 35.3804L27.033 35.7632C26.4536 35.8435 25.8542 36.2471 25.6225 36.6181C24.6891 38.1131 26.2499 39.9294 27.5372 40.8593C29.165 42.0347 30.905 42.8562 32.741 43.6588C34.7373 44.5318 36.6285 45.4526 38.4708 46.6054C39.5771 47.2969 40.5757 48.1157 41.2293 49.209C42.0215 50.5352 41.9409 52.0708 41.0093 53.2678C40.181 54.3322 39.1217 55.0174 37.9955 55.9816C39.5862 55.6159 40.9206 54.6599 41.9138 53.4601C43.1287 51.9913 43.1314 49.9935 42.0441 48.457C40.3186 46.0186 36.8947 44.4316 34.2086 43.1758L29.3352 40.8963H29.3361Z" fill="black"></path><path d="M67.4529 16.7572C64.2617 17.79 60.9591 17.9967 57.6782 17.1806L52.7659 15.9601C49.5438 15.1593 46.3317 15.2649 43.8738 17.7042L41.8649 19.6975C40.6083 20.9443 39.129 21.7585 37.4813 22.4338C38.4201 22.7742 39.291 22.5259 40.1421 22.2325C43.9915 20.9081 44.5455 16.3067 50.8113 17.1391C56.5972 17.9073 60.176 20.0767 66.6825 18.2712C67.4647 18.0536 68.1537 17.8956 68.9458 17.7457C68.5312 18.6413 68.1102 19.0421 67.5788 19.5802C65.7537 21.2602 63.4614 22.1738 60.9563 22.3887C59.0117 22.5557 57.1911 22.246 55.1876 22.0989C56.7258 22.6189 58.2748 22.8744 59.9279 23.0468C63.9376 23.4016 67.7807 21.6457 70.0376 18.347C70.503 17.6672 70.8162 17.0425 71 16.1885C69.68 16.1939 68.6154 16.3808 67.452 16.7572H67.4529Z" fill="black"></path><path d="M15.8767 22.1359C15.6014 22.0835 15.2683 22.0501 15.0347 22.0899C12.5387 22.5187 10.0201 22.6433 7.58299 21.921C5.29524 21.2431 3.24649 19.897 2.00167 17.7132C7.41369 19.2082 9.92687 19.3942 15.2882 18.0888C17.9752 17.4343 21.6155 16.4972 24.2228 17.4578C26.8202 18.4156 27.6703 20.7357 30.5347 22.0628C31.5197 22.5196 32.5835 22.8175 33.5938 22.3869C29.4647 21.0977 28.3919 18.2793 25.7528 16.5992C24.0499 15.515 21.993 15.3038 19.9877 15.6387C13.8406 16.666 10.337 19.0259 3.48097 16.7662C2.36561 16.3988 1.24663 16.1939 0 16.2616C0.926146 19.0539 3.04913 21.0381 5.63111 22.1738C9.09941 23.6995 12.4274 23.0676 15.8758 22.1359H15.8767Z" fill="black"></path><path d="M42.8472 41.0173C41.3244 42.181 39.6423 42.9357 37.9367 43.8204C40.0072 43.4123 41.8468 42.5412 43.6167 41.4876C45.1132 40.5966 46.7953 38.7423 46.0366 37.0144C44.8814 34.3828 40.5974 36.2859 40.2597 34.8667C40.9903 33.5649 42.4615 32.8996 43.9607 33.0838C45.4889 33.2715 46.9229 34.1581 47.7558 35.4409C48.4991 36.5865 48.3914 37.9885 47.8762 39.2289C46.5644 42.3841 43.2645 44.0379 40.5123 45.6972C44.4396 44.8396 51.0503 40.5758 49.581 35.9564C48.997 34.1192 47.4245 32.924 45.6482 32.3209C43.5452 31.6068 41.4403 32.265 40.1185 34.0461C39.7908 34.4876 39.6649 35.1177 39.942 35.6314C40.7242 37.0821 44.2124 35.8688 44.8081 37.5353C45.2444 38.7559 43.8285 40.2671 42.8472 41.0173Z" fill="black"></path><path d="M34.9627 42.6405C35.2886 42.9005 35.6263 43.0873 36.0102 43.1559L36.451 18.3488L34.5843 18.3623L34.9627 42.6396V42.6405Z" fill="black"></path><path d="M35.505 17.7042C37.6379 17.7042 39.368 15.9799 39.368 13.8521C39.368 11.7243 37.6379 10 35.505 10C33.372 10 31.642 11.7243 31.642 13.8521C31.642 15.9799 33.3711 17.7042 35.505 17.7042ZM35.3529 11.272C36.8231 11.272 38.0145 12.46 38.0145 13.9261C38.0145 15.3922 36.8231 16.5803 35.3529 16.5803C33.8826 16.5803 32.6912 15.3922 32.6912 13.9261C32.6912 12.46 33.8826 11.272 35.3529 11.272Z" fill="black"></path><path d="M31.9471 47.1191C31.7995 46.9873 31.2309 46.7246 31.0399 46.8447C30.3311 47.2897 29.5353 47.9054 29.031 48.5373C27.6594 50.2553 27.7961 52.4788 29.2492 54.1029C32.6369 57.89 38.804 58.614 37.6678 62.2025C38.4065 61.5534 38.2472 60.6579 37.8869 59.7642C37.3555 59.0302 36.7661 58.3306 36.0274 57.8395L32.1743 55.2792C31.2979 54.6969 30.5121 53.9873 29.8938 53.1604C28.936 51.8794 28.9224 50.2544 29.9237 49.0059C30.5094 48.2746 31.2192 47.7212 31.948 47.1182L31.9471 47.1191Z" fill="black"></path><path d="M39.8614 58.1473C38.9135 56.9845 37.7746 56.0619 36.4873 55.2639L33.7351 53.5585C33.2281 53.2444 32.7519 52.6838 32.4513 52.2053C31.9 51.3278 32.1924 50.5731 32.8325 49.6839C31.7144 50.1786 31.4772 51.577 32.1155 52.6494C32.5735 53.4195 33.2525 54.0903 34.003 54.6247L37.5791 57.1705C38.4337 57.779 39.1145 58.6411 39.5916 59.5547C40.8102 61.8893 38.4817 63.5621 36.9979 64.7068C37.7502 64.4622 38.326 64.1733 38.8836 63.8275C40.9089 62.5447 41.3814 60.0097 39.8614 58.1473Z" fill="black"></path><path d="M34.405 64.8522C32.5247 63.786 30.0042 62.1466 30.9956 59.5619C31.3097 58.7431 31.9643 58.0606 32.5591 57.2843C30.6434 57.7835 29.4918 59.8923 30.0902 61.7557C30.4406 62.848 31.2753 63.7372 32.2331 64.3538C33.6273 65.2521 35.0342 65.9761 36.4782 66.7976C37.9195 67.6182 39.0122 68.7891 38.5559 70.5721C40.2788 67.8223 36.4157 65.9905 34.4059 64.8503L34.405 64.8522Z" fill="black"></path><path d="M21.5422 24.7855C17.7887 26.0873 15.4847 26.9693 11.6705 25.6874C8.14248 24.5021 8.54807 23.1127 6.85058 23.1398C7.95689 25.9248 12.6284 27.269 15.2936 27.0289C17.5986 26.8213 19.7071 25.9095 21.5422 24.7855Z" fill="black"></path><path d="M60.8377 25.0798C59.1457 25.9022 57.2816 26.3798 55.3651 26.3031C53.2819 26.2191 51.483 25.4445 49.408 24.7801C51.3346 25.9185 53.5336 26.8917 55.9318 27.0461C58.368 27.2022 63.216 25.9013 64.1286 23.128C62.8258 22.9583 62.8801 24.0886 60.8377 25.0807V25.0798Z" fill="black"></path><path d="M54.6046 27.6617C51.1119 29.1928 47.5032 28.4661 44.2196 27.3711C46.7726 29.4989 54.1012 30.5596 55.8521 27.3422C55.4076 27.2826 54.9993 27.4171 54.6046 27.6626V27.6617Z" fill="black"></path><path d="M27.1679 27.0452C24.0626 28.6846 19.7542 29.08 16.571 27.7367C16.0758 27.5281 15.6856 27.214 15.0709 27.3277C17.1224 30.7167 24.8231 29.3653 27.167 27.0443L27.1679 27.0452Z" fill="black"></path><path d="M35.9767 48.8046L34.9826 48.4137L35.0632 53.6416L35.878 54.0848L35.9767 48.8046Z" fill="black"></path><path d="M49.0459 29.6009C48.1496 29.2921 47.4154 29.3779 46.6395 29.5548C44.5528 29.748 42.5792 29.3942 40.5051 28.9166C42.1111 29.9719 47.5802 30.8476 49.0459 29.6009Z" fill="black"></path><path d="M30.5746 28.8904C28.1755 29.5548 25.8687 29.7995 23.4216 29.405C22.9816 29.3337 22.4475 29.4005 21.9785 29.535C23.2297 30.8431 29.1587 29.9945 30.5755 28.8904H30.5746Z" fill="black"></path><path d="M35.2252 64.4134C35.2298 64.5019 35.6082 64.7438 35.6118 64.6418L35.7793 59.2577L35.1075 58.8939C35.0858 60.7816 35.1374 62.5943 35.2252 64.4143V64.4134Z" fill="black"></path><path d="M35.3167 71C35.39 70.267 35.4579 69.5655 35.486 68.8036L35.5493 67.0982C35.5548 66.9619 35.3049 66.7227 35.1419 66.7362L35.3167 71Z" fill="black"></path><path d="M33.0615 62.4391C32.9664 61.5011 32.9719 60.8466 33.0932 60.0187C32.4866 60.7437 32.5962 61.7051 33.0615 62.4391Z" fill="black"></path></svg>