<svg xmlns="http://www.w3.org/2000/svg" width="71" height="73" viewBox="0 0 71 73" fill="none"><ellipse cx="36" cy="32.9799" rx="33" ry="32.9799" fill="#EFBEBC"></ellipse><path d="M10.4852 54.1844C10.3608 53.3804 10.2662 52.6225 10.2662 51.7718L10.2497 23.1662L10.1418 14.3213C10.1303 13.3561 10.4185 12.4101 11.1191 11.7808C11.6897 11.2686 12.4916 11.0847 13.2968 11.1173C17.2166 11.2794 21.0212 11.3087 24.9591 11.3087L34.3153 11.3104C34.6587 11.3104 34.9501 11.5001 35.0053 11.831C35.426 14.3589 35.0621 15.9685 35.356 18.1755C35.5923 19.9488 36.7705 21.2676 38.4863 21.6361C39.2849 21.8074 40.0959 21.8308 40.9307 21.8283L44.5756 21.8158C45.6418 21.8124 46.4939 22.5503 46.5285 23.7403L46.7697 31.8966C46.7738 32.0429 46.9681 32.21 47.0447 32.2677C47.1048 32.3128 47.3839 32.1774 47.3938 32.012C47.5304 29.7005 47.6861 26.5716 47.5584 24.083C47.5164 23.2582 47.4712 22.3289 46.9409 21.7372C43.5176 17.9198 39.8925 14.4007 36.2378 10.8315C35.7677 10.3727 35.4285 10.173 34.7517 10.1646L21.553 10.0033L12.5649 10C11.856 10 11.0623 10.1621 10.5016 10.5867C8.67303 11.9731 9.02129 14.8812 9.03529 17.0189C9.11515 29.3127 9.23289 41.5446 9.68324 53.8167C9.74911 55.6009 10.9363 56.9505 12.5657 57.3341C13.6755 57.5956 14.7681 57.7177 15.9553 57.7101C20.9619 57.6784 25.9372 57.8096 31.0212 57.182C25.3395 56.5845 19.8529 56.7767 14.2996 56.6831C12.5591 56.6538 10.7898 56.1633 10.4843 54.1835L10.4852 54.1844ZM39.317 15.2924L44.5377 20.6826L40.9818 20.7812C38.823 20.8414 37.0949 20.7319 36.3695 18.392C36.2691 17.7886 36.2304 17.1827 36.2197 16.556L36.1497 12.233L39.317 15.2932V15.2924Z" fill="black"></path><path d="M53.6674 50.9444C53.9869 50.0285 54.3096 49.0641 54.0519 48.1123C53.5505 50.4062 52.7181 52.3183 51.3012 54.0172C47.6638 58.3753 41.5095 59.4743 36.5539 56.7148C30.6762 53.4415 28.7554 45.9445 32.3319 40.2034C35.7421 34.7296 42.8647 32.6571 48.5941 35.592C54.275 38.5019 56.7969 45.1214 54.7023 51.2503C57.8392 45.0553 54.3277 36.8807 48.208 34.112C43.6098 31.8289 38.1898 32.3028 34.0757 35.4299C28.0498 40.0103 26.7589 49.1527 31.9886 54.934C34.4783 57.6867 37.9947 59.267 41.689 59.3255C47.0866 59.4116 51.8784 56.0805 53.6691 50.9453L53.6674 50.9444Z" fill="black"></path><path d="M60.2894 68.2356L56.2872 63.0226L51.4774 56.9396C51.3448 56.7725 51.0781 56.6831 50.9595 56.7717C50.8566 56.8494 50.7628 57.2238 50.8418 57.3299L55.8484 64.1148L59.2018 68.5515C59.6176 69.1014 59.8012 69.8309 59.6958 70.5011C59.597 71.1337 59.0832 71.5466 58.6378 71.6978C57.2332 72.1775 55.9505 70.4226 55.212 69.2384L48.7325 58.8517C48.6625 58.7397 48.3397 58.6578 48.2418 58.7171C48.1635 58.7648 48.1627 59.0606 48.2401 59.1993L53.8815 69.3354C54.937 71.2315 56.4091 73.3985 58.8189 72.9372C60.0185 72.7082 60.9686 71.7137 60.9991 70.4385C61.0172 69.6588 60.7612 68.849 60.2902 68.2356H60.2894Z" fill="black"></path><path d="M47.7222 40.1189L41.2748 49.095L38.04 46.0013C37.7049 45.6813 37.0306 45.9579 36.833 46.2119C36.5621 46.5604 36.6 47.0835 36.9491 47.422L40.752 51.1057C41.1719 51.5127 41.7433 51.5052 42.0883 51.0238L45.9785 45.596L49.0964 41.2856C49.4018 40.8627 49.2528 40.3187 48.8897 40.0287C48.6015 39.7989 48.0137 39.7153 47.7231 40.1189H47.7222Z" fill="black"></path><path d="M31.7029 30.5052C31.665 30.3732 31.4271 30.201 31.2385 30.1968L21.7728 29.9896C19.675 29.9436 17.699 29.9879 15.6185 30.0799C15.3287 30.0924 15.0776 30.3456 15.0784 30.5813C15.0801 30.837 15.3048 31.0651 15.63 31.0818C20.854 31.3618 25.9948 31.3367 31.2781 31.0192C31.6288 30.9983 31.7548 30.6882 31.7013 30.5052H31.7029Z" fill="black"></path><path d="M31.8042 24.6763C31.7663 24.551 31.5242 24.3713 31.3332 24.3679L17.3747 24.1381C16.7135 24.1273 16.1553 24.2092 15.4958 24.2668C15.2521 24.2877 15.0447 24.5451 15.0513 24.7733C15.0685 25.3766 16.7358 25.349 17.3771 25.3415L31.3802 25.1802C31.6922 25.1769 31.8536 24.8393 31.8033 24.6755L31.8042 24.6763Z" fill="black"></path><path d="M24.9525 36.1001L21.3282 35.9414C19.391 35.857 17.5393 35.8519 15.6078 35.9831C15.3073 36.0032 15.0661 36.2589 15.0595 36.5105C15.0529 36.7587 15.318 37.0018 15.6284 37.011C18.7578 37.1096 21.7819 37.0754 24.9673 36.9693C25.1377 36.9634 25.3263 36.6408 25.3123 36.5105C25.2983 36.3801 25.1032 36.106 24.9525 36.0993V36.1001Z" fill="black"></path></svg>