<svg xmlns="http://www.w3.org/2000/svg" width="71" height="73" viewBox="0 0 71 73" fill="none"><ellipse cx="36" cy="32.9799" rx="33" ry="32.9799" fill="#F4D189"></ellipse><path d="M43.3318 45.8983C44.3388 44.9678 45.4868 44.3573 46.776 43.8869L48.5841 43.2272C50.686 42.4604 52.1466 40.67 52.5239 38.4537C52.9192 36.1285 52.2848 35.2304 53.8066 32.5025L54.6288 31.0292C55.859 28.825 55.5798 26.0983 53.9425 24.1661L52.6731 22.6679C51.0161 20.712 51.2569 19.3793 50.412 17.3209C49.6447 15.4512 48.1019 14.1116 46.141 13.5578C44.0087 12.9548 42.5709 13.5393 40.3336 12.0029C39.7745 11.6186 39.2311 11.25 38.641 10.9022C36.6691 9.74083 34.247 9.66098 32.3269 10.8947L30.3999 12.1331C28.1218 13.5966 26.7038 12.9288 24.543 13.6394C22.8235 14.2042 21.4404 15.402 20.6749 17.0391C19.6172 19.3006 20.03 20.6848 18.1531 22.8103C17.6388 23.3924 17.1316 23.937 16.6896 24.5845C15.3771 26.5092 15.1929 28.9605 16.3188 31.0032L17.2313 32.6582C18.6376 35.2096 18.0435 36.3102 18.4446 38.4751C18.7507 40.1295 19.6323 41.6121 21.0475 42.5414C23.4013 44.0871 25.1488 43.6131 28.0204 46.1935C29.4104 47.4423 31.0891 48.1992 33.0004 48.1563C34.0697 48.132 34.9951 47.7576 36.0149 47.4758C37.2352 47.1384 40.4281 48.5834 43.3324 45.8989L43.3318 45.8983ZM28.8705 45.3214C27.7656 44.3475 26.5545 43.5333 25.175 43.0113L23.0276 42.1989C20.8119 41.3604 19.528 39.4027 19.458 37.0509C19.3799 34.4156 18.7222 32.9493 17.4942 30.6988C16.3858 28.6676 16.6733 26.3552 18.1706 24.6157C19.0633 23.5787 19.8708 22.4978 20.437 21.2496C20.8591 20.3191 21.0883 19.3764 21.4072 18.4112C21.9366 16.8111 23.0316 15.4935 24.6281 14.8969C26.6344 14.1463 28.6 14.4675 30.8483 13.1672C31.6238 12.7187 32.331 12.2454 33.1269 11.8391C34.9624 10.9017 37.069 11.18 38.7378 12.3547C43.0391 15.3812 45.4693 13.5798 48.0179 15.9628C50.3286 18.123 49.2669 20.7224 52.616 24.423C54.1751 26.1458 54.6084 28.4709 53.5128 30.5674C52.2691 32.9481 51.5595 34.3155 51.4732 37.1487C51.4079 39.2951 50.2866 41.1283 48.3176 41.994C47.6675 42.2799 47.015 42.5241 46.3363 42.7596C43.5458 43.7271 41.5843 46.054 38.7524 46.0644L36.4714 46.0731C35.6475 46.076 32.3357 48.378 28.8705 45.322V45.3214Z" fill="black"></path><path d="M52.5548 54.9859C50.9863 51.6892 49.7794 48.3427 48.6762 44.8654C48.4406 44.5963 47.7445 44.8949 47.6628 45.2635C48.7631 49.5949 50.3659 53.7608 52.4242 57.7664C53.9163 60.6708 55.7401 63.3136 57.8945 65.7458C58.1167 65.997 58.3278 66.1521 58.5511 66.4761L52.409 65.019C51.0703 64.7013 49.4814 64.0682 48.7508 65.4426C48.4383 66.0305 48.2033 66.6584 48.05 67.3059L47.2319 70.7641C43.6338 67.1705 40.7021 60.3092 39.0416 55.6068L37.0253 49.8964C36.8801 49.4844 36.7454 49.136 36.4061 48.8004C36.4831 49.8484 36.6784 50.7031 36.9268 51.7285C38.4836 58.1513 41.2601 67.0241 45.8699 71.7982C46.211 72.1512 47.72 73.6511 48.0395 72.6749C48.7549 70.4887 48.9747 68.7318 49.6727 66.4292C49.7595 66.1434 50.0476 65.8951 50.3111 65.8702L54.641 66.6248C56.4275 66.9362 58.1703 67.0594 60 67.0554C56.9331 63.3727 54.5151 59.3451 52.5554 54.9847L52.5548 54.9859Z" fill="black"></path><path d="M33.9805 49.7275L32.4704 53.5658C30.5853 58.3584 28.2618 63.5127 24.6333 67.391L23.8701 65.0312C23.6013 64.2008 23.3547 63.3715 22.9698 62.5984C22.525 61.7038 21.5565 61.4104 20.6253 61.742L15.2068 63.6724L12.3043 64.6423C13.5346 63.522 14.5993 62.4595 15.5777 61.1806C19.2224 56.4158 21.8212 50.9768 23.2614 45.164C23.2048 44.8428 22.3425 44.5703 22.2107 44.8891C21.1553 48.4763 19.7169 51.8344 18.0126 55.1508C16.1205 58.8329 13.8926 62.2142 11 65.284C14.457 64.9704 17.9321 63.9392 21.153 62.9554C21.441 62.8675 21.7897 62.9821 21.9028 63.2847C22.2118 64.1116 22.4567 64.9235 22.7319 65.7696L23.8555 69.2248C23.9097 69.3927 24.1103 69.6363 24.2532 69.6583C25.0094 69.774 27.0933 67.1642 27.5971 66.4599C31.1999 61.4277 33.4645 55.108 34.5805 49.0724C34.2178 49.2055 34.0878 49.4555 33.9811 49.7275H33.9805Z" fill="black"></path><path d="M47.9544 36.827C50.0283 33.6981 50.8231 29.8991 49.8721 26.2106C49.626 25.2558 49.3304 24.3351 48.794 23.5764C49.5252 25.9982 49.8295 28.3343 49.4033 30.781C48.2931 37.1516 42.9639 41.7735 36.5379 42.1827C31.5252 42.5015 26.8461 40.1555 24.1395 35.9694C21.3437 31.6449 21.3151 26.1863 24.0905 21.8306C26.5825 17.9193 30.8704 15.4287 35.5752 15.3071C37.8521 15.2481 39.894 15.6867 42.038 16.5027C37.953 14.0815 32.8336 14.1307 28.6612 16.2614C22.8206 19.2445 19.6632 25.7118 21.1332 32.1171C22.1425 36.5145 25.2391 40.269 29.341 42.1549C36.0557 45.2415 43.9137 42.9216 47.9544 36.8264V36.827Z" fill="black"></path><path d="M34.1799 31.9111L29.7469 27.5595C29.3784 27.1978 28.5912 27.5381 28.3877 27.8494C28.109 28.2765 28.2262 28.7845 28.6029 29.1595L33.5747 34.1188C33.9817 34.525 34.7152 34.6031 35.0884 34.0765L40.1791 26.8836L44.2134 21.1165C44.5452 20.6425 44.1644 19.9649 43.7738 19.767C43.3026 19.5286 42.7406 19.7103 42.4502 20.2022L37.918 26.6486L34.1793 31.9105L34.1799 31.9111Z" fill="black"></path></svg>