<svg xmlns="http://www.w3.org/2000/svg" width="114" height="94" viewBox="0 0 114 94" fill="none"><rect x="22" y="3" width="90" height="90" rx="45" fill="#EEBBA3"></rect><rect x="22" y="3" width="90" height="90" rx="45" stroke="#E5E7EB"></rect><path d="M45.6598 43.7161C49.7193 38.637 50.6949 31.6332 47.5672 25.9467C48.3236 29.7603 48.7343 33.312 47.3904 36.8864C45.7581 41.2264 42.6729 44.8047 38.192 46.5553C31.8289 49.0397 24.8743 47.1588 20.3496 42.2752C15.3928 36.9236 14.6923 28.8471 18.7997 22.791C21.946 18.152 27.1952 15.7992 32.7408 15.9853C35.5508 16.0797 37.8066 17.0899 40.5873 17.922C38.3928 16.0531 35.6957 15.0827 32.9016 14.7451C25.8221 13.8904 19.0748 17.4887 15.539 23.687C13.0679 28.0216 12.6346 33.3147 14.243 38.0176C16.3857 44.2903 21.7572 48.8749 27.8598 50.0672C34.6828 51.3991 41.4434 48.9932 45.6611 43.7161H45.6598Z" fill="black"></path><path d="M25.9962 30.6269C25.1946 29.9769 24.1844 29.9823 23.5437 30.6708C22.9509 31.3088 22.8459 32.577 23.6394 33.2137L31.248 39.3215C31.599 39.6033 32.4337 38.8377 32.6491 38.5519L46.5796 20.1551C47.2056 19.3283 47.1737 18.5122 46.5902 17.7891C46.1462 17.2388 44.7798 16.7895 44.1896 17.5724L31.1842 34.8274L25.9975 30.6256L25.9962 30.6269Z" fill="black"></path><path d="M46.6114 65.8602C46.7098 55.7858 53.2722 47.0779 62.7325 43.388C59.4027 40.0781 58.4257 35.1612 61.3262 31.3875C62.8388 29.5013 64.7117 28.1495 66.9037 27.118C71.8498 24.7891 77.3369 22.1679 82.0398 18.8514C84.1161 17.3879 84.2357 17.4397 85.8933 15.6692C85.8933 15.6692 94.669 8.45534 93.353 0C90.7703 6.46413 87.5229 10.3243 85.0864 12.794C79.8638 18.0884 73.2854 21.3756 66.6524 24.5937C64.4286 25.6731 62.3643 26.8508 60.5446 28.5376C56.3654 32.415 55.2156 38.1069 58.7208 43.0011C53.5873 45.4257 49.3071 49.1423 46.4957 54.0419C43.388 59.4599 42.407 65.8323 44.0526 71.883C46.4771 80.7983 54.7264 86.5765 63.881 86.9913C60.1152 85.993 56.6366 84.5255 53.6949 81.8723C49.1808 77.8008 46.5529 71.9801 46.6127 65.8602H46.6114Z" fill="black"></path><path d="M97.9722 37.7426C97.5402 33.9649 97.2903 30.2005 96.062 26.5105C96.2575 31.7597 96.8676 36.4985 96.6682 41.5443C96.2894 51.1175 94.3526 60.4316 88.157 67.9697C85.6554 71.0137 82.6074 73.4263 79.1128 75.2261C75.2234 77.2293 71.1653 78.1969 66.7827 78.2275C62.3577 78.2581 58.4032 76.8424 54.8421 74.1507C56.7363 76.9461 61.4684 79.1221 64.6094 79.6817C69.4479 80.5444 74.2425 79.8838 78.7792 78.0813C83.3664 76.2589 87.2265 73.4396 90.345 69.5927C93.2666 65.9878 95.3522 61.9044 96.5751 57.4075C97.5189 53.9395 98.0878 50.5433 98.1995 46.9344C98.2952 43.8279 98.3258 40.8265 97.9735 37.744L97.9722 37.7426Z" fill="black"></path><path d="M71.2144 73.09C79.586 69.7124 85.755 62.4547 87.5123 53.5979C88.2328 49.9637 88.0958 46.404 87.4365 42.7606C86.8078 39.2886 86.005 35.9867 84.8033 32.5028C84.8073 35.3686 85.4998 37.9606 85.8069 40.7109C86.0475 42.8656 86.2402 44.9113 86.2349 47.0966C86.207 57.0433 80.5205 65.7286 72.101 70.6043C70.0939 71.7661 68.0681 72.5051 65.8203 73.0302C61.8977 73.9474 58.0695 73.619 54.1535 72.0678C58.4098 75.2341 66.243 75.0971 71.2157 73.09H71.2144Z" fill="black"></path><path d="M68.3805 68.968C70.6362 68.1545 72.3961 66.7694 74.1614 65.3272C75.9585 63.8584 77.3941 62.0998 78.3791 59.9756C79.921 56.6539 79.0822 52.589 76.1287 50.4383C74.2611 49.0771 72.0598 48.5654 69.7536 49.2526C67.999 49.775 66.3135 51.0032 65.4149 53.0543C63.8531 50.8291 61.6412 49.8096 59.0997 49.9478C56.598 50.0834 54.5231 51.2864 53.2683 53.1473C50.4542 57.3211 52.6382 62.0666 56.5621 65.0374C59.105 66.9622 61.9031 68.4509 65.1172 69.3229L60.4263 65.8841C57.2068 63.5234 52.7086 58.439 55.5519 54.3037C56.61 52.7645 58.4736 51.85 60.5539 51.9922C62.8561 52.1504 64.5257 53.7189 65.6542 55.8443L66.4956 54.0951C67.9657 51.0391 71.9894 50.1778 74.5894 52.391C76.2935 53.8412 76.7999 56.1833 76.2828 58.334C75.2048 62.8136 71.572 65.7432 68.3818 68.968H68.3805Z" fill="black"></path><path d="M92.1182 69.3867L93.1935 76.9767C93.9273 84.9987 94.3101 88.9931 87.6639 93.0473C90.6547 92.6485 91.6702 92.3295 93.1935 90.123C94.7169 87.9164 95.3815 83.6203 94.7129 78.9892C94.2303 75.6554 93.462 72.4652 92.1182 69.3867Z" fill="black"></path></svg>