<svg xmlns="http://www.w3.org/2000/svg" width="71" height="73" viewBox="0 0 71 73" fill="none"><ellipse cx="36" cy="32.9799" rx="33" ry="32.9799" fill="#CBD9DC"></ellipse><path d="M33.6444 24.0929C31.1188 24.4409 28.5923 25.9594 27.217 28.4125C25.7017 31.1145 25.6289 34.0972 26.8454 36.9882C28.6241 41.2134 31.2589 44.9118 34.41 48.3604C34.7806 48.7664 35.4099 48.5877 35.6975 48.2715C38.8551 44.7967 41.4946 40.9448 43.2405 36.5775C44.584 33.2168 43.9912 29.4828 41.5524 26.8482C39.5236 24.6561 36.661 23.6775 33.6453 24.0938L33.6444 24.0929ZM42.0445 36.0227C40.4666 40.0841 38.0363 43.6393 34.9972 47.0608C32.0011 43.6188 29.4074 40.0373 27.8417 35.8973C26.556 32.4983 27.611 28.9271 30.3336 26.8557C33.1112 24.7412 36.7553 24.7946 39.5638 26.8641C42.3573 28.9224 43.3647 32.6246 42.0445 36.0227Z" fill="black"></path><path d="M37.5956 35.4166C39.057 33.9522 39.057 31.5779 37.5956 30.1135C36.1343 28.6491 33.7649 28.6491 32.3035 30.1135C30.8421 31.5779 30.8421 33.9522 32.3035 35.4166C33.7649 36.881 36.1343 36.881 37.5956 35.4166Z" fill="black"></path><path d="M51.8397 10.2035C52.0057 10.1947 52.1515 10.3101 52.1774 10.4705L52.9544 15.2983C53.0541 15.9194 53.0948 16.5385 53.1458 17.1502L53.1685 17.4119L53.5121 21.2122L53.6855 23.2656L53.8225 24.8473C53.8269 24.8979 53.8187 24.9488 53.7988 24.9956L52.961 26.9636C52.6647 27.6606 52.3296 28.2742 52.1757 28.9372C51.8946 30.1517 51.7075 31.3498 51.5593 32.5865C51.409 33.8448 51.4822 35.055 51.5369 36.3387L51.5412 36.4476C51.5608 36.9848 51.5522 37.4152 51.6861 37.876L54.2957 46.8656L60.7566 58.9696C60.8069 59.0638 60.8055 59.1763 60.7529 59.2692C60.7003 59.3622 60.6035 59.4232 60.4952 59.4317L57.6504 59.6549C57.6489 59.6551 57.6473 59.6552 57.6457 59.6553L55.1379 59.8159L48.4015 60.2617L37.2437 61.0225C37.2433 61.0225 37.2429 61.0225 37.2425 61.0226L35.5264 61.1334L25.7283 61.7944C25.7271 61.7945 25.7259 61.7946 25.7248 61.7946L24.5129 61.8632L22.8632 61.9977L22.871 63.1223C22.8719 63.2652 22.8908 63.4302 22.9175 63.5814L24.101 63.5963C24.2047 63.5976 24.3015 63.6473 24.3614 63.73C24.4213 63.8126 24.4371 63.9183 24.4039 64.0143L23.5044 66.6167L24.4659 67.2608L24.4929 67.2793C24.5572 67.3251 24.6305 67.3868 24.694 67.4541C24.7305 67.4928 24.7696 67.5395 24.8024 67.5916C24.8308 67.6367 24.8674 67.7062 24.8798 67.7915L24.882 67.8089L24.884 67.8362C24.8867 67.8996 24.8768 67.9586 24.8673 68.0015C24.8554 68.0551 24.8383 68.1087 24.8203 68.1573C24.7849 68.2524 24.7371 68.3517 24.6907 68.4248C24.6316 68.5177 24.5277 68.5744 24.4157 68.5745L22.4647 68.5769C22.3484 68.577 22.241 68.5164 22.1831 68.4179L21.3243 66.9561C21.2362 67.0638 21.1533 67.17 21.072 67.2847L20.1095 68.6417L18.8735 70.3906L18.1209 71.4584L18.9563 72.1728L18.9721 72.1873L18.9745 72.1897C19.0549 72.2683 19.0872 72.3823 19.0597 72.49C19.0322 72.5978 18.949 72.6837 18.8403 72.7163C18.0931 72.9401 17.4003 72.6459 16.8489 72.4774L14.9567 71.897C14.8528 71.8652 14.7722 71.7844 14.7422 71.6821L12.0992 62.6685C12.0977 62.6632 12.0963 62.6579 12.095 62.6526L11.2151 58.9308C11.1759 58.7651 11.2777 58.5987 11.4456 58.554L17.2847 56.998L16.2103 44.5492C16.2103 44.5488 16.2103 44.5483 16.2102 44.5479L16.0295 42.355L15.9479 41.4451L15.7737 39.4742L15.678 38.3635L15.4544 35.732L15.1822 32.5841L14.9018 29.2615L14.2726 22.015C13.748 21.6409 13.2806 21.2821 12.8448 20.8516C12.7918 20.7993 12.7591 20.7305 12.7524 20.6572L12.2906 15.6132C12.2905 15.6128 12.2905 15.6124 12.2905 15.612L12.0927 13.3533C12.0854 13.2692 12.1126 13.1858 12.1684 13.1215C12.2242 13.0571 12.304 13.0173 12.39 13.0106L13.6134 12.9156L13.6153 12.9154L24.7116 12.1174L27.2155 11.94L27.2166 11.9399L30.304 11.7303L33.6288 11.4785C33.6292 11.4785 33.6297 11.4785 33.6301 11.4784L39.2838 11.0794L41.3232 10.9338L44.8785 10.671L45.697 10.607C45.6991 10.6068 45.7011 10.6067 45.7032 10.6066L47.2216 10.5163L50.3619 10.2815L50.3692 10.281L51.8397 10.2035ZM50.4077 10.9133L47.266 11.1482C47.2643 11.1483 47.2626 11.1484 47.2609 11.1485L45.7436 11.2387L44.9288 11.3025C44.9283 11.3025 44.9279 11.3025 44.9274 11.3026L41.3713 11.5654H41.3704L33.6771 12.1102L31.6418 12.2636L30.3544 12.3618C30.3536 12.3618 30.3527 12.3619 30.3519 12.362L27.2614 12.5718L24.759 12.749L13.6629 13.5471L12.7663 13.6167L12.9363 15.558L13.3875 20.4858C13.7412 20.8242 14.1235 21.1218 14.5648 21.4393L14.7729 21.5876L14.7869 21.598C14.8553 21.6521 14.8985 21.7313 14.9059 21.8174L15.5477 29.2087V29.2096L15.8281 32.531L16.1003 35.6786L16.3239 38.3104L16.4194 39.4197L16.5937 41.3902L16.6755 42.3019L16.6757 42.3041L16.8564 44.4971L17.9533 57.2075C17.9664 57.3598 17.8664 57.4995 17.7156 57.5397L11.9168 59.0849L12.725 62.503L15.3173 71.3438L17.0424 71.8729C17.377 71.9752 17.6572 72.0743 17.9185 72.1269L17.4769 71.7492C17.3531 71.6434 17.3301 71.4637 17.4234 71.3313L18.3398 70.0314L19.5764 68.2813L20.5393 66.9239L20.5742 66.8753C20.7491 66.6344 20.9304 66.4249 21.1229 66.1988L21.136 66.1842C21.2037 66.114 21.3008 66.0774 21.4 66.0857C21.5057 66.0947 21.6002 66.1537 21.6531 66.2436L22.6517 67.9433L24.2109 67.9414C24.2108 67.9415 24.2109 67.9413 24.2109 67.9414C24.2174 67.9238 24.2228 67.9076 24.2268 67.8938C24.224 67.8905 24.2209 67.887 24.2174 67.8833C24.18 67.8436 24.1324 67.8052 24.1005 67.7839L22.9357 67.0037C22.816 66.9236 22.7654 66.7755 22.8119 66.6412L23.6472 64.2239L22.6496 64.2114C22.5028 64.2096 22.3756 64.1115 22.3396 63.9723C22.2799 63.7414 22.2246 63.413 22.2228 63.1265L22.213 61.7086C22.2119 61.5431 22.3414 61.4046 22.5102 61.3909L24.4621 61.2318L24.4702 61.2312L25.686 61.1623L35.4827 60.5015L35.4836 60.5014L37.1987 60.3906L48.3571 59.6298L55.094 59.1841L55.0948 59.184L57.6032 59.0233L59.9556 58.8386L53.7056 47.1296C53.6954 47.1105 53.6872 47.0903 53.6812 47.0695L51.0625 38.0489C50.8925 37.4638 50.9122 36.8915 50.8893 36.3656C50.8354 35.1003 50.7579 33.8322 50.9155 32.5129C51.0654 31.2621 51.2559 30.0405 51.5436 28.7975C51.7138 28.0641 52.0981 27.3426 52.3625 26.7208L53.1699 24.8238L53.0397 23.3189L52.8664 21.268L52.5229 17.468L52.4994 17.1978C52.4472 16.574 52.4099 15.9934 52.3141 15.3967L51.5825 10.8513L50.4077 10.9133Z" fill="black"></path><path d="M51.8283 10.0005C52.099 9.98624 52.3386 10.1744 52.3812 10.4387L53.1584 15.267C53.2597 15.8976 53.3015 16.5268 53.3521 17.1333L53.7177 21.1939V21.1955L53.8912 23.2484L54.0284 24.8298C54.0356 24.9132 54.0224 24.9974 53.9897 25.0743L53.1519 27.0423C52.8451 27.7642 52.5258 28.3421 52.3771 28.9825C52.0982 30.1877 51.9123 31.3783 51.7646 32.6104C51.6537 33.5391 51.666 34.4415 51.7024 35.3786L51.7436 36.3304L51.7476 36.44L51.7767 37.1759C51.7928 37.398 51.8223 37.6053 51.8848 37.8205L54.4868 46.7871L60.9394 58.8752C61.022 59.0301 61.0202 59.2154 60.9337 59.3682C60.8474 59.5208 60.6885 59.6202 60.5116 59.6341L57.6667 59.8572C57.6657 59.8573 57.6628 59.8578 57.6594 59.858L56.3036 59.9453L55.1696 60.0168L55.1519 60.0184L48.4152 60.4637L48.416 60.4645L37.2582 61.225H37.2558L35.54 61.3354L35.4472 61.3425L35.4464 61.3417L25.7421 61.9974C25.7412 61.9975 25.7386 61.9973 25.7364 61.9974L24.5291 62.0649L24.5299 62.0657L23.0707 62.184L23.0779 63.1208C23.0785 63.2001 23.0862 63.2892 23.0973 63.3796L24.1037 63.393C24.2729 63.3952 24.4316 63.4765 24.5299 63.6122C24.6281 63.7479 24.6538 63.9219 24.5993 64.0797L23.7502 66.5351L24.5823 67.0924L24.5839 67.094L24.6114 67.1131L24.6138 67.1147C24.688 67.1674 24.7719 67.2375 24.8454 67.3155C24.8878 67.3604 24.9359 67.4179 24.9778 67.4846C25.0046 67.5272 25.0409 67.5926 25.065 67.6751L25.0843 67.7624L25.0851 67.7664L25.0868 67.7831L25.0884 67.7942L25.09 67.822L25.0908 67.8275H25.0892C25.093 67.9157 25.0803 67.9941 25.069 68.0451C25.0546 68.1099 25.0343 68.1724 25.0141 68.2269C24.9748 68.3325 24.921 68.4453 24.8656 68.5325C24.7687 68.685 24.5987 68.7775 24.4161 68.7778L22.4646 68.7802C22.2752 68.7803 22.0996 68.6813 22.0045 68.5198L21.3 67.3211C21.2804 67.3474 21.2611 67.3741 21.2419 67.4012L20.279 68.7579L19.0434 70.5068L19.0426 70.506L18.3953 71.4237L19.0918 72.0191L19.0967 72.0239L19.1128 72.0382L19.1201 72.0453C19.2518 72.1742 19.3048 72.3617 19.2597 72.5391C19.2145 72.7164 19.0781 72.8574 18.9005 72.9106C18.0772 73.1573 17.3076 72.8306 16.7876 72.6717L16.7868 72.6709L14.895 72.0914C14.7253 72.0393 14.5933 71.9064 14.544 71.7381L11.9008 62.7246C11.8981 62.7156 11.8955 62.7067 11.8935 62.6984L11.0138 58.9768C10.9492 58.7036 11.1173 58.4307 11.3915 58.3576L17.0636 56.8453L16.0048 44.5667C16.0047 44.5657 16.004 44.5643 16.0039 44.5635L15.824 42.3725L15.7433 41.4738L15.7416 41.4619L15.5681 39.4963L15.5673 39.4908L15.2485 35.7493L15.0847 33.8607L15.0839 33.8528V33.8512L14.6957 29.2786L14.0742 22.1227C13.5772 21.7657 13.1235 21.4147 12.6982 20.9947C12.6115 20.9089 12.5575 20.7962 12.5464 20.6755L12.0848 15.6314C12.0846 15.6287 12.0841 15.6263 12.084 15.625L12.0848 15.6298L11.8871 13.3704C11.875 13.2322 11.9198 13.095 12.0114 12.9894C12.103 12.8839 12.2335 12.8185 12.3737 12.8076L13.5964 12.7131H13.5981L13.6005 12.7123L24.6961 11.9145L27.1997 11.7375H27.2021L30.2883 11.5279L31.5756 11.4295L31.5837 11.4287H31.5861L32.4739 11.3612L33.6127 11.2762L33.6151 11.2755L36.1655 11.0945L36.1735 11.0937H36.1776L39.2687 10.8769L41.3073 10.7309L44.8625 10.4681L45.6809 10.4046L45.6873 10.4038H45.6905L47.2062 10.3133L50.3465 10.0791L50.3482 10.0783H50.3578L51.8283 10.0005ZM50.3821 10.4832L50.3772 10.484L47.2369 10.719H47.2337L45.7156 10.8095H45.7131L44.8948 10.8738L41.3388 11.1365L33.645 11.6811L30.3198 11.9328H30.3182L27.2311 12.1416L27.232 12.1423H27.2303L24.7268 12.3202L24.7195 12.321H24.7155L13.632 13.1172L13.6328 13.118H13.6295L12.406 13.2133C12.3744 13.2158 12.3452 13.2301 12.3253 13.253C12.3054 13.2759 12.2961 13.3059 12.2987 13.3355L12.4964 15.5948L12.9581 20.639C12.9604 20.6648 12.9721 20.6892 12.9911 20.7081C13.3094 21.0224 13.646 21.2988 14.0145 21.5742L14.3938 21.8504L14.4705 21.9052L15.1073 29.2444L15.2655 31.1338L15.2671 31.137L15.2679 31.1537L15.3865 32.554L15.3873 32.5556L15.3882 32.5667L15.6601 35.7144L15.8821 38.327L15.8829 38.3301L15.8837 38.346L15.9797 39.4566L16.1541 41.427L16.2356 42.3367V42.3383L16.4164 44.5318L17.5051 57.1501L17.3388 57.1938L11.4997 58.7498C11.4381 58.7662 11.4028 58.8266 11.4165 58.8847L12.2963 62.6063C12.2968 62.6086 12.2975 62.6105 12.2979 62.6119L14.941 71.6254C14.9517 71.6616 14.9805 71.6915 15.0185 71.7032L16.9103 72.2835L17.3542 72.424C17.8047 72.5632 18.2772 72.6723 18.7803 72.5216C18.8199 72.5097 18.8496 72.4787 18.8594 72.4407C18.8691 72.4025 18.8576 72.3617 18.8287 72.3335L18.8263 72.3311L18.8206 72.3263L17.9853 71.6119L17.8457 71.492L17.9514 71.3427L18.7036 70.2742L19.94 68.5253L20.8028 67.3084L20.9029 67.1686L21.0312 66.9948C21.0745 66.9387 21.1186 66.8838 21.1636 66.8289L21.3524 66.5979L22.3621 68.3158C22.3827 68.3509 22.4218 68.3738 22.4646 68.3737L24.4153 68.3713C24.4564 68.3713 24.4942 68.3505 24.5153 68.3174C24.5528 68.2584 24.5945 68.1717 24.6259 68.0871C24.6417 68.0447 24.6561 68.0006 24.6655 67.9585C24.6728 67.9253 24.6785 67.8874 24.6776 67.8506L24.6768 67.8339L24.6751 67.8204L24.6566 67.7545C24.6479 67.734 24.6373 67.7149 24.6267 67.6981C24.6032 67.6608 24.5734 67.625 24.5428 67.5926C24.4894 67.536 24.4261 67.4828 24.3717 67.4441L24.3475 67.4274L23.3879 66.7844L23.2579 66.6979L24.2087 63.9487C24.2203 63.9149 24.2146 63.8774 24.1933 63.8479C24.1718 63.8183 24.1362 63.8 24.0981 63.7995L22.9149 63.7844L22.743 63.782L22.714 63.6161C22.7 63.5371 22.688 63.4535 22.6793 63.37L22.6647 63.1239L22.6567 61.999L22.655 61.8109L22.8463 61.795L24.496 61.6608L24.5008 61.6601L25.713 61.5918L35.6053 60.9241L37.2292 60.8194L48.387 60.0588L52.6959 59.7746L52.7024 59.7738H52.708L54.6684 59.6437L54.6668 59.6421L56.2769 59.5397L56.2834 59.5389H56.289L57.632 59.4523H57.6336L60.4786 59.2293C60.5183 59.2261 60.5534 59.2036 60.5722 59.1705C60.5908 59.1375 60.5916 59.0976 60.5738 59.0641L54.1124 46.9602L54.1027 46.9411L54.097 46.9213L51.4878 37.9316C51.3808 37.5633 51.3587 37.2106 51.3465 36.8369L51.3344 36.455L51.3304 36.3471C51.276 35.0694 51.2012 33.8407 51.3538 32.5628C51.5026 31.3215 51.6912 30.1156 51.9744 28.892L52.0422 28.6363C52.22 28.0436 52.5202 27.4732 52.7702 26.8851L53.6079 24.9171L53.616 24.8909C53.6174 24.8823 53.6175 24.8734 53.6168 24.8647L53.4796 23.2826L53.3061 21.2304L52.9631 17.4302L52.9623 17.4286L52.9397 17.1675C52.8882 16.5509 52.8483 15.9411 52.75 15.3297L51.9736 10.5022C51.9645 10.4457 51.9122 10.403 51.8509 10.4062L50.3821 10.4832ZM52.5184 15.3646C52.6158 15.9707 52.6539 16.5619 52.7056 17.1802L52.729 17.4501L53.072 21.2503L53.2448 23.2937L53.2456 23.3016L53.3755 24.8068L53.3803 24.856L53.3602 24.902L52.5531 26.7994C52.2787 27.4448 51.9101 28.1321 51.7452 28.8427C51.5311 29.768 51.3705 30.682 51.2408 31.607L51.1205 32.5366C50.9653 33.8362 51.0414 35.0854 51.0955 36.3566L51.0963 36.3653C51.1195 36.9078 51.1007 37.4407 51.261 37.9928L53.8799 47.0134C53.882 47.0207 53.8852 47.028 53.8888 47.0348L60.284 59.0165L57.6199 59.2261H57.6167L55.1123 59.3856L55.1131 59.3864L55.1075 59.3872L48.3716 59.8326L48.3644 59.8334H48.3603L37.213 60.5931L35.4996 60.7035L35.5004 60.7042H35.4964L25.7001 61.3647L25.6977 61.3655L24.4831 61.433L24.4839 61.4338H24.4782L24.479 61.4346L22.5275 61.5934C22.4653 61.5984 22.4191 61.6489 22.4194 61.7069L22.4291 63.1247C22.4308 63.3907 22.4829 63.7033 22.5396 63.9226C22.5525 63.9716 22.5986 64.0076 22.6526 64.0083L23.6502 64.021L23.9343 64.0242L23.8431 64.2893L23.0077 66.7066C22.9914 66.7539 23.0088 66.807 23.0521 66.836L24.2135 67.614L24.2167 67.6156C24.2606 67.6449 24.3198 67.6935 24.3685 67.745C24.3746 67.7515 24.3812 67.759 24.3822 67.7601L24.4564 67.8434L24.425 67.9498L24.4048 68.0109L24.3555 68.1443H24.2111L22.6518 68.1467H22.5324L21.4743 66.3454C21.4554 66.3132 21.4211 66.2915 21.3823 66.2882C21.3459 66.2852 21.3106 66.2987 21.2862 66.324L21.2806 66.3287C21.0867 66.5565 20.9113 66.759 20.7423 66.9916L20.7431 66.9924L20.7084 67.0408L20.7076 67.04L17.5931 71.4467C17.56 71.4937 17.568 71.5579 17.6124 71.596L18.6471 72.4811L17.8772 72.3263C17.6025 72.2711 17.3029 72.165 16.9813 72.0667L15.1493 71.5055L15.1186 71.3999L12.5263 62.5595L12.523 62.5492L11.7152 59.1308L11.6708 58.9403L11.8629 58.8887L17.6617 57.3438C17.717 57.3291 17.7518 57.2782 17.7472 57.2248L16.6504 44.5143L16.4696 42.3209L16.2138 39.4376L16.1177 38.3278L15.8942 35.6961L15.6222 32.5485L15.3421 29.2262L15.3413 29.2182V29.2167L14.6997 21.8346C14.697 21.8043 14.6822 21.7762 14.6577 21.7568L14.6481 21.7496L14.4439 21.6035C13.9992 21.2836 13.6074 20.979 13.2438 20.6311L13.1889 20.5787L13.1816 20.5041L12.7305 15.5758L12.5424 13.43L12.7498 13.4141L13.6465 13.3442L13.7409 13.3371L24.291 12.5782L27.2465 12.3694L27.3401 12.3622L29.5055 12.2162L29.5127 12.2154H29.5168L30.3376 12.159C30.3345 12.1592 30.3319 12.1598 30.3319 12.1598H30.3335C30.3346 12.1597 30.3356 12.1592 30.3376 12.159L31.6257 12.0606L33.7555 11.9002L41.3557 11.3628L41.363 11.362H41.3662L44.9117 11.1L45.7269 11.0357H45.7309L47.2482 10.9452H47.2506L50.3917 10.7102H50.3966L51.5717 10.6483L51.7573 10.6388L52.5184 15.3646ZM50.4224 11.1151L50.4232 11.1159L47.2813 11.3509C47.2789 11.351 47.2769 11.3508 47.2756 11.3509C47.2732 11.351 47.2744 11.3516 47.2732 11.3517L45.7591 11.4406L44.9448 11.5049C44.9425 11.5051 44.9404 11.5056 44.9392 11.5057H44.9375C44.9385 11.5056 44.9409 11.505 44.9432 11.5049L41.3864 11.7684L39.3461 11.9137L39.3389 11.9145H39.334L33.6918 12.3122L33.6926 12.313L32.1067 12.4313L31.6579 12.4662L30.3707 12.5647C30.372 12.5646 30.3732 12.564 30.3739 12.5639C30.3729 12.564 30.37 12.5644 30.3666 12.5647L29.5337 12.6218L27.2755 12.7735L27.2763 12.7743L25.2256 12.9187L25.2264 12.9195L13.678 13.7491L13.6788 13.7499L12.9895 13.8023L13.1421 15.5401L13.586 20.3889C13.9151 20.6975 14.2714 20.976 14.6868 21.2749L14.8942 21.4233L14.8974 21.4257L14.912 21.436L14.9168 21.4392C15.029 21.5279 15.0998 21.6586 15.1121 21.8004L15.7538 29.1912V29.1928L16.0338 32.5135L16.305 35.6501L16.3058 35.6564L16.3066 35.662L16.6254 39.4019L16.8812 42.2836V42.2875L16.882 42.2899L17.062 44.4802L18.1588 57.1906C18.1803 57.4415 18.016 57.6703 17.7698 57.736L12.1623 59.2293L12.9266 62.4571L15.4842 71.1824L17.104 71.6785C17.1373 71.6887 17.1698 71.6988 17.2016 71.7087C17.135 71.5506 17.1481 71.3652 17.2533 71.2157L19.4066 68.1649L19.4074 68.1641L20.3702 66.8074L20.4057 66.7582C20.5862 66.5096 20.7735 66.2924 20.9642 66.0684L20.9683 66.0636L20.9812 66.0493L20.986 66.0445C21.097 65.9293 21.256 65.8697 21.4178 65.8834C21.5904 65.898 21.7451 65.9945 21.8318 66.1422L22.7696 67.7394L23.6655 67.7386L22.8197 67.1718C22.6237 67.0405 22.5398 66.7969 22.6163 66.5756L23.3596 64.4235L22.647 64.4147C22.4075 64.4117 22.1986 64.2515 22.1393 64.0226C22.0766 63.78 22.0178 63.4348 22.0158 63.1279L22.0062 61.7101C22.0043 61.4373 22.2177 61.2111 22.4928 61.1885L24.4451 61.0289H24.4484L24.4564 61.0281H24.458L25.6743 60.9591L35.4657 60.2986H35.4698L37.1848 60.1874L48.3426 59.4269H48.3442L55.0752 58.9816L55.0816 58.9808L57.5868 58.8204L59.6263 58.6601L53.5224 47.2237C53.5057 47.1924 53.4927 47.1593 53.4828 47.1253L50.8639 38.1047C50.6852 37.4894 50.7052 36.8802 50.6831 36.3741L50.6823 36.3653C50.6287 35.1086 50.551 33.825 50.7105 32.4889C50.86 31.2418 51.0502 30.0206 51.3368 28.7769V28.7745L51.3425 28.7522L51.4175 28.4688C51.6151 27.8095 51.9496 27.1657 52.1721 26.6422L52.959 24.7909L52.834 23.3357L52.6604 21.286L52.3174 17.4858L52.3166 17.485L52.2932 17.2151C52.2406 16.586 52.2043 16.0151 52.11 15.4281L51.407 11.0635L50.4224 11.1151Z" fill="black"></path></svg>